/* XPM */
static char *_d1bf6cf99ee478de6aafa8d18755f55RMYjLzuXYERXz1Qi[] = {
/* columns rows colors chars-per-pixel */
"64 64 130 2 ",
"   c black",
".  c #010000",
"X  c #000100",
"o  c #010100",
"O  c #010101",
"+  c #020001",
"@  c #000201",
"#  c #000002",
"$  c #010002",
"%  c #100114",
"&  c #130014",
"*  c #120114",
"=  c #110215",
"-  c #130214",
";  c #130215",
":  c #100116",
">  c #120016",
",  c #130117",
"<  c #110217",
"1  c #140115",
"2  c #140315",
"3  c #140117",
"4  c #140316",
"5  c #170417",
"6  c #1C0316",
"7  c #1D0417",
"8  c #1F0417",
"9  c #130119",
"0  c #110219",
"q  c #140019",
"w  c #140218",
"e  c #150218",
"r  c #3A071A",
"t  c #3E081F",
"y  c #350922",
"u  c #3F0B21",
"i  c #5B162B",
"p  c #53192F",
"a  c #5F1A2D",
"s  c #4F1933",
"d  c #5B1A30",
"f  c #5A1833",
"g  c #5B1A32",
"h  c #5F1F37",
"j  c #631C2A",
"k  c #671430",
"l  c #621D32",
"z  c #631F34",
"x  c #631F36",
"c  c #5F2035",
"v  c #682431",
"b  c #692532",
"n  c #6D2638",
"m  c #7C2C37",
"M  c #433951",
"N  c #4C4152",
"B  c #4C4358",
"V  c #4C475B",
"C  c #5B4F5B",
"Z  c #574A64",
"A  c #584F62",
"S  c #545061",
"D  c #595764",
"F  c #55516A",
"G  c #892F2F",
"H  c #CE332E",
"J  c #CB342D",
"K  c #CC352C",
"L  c #CD342E",
"P  c #CC352E",
"I  c #CC342F",
"U  c #CD362F",
"Y  c #B34F2D",
"T  c #B15429",
"R  c #B7542B",
"E  c #B6552B",
"W  c #B85734",
"Q  c #B95734",
"!  c #EB4B0F",
"~  c #EE4C0E",
"^  c #EE4B10",
"/  c #EC4C10",
"(  c #ED4D11",
")  c #EC4C12",
"_  c #FF7F00",
"`  c #CC5827",
"'  c #C15D2C",
"]  c #C15C2E",
"[  c #C15539",
"{  c #D17623",
"}  c #FF8000",
"|  c #FD8701",
" . c #FE8600",
".. c #FF8700",
"X. c #FF8601",
"o. c #FF8603",
"O. c #E19935",
"+. c #F9A938",
"@. c #FAA83A",
"#. c #FAAA3B",
"$. c #FAB830",
"%. c #FFCE37",
"&. c #FDCE38",
"*. c #FFCE39",
"=. c #FECF39",
"-. c #FFCF3A",
";. c #F6B348",
":. c #F3B85E",
">. c #D19E6F",
",. c #D29E6F",
"<. c #C69374",
"1. c #CB9E77",
"2. c #C1987A",
"3. c #D39E76",
"4. c #EFD195",
"5. c #EFD49D",
"6. c #EDE4AD",
"7. c #F5E3A1",
"8. c #F5E3A3",
"9. c #F8F7D9",
"0. c #F9F8DA",
"q. c #F8F9DA",
"w. c #FBFADC",
"e. c #E6ECEA",
"r. c #FDF9ED",
"t. c #FFF9ED",
"y. c #FCFAED",
"u. c #FDF9EE",
"i. c #FFF8EE",
"p. c #FEFAEE",
/* pixels */
"                                                                                                                                ",
"                                                                                                                                ",
"                                                                                                                                ",
"                                                                                                                                ",
"                                                                                                                                ",
"                                                                                                                                ",
"                                                                                                                                ",
"                                                                                                                                ",
"                                                              =                                                                 ",
"                                                        (   = P                                                                 ",
"                                                            = P =                                                               ",
"                                                            = P =                                                               ",
"                                              }           = P P =                                                               ",
"                                              1           = P ( ( =                                                             ",
"                                                        = P ( X.P = 1 =     _ ^                                                 ",
"                                                _       = ( X.X.X.( P =     = _                                                 ",
"                                                =     = = ( X.*.X.X.P =     =                                                   ",
"                                                    = P P X.X.r.*.X.^ P =                                                       ",
"                                                  = = ( X.X.r.*.%.X.( H =   _ (                                                 ",
"                                                1 P P X.*.*.r.r.r.*.X.P =   = = }                                               ",
"                                              1 P ( X.*.*.r.r.r.r.*.X.( =     =                                                 ",
"                                              = P ( X.*.r.r.r.r.r.*.*.*.P =                                                     ",
"                                              = J ! *.*.r.r.r.r.r.r.*.*.P =                                                     ",
"                                              = P X.*.r.r.r.r.r.r.r.*.X.( P =                                                   ",
"                                              1 J X.X.r.r.r.r.r.r.*.*.X.( P =                                                   ",
"                                              = ( ( X.X.%.r.r.r.r.r.X.( ( P =                                                   ",
"                                              e = P ( X.X.r.r.r.*.X.^ ( P = =                                                   ",
"                                                1 = P ( X.*.r.r.*.X.( P = =                                                     ",
"                                                  = P ( %.r.r.*.X.X.( P =                                                       ",
"                                                    = ! X.*.*.X.~ P 1 =                                                         ",
"                                                    = = = = = = = = =                                                           ",
"                                                = 2.8.0.0.0.9.0.8.8.2.=                                                         ",
"                                                = B B 2.8.0.2.2.8.B B =                                                         ",
"                                                  = = = = 9 1 = = = = 9                                                         ",
"                                                  = f 7 [ b b [ k 6 f =                                                         ",
"                                                  = m ` #.7 Q 7 #.m f =                                                         ",
"                                                  = = 9 Q #.7 Q ` = = 1                                                         ",
"                                                    = f 5 f :.O.5 f =                                                           ",
"                                                      = = 1 = = = =                                                             ",
"                                                      = 6.,.C ,.Z =                                                             ",
"                                                      = S ,.3.A M 9                                                             ",
"                                                        = = = = 1                                                               ",
"                                                        = z z t =                                                               ",
"                                                        = $.R G =                                                               ",
"                                                        = T l u e                                                               ",
"                                                        = { R = 9                                                               ",
"                                                        = ;.Y a =                                                               ",
"                                                        = n y i =                                                               ",
"                                                        = j ] r =                                                               ",
"                                                        = j ] p e                                                               ",
"                                                      = e.w.4.F V =                                                             ",
"                                                      = D 5.1.<.N =                                                             ",
"                                                      = = c c s = =                                                             ",
"                                                        = = h = =                                                               ",
"                                                          = = =                                                                 ",
"                                                                                                                                ",
"                                                                                                                                ",
"                                                                                                                                ",
"                                                                                                                                ",
"                                                                                                                                ",
"                                                                                                                                ",
"                                                                                                                                ",
"                                                                                                                                ",
"                                                                                                                                "
};
