/* XPM */
static char *_230bb4e6b764d7ab4fac3b95c5bc24237qvbS4dWE0LuYpJ[] = {
/* columns rows colors chars-per-pixel */
"64 64 125 2 ",
"   c black",
".  c #010000",
"X  c #000100",
"o  c #010100",
"O  c #010101",
"+  c #000201",
"@  c #000002",
"#  c #100114",
"$  c #120114",
"%  c #110215",
"&  c #130214",
"*  c #130215",
"=  c #120016",
"-  c #130117",
";  c #110217",
":  c #120316",
">  c #140115",
",  c #140315",
"<  c #140117",
"1  c #170417",
"2  c #1D0417",
"3  c #130119",
"4  c #1F0619",
"5  c #3A071A",
"6  c #3E081F",
"7  c #310921",
"8  c #400920",
"9  c #5A162B",
"0  c #53192F",
"q  c #5F1A2D",
"w  c #4F1931",
"e  c #5B1A32",
"r  c #5B1934",
"t  c #631C2A",
"y  c #671430",
"u  c #621C34",
"i  c #631F34",
"p  c #5F2035",
"a  c #692532",
"s  c #6A2633",
"d  c #6D2638",
"f  c #7C2C35",
"g  c #7C2C37",
"h  c #433951",
"j  c #4B4051",
"k  c #4B4358",
"l  c #4C4358",
"z  c #4C475B",
"x  c #5B4F5B",
"c  c #574B61",
"v  c #584F62",
"b  c #545061",
"n  c #595764",
"m  c #555168",
"M  c #8A2E31",
"N  c #CB342D",
"B  c #CA352E",
"V  c #CD342C",
"C  c #CC352C",
"Z  c #CD342E",
"A  c #CC352E",
"S  c #CC342F",
"D  c #CD362F",
"F  c #B34F2D",
"G  c #B1542B",
"H  c #B7542A",
"J  c #B6552B",
"K  c #B85633",
"L  c #B85734",
"P  c #B65834",
"I  c #EB4B0F",
"U  c #EC4C0E",
"Y  c #FE5F0D",
"T  c #EB4D10",
"R  c #EC4C10",
"E  c #ED4D11",
"W  c #FF7F00",
"Q  c #CB5726",
"!  c #CC5827",
"~  c #C05B2D",
"^  c #C15C2E",
"/  c #C15539",
"(  c #D17623",
")  c #FF8000",
"_  c #FF8001",
"`  c #FE8500",
"'  c #FF8601",
"]  c #FF8603",
"[  c #FF8803",
"{  c #DE9932",
"}  c #FAB82E",
"|  c #F7A93A",
" . c #F9A93A",
".. c #FAAA3B",
"X. c #FFCE37",
"o. c #FFCD39",
"O. c #FDCE38",
"+. c #FFCE39",
"@. c #FFCF3A",
"#. c #F6B446",
"$. c #F1B85E",
"%. c #D19F6E",
"&. c #D19E6F",
"*. c #C89374",
"=. c #C1987A",
"-. c #CB9D79",
";. c #D39F70",
":. c #D29C76",
">. c #EFD49D",
",. c #F0D296",
"<. c #EDE4AD",
"1. c #F5E3A1",
"2. c #F5E3A3",
"3. c #F3E4A3",
"4. c #F6F9DA",
"5. c #F8F9DA",
"6. c #F9FADB",
"7. c #FBFADC",
"8. c #E5EBE9",
"9. c #FDF9ED",
"0. c #FFF9ED",
"q. c #FCFAED",
"w. c #FDF9EE",
"e. c #FEFAEE",
"r. c #FFFAEE",
/* pixels */
"                                                                                                                                ",
"                                                                                                                                ",
"                                                                                                                                ",
"                                                                                                                                ",
"                                                                                                                                ",
"                                                                                                                                ",
"                                                                                                                                ",
"                                                                                                                                ",
"                                                                                                                                ",
"                                                                      R                                                         ",
"                                                                *                                                               ",
"                                                        Y       C >                                                             ",
"                                                      )       * C *                                                             ",
"                                                              * R *                                                             ",
"                                                  * *       * C R *                                                             ",
"                                                    Y       * C *         )                                                     ",
"                                                      *   * * R ' *     W )                                                     ",
"                                                    * * * C C ' ' R *                                                           ",
"                                                * * > C C R R ' ' C >     *                                                     ",
"                                              > C C C R ' ' ' +.' U N *                                                         ",
"                                              * C R ' +.X.+.+.+.R R C *                                                         ",
"                                            * * ' ' +.+.9.9.+.+.R C *     *                                                     ",
"                                            * [ ' X.+.9.9.9.9.+.R C *   * *                                                     ",
"                                          * C ' +.+.9.9.9.9.9.+.C *     W                                                       ",
"                                          * C +.+.9.9.9.9.X.' ' N *                                                             ",
"                                          * T +.9.9.9.9.+.' ' ' ' C *                                                           ",
"                                          * I ' 9.' 9.9.9.9.' +.' C * *                                                         ",
"                                          > R R +.' +.9.9.9.9.+.R C *                                                           ",
"                                            * R ' ' +.+.+.+.9.R C *                                                             ",
"                                              * U ' +.X.+.C C * *                                                               ",
"                                              * * * > * * * > *                                                                 ",
"                                          * =.3.4.6.6.6.6.2.2.=.*                                                               ",
"                                          * k l =.2.6.=.=.2.l l *                                                               ",
"                                            * * * * * * * * * 3 *                                                               ",
"                                            * e 2 / s s / y 4 r >                                                               ",
"                                            * f Q ..2 K 2 | f e 3                                                               ",
"                                            * * * L ..2 P ! * * *                                                               ",
"                                              * e 1 e $.{ 1 e *                                                                 ",
"                                                * * * * * * *                                                                   ",
"                                                * <.;.x &.c *                                                                   ",
"                                                * b &.:.v h *                                                                   ",
"                                                  * * * * *                                                                     ",
"                                                  * i i 6 *                                                                     ",
"                                                  * } J M *                                                                     ",
"                                                  * G i 8 *                                                                     ",
"                                                  * ( J > *                                                                     ",
"                                                  3 #.F q *                                                                     ",
"                                                  * d 7 9 *                                                                     ",
"                                                  3 t ^ 5 *                                                                     ",
"                                                  * t ~ 0 *                                                                     ",
"                                                * 8.7.,.m z *                                                                   ",
"                                                > n >.-.*.j *                                                                   ",
"                                                * > p p w * *                                                                   ",
"                                                  * * p * *                                                                     ",
"                                                    * * *                                                                       ",
"                                                                                                                                ",
"                                                                                                                                ",
"                                                                                                                                ",
"                                                                                                                                ",
"                                                                                                                                ",
"                                                                                                                                ",
"                                                                                                                                ",
"                                                                                                                                ",
"                                                                                                                                "
};
