/* XPM */
static char *b5dbb2a377944daeeb787871c7aea9b1skr4FTzZb7Wagbd2[] = {
/* columns rows colors chars-per-pixel */
"64 64 124 2 ",
"   c black",
".  c #010000",
"X  c #000100",
"o  c #010101",
"O  c #020001",
"+  c #000201",
"@  c #020200",
"#  c #000002",
"$  c #010002",
"%  c #010103",
"&  c #100114",
"*  c #130014",
"=  c #120114",
"-  c #110215",
";  c #130214",
":  c #130215",
">  c #100116",
",  c #120016",
"<  c #130016",
"1  c #130117",
"2  c #110217",
"3  c #120316",
"4  c #140117",
"5  c #170417",
"6  c #160517",
"7  c #1D0515",
"8  c #1D0417",
"9  c #1C0517",
"0  c #1F0417",
"q  c #130119",
"w  c #110219",
"e  c #140218",
"r  c #3A0519",
"t  c #3E081F",
"y  c #340A22",
"u  c #3F0B21",
"i  c #5A162B",
"p  c #52182E",
"a  c #5F1A2D",
"s  c #4F1933",
"d  c #5B1A30",
"f  c #5B1A32",
"g  c #611D2A",
"h  c #631C2A",
"j  c #671430",
"k  c #611D32",
"l  c #601F35",
"z  c #631F34",
"x  c #631F36",
"c  c #5F2035",
"v  c #67252F",
"b  c #692532",
"n  c #6D2638",
"m  c #7C2C37",
"M  c #433951",
"N  c #4C4152",
"B  c #4C4358",
"V  c #4C475B",
"C  c #5B4F5D",
"Z  c #574A64",
"A  c #584F62",
"S  c #545061",
"D  c #595764",
"F  c #555168",
"G  c #892F2F",
"H  c #CB342D",
"J  c #CD342E",
"K  c #CC352E",
"L  c #CC342F",
"P  c #CD342F",
"I  c #CD362F",
"U  c #B34F2D",
"Y  c #B35329",
"T  c #B7542B",
"R  c #B6552B",
"E  c #B85734",
"W  c #B65834",
"Q  c #EB4B0F",
"!  c #EC4C0E",
"~  c #EC4C10",
"^  c #ED4D11",
"/  c #EC4C12",
"(  c #ED4D13",
")  c #CC5827",
"_  c #C15C2E",
"`  c #C15539",
"'  c #D17623",
"]  c #FE8500",
"[  c #FF8600",
"{  c #FF8700",
"}  c #FF8601",
"|  c #FF8702",
" . c #E09834",
".. c #F9A938",
"X. c #F9A93A",
"o. c #FAB830",
"O. c #FDCE36",
"+. c #FFCE37",
"@. c #FECF37",
"#. c #FFCD38",
"$. c #FFCD39",
"%. c #FFCE39",
"&. c #FECF39",
"*. c #F6B348",
"=. c #F1B85E",
"-. c #D19E6F",
";. c #C69374",
":. c #C1987A",
">. c #CB9D79",
",. c #D39E76",
"<. c #EFD49D",
"1. c #F0D296",
"2. c #EBE4AD",
"3. c #F5E3A1",
"4. c #F5E3A3",
"5. c #F6E2A3",
"6. c #F7F8D9",
"7. c #F8F9DA",
"8. c #FBFADC",
"9. c #E6ECEA",
"0. c #FDF9ED",
"q. c #FFF9ED",
"w. c #FCFAED",
"e. c #FEFAEE",
/* pixels */
"                                                                                                                                ",
"                                                                                                                                ",
"                                                                                                                                ",
"                                                                                                                                ",
"                                                                                                                                ",
"                                                                                                                                ",
"                                                                                                                                ",
"                                                                                                                                ",
"                                                                                                                                ",
"                                                          -                                                                     ",
"                                                          I -   } ~                                                             ",
"                                                    ~     I -                                                                   ",
"                                                        - I I -                                                                 ",
"                                                      - I ~ I - - ~ }                                                           ",
"                                                - }   - H ~ ~ -   - -                                                           ",
"                                                ~ -   - H } ~ -                                                                 ",
"                                                -     - I } ~ I -           }                                                   ",
"                                                    - I ~ } } I - - -     ~ -                                                   ",
"                                                    - I ~ } } } ~ ~ I - -                                                       ",
"                                                    - I } } 0.+.} } ~ I -                                                       ",
"                                                  - I ~ 0.%.0.0.%.} } I -                                                       ",
"                                                  - I 0.0.0.0.0.0.%.} ~ I -                                                     ",
"                                                - I ~ 0.0.0.0.0.0.%.} ~ I -                                                     ",
"                                                - I Q } %.0.0.0.0.0.%.} ~ I -   }                                               ",
"                                                - ~ ~ %.%.0.0.0.0.0.+.} } I -                                                   ",
"                                            }     - I } %.0.0.0.0.+.} } Q ~ -                                                   ",
"                                                  - I } %.+.0.0.%.%.} } ~ -                                                     ",
"                                                - I I ~ } %.0.0.0.0.} ~ I -                                                     ",
"                                                  - I ~ } %.0.%.0.~ I I -                                                       ",
"                                                    - I ~ %.%.} ! I - -                                                         ",
"                                                    - - - - - - - - -                                                           ",
"                                                - :.4.7.7.7.7.7.4.4.:.-                                                         ",
"                                                - B B :.4.6.:.:.4.B B -                                                         ",
"                                                  - - - - - - q - 4 - q                                                         ",
"                                                  - f 8 ` b v ` j 8 f -                                                         ",
"                                                  - m ) X.8 E 8 X.m f -                                                         ",
"                                                  - - - E X.8 W ) - - -                                                         ",
"                                                    - f 5 f =. .5 f -                                                           ",
"                                                      - - 4 - - - -                                                             ",
"                                                      e 2.-.C -.Z -                                                             ",
"                                                      - S -.,.A M q                                                             ",
"                                                        - - - - 4                                                               ",
"                                                        - l l t -                                                               ",
"                                                        - o.T G -                                                               ",
"                                                        - Y k u -                                                               ",
"                                                        - ' T - q                                                               ",
"                                                        - *.U a -                                                               ",
"                                                        - n y i -                                                               ",
"                                                        - g _ r -                                                               ",
"                                                        - g _ p q                                                               ",
"                                                      - 9.8.1.F V -                                                             ",
"                                                      - D <.>.;.N -                                                             ",
"                                                      - - l l s - -                                                             ",
"                                                        - - c - 4                                                               ",
"                                                          - - -                                                                 ",
"                                                                                                                                ",
"                                                                                                                                ",
"                                                                                                                                ",
"                                                                                                                                ",
"                                                                                                                                ",
"                                                                                                                                ",
"                                                                                                                                ",
"                                                                                                                                ",
"                                                                                                                                "
};
