/* XPM */
static char *a2bc0b116e1d40a1cfffa52ae800c3c6wxOrrT8uQELWuFfH[] = {
/* columns rows colors chars-per-pixel */
"64 64 131 2 ",
"   c black",
".  c #010000",
"X  c #000100",
"o  c #010100",
"O  c #010101",
"+  c #020100",
"@  c #020001",
"#  c #000200",
"$  c #000002",
"%  c #010002",
"&  c #020202",
"*  c #100114",
"=  c #120114",
"-  c #110215",
";  c #130214",
":  c #130215",
">  c #120016",
",  c #130117",
"<  c #110217",
"1  c #120316",
"2  c #140115",
"3  c #140315",
"4  c #140117",
"5  c #170417",
"6  c #1D0417",
"7  c #1C0517",
"8  c #130119",
"9  c #110219",
"0  c #140218",
"q  c #3A071A",
"w  c #3E081F",
"e  c #340A22",
"r  c #3F0B21",
"t  c #5A162B",
"y  c #53192F",
"u  c #5F1A2D",
"i  c #4F1933",
"p  c #5A1931",
"a  c #5B1A32",
"s  c #5B1935",
"d  c #5F1F37",
"f  c #621B29",
"g  c #631C2A",
"h  c #671430",
"j  c #621D32",
"k  c #631F34",
"l  c #631F36",
"z  c #5F2035",
"x  c #602136",
"c  c #692532",
"v  c #6B2432",
"b  c #6D2638",
"n  c #7C2C37",
"m  c #433951",
"M  c #4C4152",
"N  c #4B4358",
"B  c #4C4358",
"V  c #4C475B",
"C  c #5B4F5B",
"Z  c #574B63",
"A  c #584F62",
"S  c #545061",
"D  c #595764",
"F  c #55516A",
"G  c #892F2F",
"H  c #CD342C",
"J  c #CD342E",
"K  c #CC352E",
"L  c #CC342F",
"P  c #CD362F",
"I  c #B34F2D",
"U  c #B15429",
"Y  c #B6552B",
"T  c #B8552C",
"R  c #B75633",
"E  c #B85734",
"W  c #B85832",
"Q  c #EB4B0F",
"!  c #EE4B10",
"~  c #EB4D10",
"^  c #EC4C10",
"/  c #ED4D11",
"(  c #EF4C11",
")  c #EC4C12",
"_  c #CC5827",
"`  c #C15D2C",
"'  c #C15C2E",
"]  c #C15539",
"[  c #D17623",
"{  c #FE8500",
"}  c #FD8701",
"|  c #FE8600",
" . c #FF8700",
".. c #FF8601",
"X. c #FF8702",
"o. c #FF8603",
"O. c #FF8800",
"+. c #E19935",
"@. c #F9A93A",
"#. c #FAAA3B",
"$. c #FAB830",
"%. c #FFCE39",
"&. c #FECF39",
"*. c #FFCF3A",
"=. c #FFCE3B",
"-. c #F4B448",
";. c #F1B85E",
":. c #D19E6F",
">. c #D29E6F",
",. c #C69374",
"<. c #CB9E77",
"1. c #C1987A",
"2. c #C1987C",
"3. c #D29F70",
"4. c #D39E76",
"5. c #EED094",
"6. c #EFD49D",
"7. c #EDE4AD",
"8. c #F5E3A3",
"9. c #F6E2A3",
"0. c #F8F9DA",
"q. c #F9FADB",
"w. c #FBFADC",
"e. c #E5EBE9",
"r. c #FDFAEB",
"t. c #FDF9ED",
"y. c #FFF9ED",
"u. c #FCFAED",
"i. c #FDF9EE",
"p. c #FEFAEE",
"a. c #FEFAEF",
/* pixels */
"                                                                                                                                ",
"                                                                                                                                ",
"                                                                                                                                ",
"                                                                                                                                ",
"                                                                                                                                ",
"                                                                                                                                ",
"                                                                                                                                ",
"                                                                                                                                ",
"                                                                                                                                ",
"                                                    (   :                                                                       ",
"                                                      : H       (                                                               ",
"                                                  O.  : H :                                                                     ",
"                                                (     : H H :              .                                                    ",
"                                                        : H :           ( :  .                                                  ",
"                                                      : ( ( H :         :                                                       ",
"                                                      : H ( H 3                                                                 ",
"                                                      : H  .( H :     :                                                         ",
"                                                    : H (  . .H : 3   : 3                                                       ",
"                                                    : H  .u. .( H : : : :                                                       ",
"                                                  : H ~  .u.u. . .( H H :                                                       ",
"                                                  : H  . .%.u.%.%. .( H :                                                       ",
"                                                  : (  .%.u.u.u.u.%. .( H :                                                     ",
"                                                : ( (  .%.u.u.u.u.%. .Q H :                                                     ",
"                                             .  : H  . . .%.u.u.u.u.%. .( H :                                                   ",
"                                            !     : H (  .%.u.u.u.r.%. . .H :                                                   ",
"                                                  3 H (  .%.u.u.u.%.%. .( ( :                                                   ",
"                                                : H (  .%.u.u.r.%.%. .( H :                                                     ",
"                                                : H (  . .%.%.u.%. . .( H :                                                     ",
"                                                  : H (  . .u.u. .( ( H :                                                       ",
"                                                    : H H  .%. .H H : :                                                         ",
"                                                    : : : : : : : : :                                                           ",
"                                                : 1.9.0.0.0.0.0.9.9.1.:                                                         ",
"                                                : N B 2.9.0.1.1.9.B B :                                                         ",
"                                                  : : : : : : 8 : 3 : :                                                         ",
"                                                  : p 6 ] c c ] h 6 s :                                                         ",
"                                                  : n _ @.6 E 6 @.n p :                                                         ",
"                                                  : : : W @.6 R _ : : :                                                         ",
"                                                    : p 5 p ;.+.5 p :                                                           ",
"                                                      : 8 0 : : : :                                                             ",
"                                                      : 7.3.C 3.Z :                                                             ",
"                                                      : S :.4.A m 8                                                             ",
"                                                        : : : : 3                                                               ",
"                                                        : k k w :                                                               ",
"                                                        : $.Y G 0                                                               ",
"                                                        : U j r :                                                               ",
"                                                        : [ T 3 8                                                               ",
"                                                        : -.I u :                                                               ",
"                                                        : b e t :                                                               ",
"                                                        : g ' q :                                                               ",
"                                                        : f ' y 8                                                               ",
"                                                      : e.w.5.F V :                                                             ",
"                                                      : D 6.<.,.M :                                                             ",
"                                                      : : z x i : :                                                             ",
"                                                        : : d : 3                                                               ",
"                                                          : : :                                                                 ",
"                                                                                                                                ",
"                                                                                                                                ",
"                                                                                                                                ",
"                                                                                                                                ",
"                                                                                                                                ",
"                                                                                                                                ",
"                                                                                                                                ",
"                                                                                                                                ",
"                                                                                                                                "
};
