/* XPM */
static char *_388a97992c240cdbf71599dc2c096e3igNr3o1YNsHsBmge[] = {
/* columns rows colors chars-per-pixel */
"64 64 130 2 ",
"   c black",
".  c #010000",
"X  c #000100",
"o  c #010100",
"O  c #010101",
"+  c #020001",
"@  c #000002",
"#  c #010103",
"$  c #020202",
"%  c #120114",
"&  c #110215",
"*  c #130214",
"=  c #130215",
"-  c #120016",
";  c #130117",
":  c #110217",
">  c #120316",
",  c #140117",
"<  c #140316",
"1  c #170417",
"2  c #160517",
"3  c #190016",
"4  c #1D0515",
"5  c #1D0417",
"6  c #1F0417",
"7  c #120018",
"8  c #130119",
"9  c #140218",
"0  c #3B061A",
"q  c #3E081F",
"w  c #340A22",
"e  c #3F0B21",
"r  c #5B162B",
"t  c #53182E",
"y  c #5F1A2D",
"u  c #4F1931",
"i  c #5A1931",
"p  c #5A1833",
"a  c #5B1A32",
"s  c #5B1934",
"d  c #631C2A",
"f  c #631C2C",
"g  c #681531",
"h  c #621D32",
"j  c #631F34",
"k  c #5F2035",
"l  c #692532",
"z  c #6D2638",
"x  c #7C2C37",
"c  c #433A4F",
"v  c #4C4152",
"b  c #4C4358",
"n  c #4C475B",
"m  c #5B4F5B",
"M  c #574A64",
"N  c #584F62",
"B  c #545061",
"V  c #595764",
"C  c #555168",
"Z  c #882E30",
"A  c #CC352C",
"S  c #CD342E",
"D  c #CC352E",
"F  c #CC342F",
"G  c #CE352F",
"H  c #B34F2D",
"J  c #B1562A",
"K  c #B7542B",
"L  c #B6552B",
"P  c #B85734",
"I  c #B65834",
"U  c #EC4C0E",
"Y  c #FF5E0D",
"T  c #EE4B10",
"R  c #EB4D10",
"E  c #EC4C10",
"W  c #EC4C12",
"Q  c #F04A18",
"!  c #FF7F00",
"~  c #FE7C02",
"^  c #CC5827",
"/  c #C15C2E",
"(  c #C15539",
")  c #D17623",
"_  c #FF8201",
"`  c #FE8500",
"'  c #FC8600",
"]  c #FF8700",
"[  c #FF8601",
"{  c #FF8704",
"}  c #FE8800",
"|  c #FE8D00",
" . c #E09834",
".. c #F9A93A",
"X. c #FBB931",
"o. c #FFCD36",
"O. c #FECF37",
"+. c #FFCD38",
"@. c #FFCD39",
"#. c #FDCE38",
"$. c #FFCE39",
"%. c #FECF39",
"&. c #FFCF3A",
"*. c #F5B345",
"=. c #F1B85E",
"-. c #D19E6F",
";. c #D29E6F",
":. c #C69374",
">. c #CB9E77",
",. c #C1987A",
"<. c #D39E76",
"1. c #EFD195",
"2. c #F0D59E",
"3. c #EDE4AD",
"4. c #F4E2A0",
"5. c #F5E3A1",
"6. c #F5E3A3",
"7. c #F6E2A3",
"8. c #F8F9D9",
"9. c #F8F9DA",
"0. c #F8F8DC",
"q. c #FAF9DD",
"w. c #E5EBE9",
"e. c #FCF8EC",
"r. c #FDF9ED",
"t. c #FFF9ED",
"y. c #FCFAED",
"u. c #FDF9EE",
"i. c #FFF9EF",
"p. c #FEFAEE",
/* pixels */
"                                                                                                                                ",
"                                                                                                                                ",
"                                                                                                                                ",
"                                                                                                                                ",
"                                                                                                                                ",
"                                                                                                                                ",
"                                                                                                                                ",
"                                                                                                                                ",
"                                                                                                                                ",
"                                                                                                                                ",
"                                                                          ;                                                     ",
"                                                                          ;                                                     ",
"                                                                  ~ Y     D ;                                                   ",
"                                                                  , ;   ; D ;                                                   ",
"                                                                        ; D ;                                                   ",
"                                                              } ;     ; U D ;                                                   ",
"                                                              ; ;   ; D [ D ;   ~                                               ",
"                                                          ; ; ; ; ; D [ E D ;   ;                                               ",
"                                                      ; ; D D D D E D [ E ; ;                                                   ",
"                                                    ; ; D D [ #.[ #.[ [ D ;   | ;                                               ",
"                                                    ; D D [ #.#.#.#.[ D ; ;   ; ;                                               ",
"                                                    ; D [ #.#.u.#.#.E ; ;                                                       ",
"                                                  ; ; [ [ #.#.u.u.[ D [ D ;                                                     ",
"                                                ; D [ [ #.#.u.u.[ [ { [ D ;   _                                                 ",
"                                                ; D [ #.#.u.u.#.[ #.[ D ;                                                       ",
"                                                ; R #.#.u.u.u.u.#.#.#.D ;   3                                                   ",
"                                                ; T #.u.u.u.u.u.u.u.#.D ;                                                       ",
"                                                ; E #.u.[ #.u.u.u.u.[ Q D ;                                                     ",
"                                                  ; E #.[ o.o.u.#.D E D ;                                                       ",
"                                                    ; [ [ #.#.#.D D ; ;                                                         ",
"                                                    ; ; ; ; ; ; ; ; ;                                                           ",
"                                                ; ,.7.0.9.9.9.9.7.7.,.;                                                         ",
"                                                ; b b ,.7.9.,.,.7.b b ;                                                         ",
"                                                  ; ; ; ; 8 ; ; ; , ; ;                                                         ",
"                                                  ; a 6 ( l l ( g 6 a ;                                                         ",
"                                                  ; x ^ ..6 P 6 ..x a ;                                                         ",
"                                                  ; 8 ; P ..6 I ^ ; ; ;                                                         ",
"                                                    ; a 1 s =. .1 a ;                                                           ",
"                                                      9 ; ; ; ; ; ;                                                             ",
"                                                      ; 3.;.m ;.M ;                                                             ",
"                                                      ; B ;.<.N c 8                                                             ",
"                                                        ; ; ; 8 ;                                                               ",
"                                                        ; j j q ;                                                               ",
"                                                        ; X.K Z ;                                                               ",
"                                                        ; J h e ;                                                               ",
"                                                        ; ) K ; ;                                                               ",
"                                                        ; *.H y ;                                                               ",
"                                                        ; z w r ;                                                               ",
"                                                        ; f / 0 ;                                                               ",
"                                                        ; d / t ;                                                               ",
"                                                      ; w.0.1.C n ;                                                             ",
"                                                      ; V 2.>.:.v ;                                                             ",
"                                                      ; ; k k u ; ;                                                             ",
"                                                        ; ; k ; ,                                                               ",
"                                                          ; ; ;                                                                 ",
"                                                                                                                                ",
"                                                                                                                                ",
"                                                                                                                                ",
"                                                                                                                                ",
"                                                                                                                                ",
"                                                                                                                                ",
"                                                                                                                                ",
"                                                                                                                                ",
"                                                                                                                                "
};
