/* XPM */
static char *_82a4970cae84dbded983ad96d973aaeTPVHUyFWjjHoDBEn[] = {
/* columns rows colors chars-per-pixel */
"64 64 126 2 ",
"   c black",
".  c #010000",
"X  c #000100",
"o  c #010101",
"O  c #020001",
"+  c #000201",
"@  c #000002",
"#  c #010002",
"$  c #010103",
"%  c #0F0214",
"&  c #120114",
"*  c #110215",
"=  c #130214",
"-  c #130215",
";  c #100116",
":  c #120016",
">  c #130117",
",  c #110217",
"<  c #120316",
"1  c #140115",
"2  c #140315",
"3  c #140117",
"4  c #140316",
"5  c #170417",
"6  c #1D0417",
"7  c #110219",
"8  c #140019",
"9  c #140218",
"0  c #1E0518",
"q  c #3B061A",
"w  c #3F081F",
"e  c #340924",
"r  c #3F0B21",
"t  c #5A162B",
"y  c #53192F",
"u  c #5F1A2D",
"i  c #4F1931",
"p  c #5B1A30",
"a  c #5B1A32",
"s  c #5D1932",
"d  c #5D1834",
"f  c #631C2A",
"g  c #671430",
"h  c #621D32",
"j  c #631F34",
"k  c #641F34",
"l  c #5F2035",
"z  c #692532",
"x  c #6D2638",
"c  c #7C2C37",
"v  c #7D2D38",
"b  c #443B50",
"n  c #4C4152",
"m  c #4B4358",
"M  c #4C4358",
"N  c #4C475B",
"B  c #5B4F5B",
"V  c #564A62",
"C  c #534F60",
"Z  c #584F64",
"A  c #575763",
"S  c #55516A",
"D  c #8A2E31",
"F  c #CC352C",
"G  c #CD342E",
"H  c #CC352E",
"J  c #CC342F",
"K  c #B34F2D",
"L  c #B3532B",
"P  c #B7542B",
"I  c #B8552C",
"U  c #B85734",
"Y  c #B95835",
"T  c #EB4B0F",
"R  c #EE4C0E",
"E  c #EE4B10",
"W  c #EC4C10",
"Q  c #EC4C12",
"!  c #F04A18",
"~  c #CB5726",
"^  c #CD5727",
"/  c #C25B2E",
"(  c #C15C2E",
")  c #C15539",
"_  c #C25439",
"`  c #D27724",
"'  c #FD8701",
"]  c #FF8700",
"[  c #FF8601",
"{  c #FF8702",
"}  c #E19734",
"|  c #F9A93A",
" . c #FAB830",
".. c #FFCE37",
"X. c #FECF37",
"o. c #FFCC38",
"O. c #FFCD38",
"+. c #FFCD39",
"@. c #FFCE39",
"#. c #FFCF3A",
"$. c #FFCF3C",
"%. c #F6B348",
"&. c #F1B85E",
"*. c #D19E6F",
"=. c #C69374",
"-. c #C1987A",
";. c #C2997B",
":. c #CB9D79",
">. c #D29F70",
",. c #D39D77",
"<. c #EFD195",
"1. c #F1D49A",
"2. c #EDE4AD",
"3. c #F5E3A3",
"4. c #F3E4A3",
"5. c #F8F9DA",
"6. c #FBFADC",
"7. c #E5EBE7",
"8. c #FCF8EC",
"9. c #FDF9ED",
"0. c #FFF8ED",
"q. c #FFF9ED",
"w. c #FCFAED",
"e. c #FEFBEC",
"r. c #FDF9EE",
"t. c #FEFAEE",
/* pixels */
"                                                                                                                                ",
"                                                                                                                                ",
"                                                                                                                                ",
"                                                                                                                                ",
"                                                                                                                                ",
"                                                                                                                                ",
"                                                                                                                                ",
"                                                                                                                                ",
"                                                                                                                                ",
"                                        W                                                                                       ",
"                                            *                                                                                   ",
"                                            4   R                                                                               ",
"                                          * H                                                                                   ",
"                                          * H *                                                                                 ",
"                                          * H *       W       * [                                                               ",
"                                          * H W *     * [       * W                                                             ",
"                                          * H [ H *     * *                                                                     ",
"                                          * H E [ H * * 4 * *                                                                   ",
"                                          * * W [ H W H H H H * *                                                               ",
"                                            * H [ [ @.[ @.[ H H * *     [                                                       ",
"                                            * * H [ @.@.@.@.[ H H 4   [ *                                                       ",
"                                          [   * * E @.@.9.@.@.[ H *                                                             ",
"                                        *   * H [ H [ 9.9.@.@.[ [ * *                                                           ",
"                                        [   4 H [ [ [ [ 9.9.@.@.[ [ H *                                                         ",
"                                        *     * H [ $.[ @.9.9.@.@.[ H *                                                         ",
"                                              * H @.@.@.9.9.9.9.@.@.T *                                                         ",
"                                              * H @.9.9.9.9.9.9.9.@.W *                                                         ",
"                                            * H ! [ 9.9.9.9.@.[ 9.@.W %                                                         ",
"                                              * H W H @.9.X.@.[ @.W *                                                           ",
"                                                * * H H @.@.X.[ [ *                                                             ",
"                                                  * * * * * * * * *                                                             ",
"                                              * -.3.5.5.5.5.5.4.3.-.*                                                           ",
"                                              * M m -.3.5.-.-.3.M M *                                                           ",
"                                                * * * * * * * * * * *                                                           ",
"                                                * a 6 _ z z _ g 6 d 9                                                           ",
"                                                * c ^ | 6 U 6 | v a *                                                           ",
"                                                * * 9 Y | 0 U ~ * * *                                                           ",
"                                                  * a 5 a &.} 5 a *                                                             ",
"                                                    * * * * * 9 *                                                               ",
"                                                    * 2.*.B >.V 9                                                               ",
"                                                    * C *.,.Z b *                                                               ",
"                                                      * * * * *                                                                 ",
"                                                      * k j w *                                                                 ",
"                                                      *  .P D *                                                                 ",
"                                                      * L h r *                                                                 ",
"                                                      * ` I 4 4                                                                 ",
"                                                      * %.K u *                                                                 ",
"                                                      * x e t *                                                                 ",
"                                                      7 f ( q *                                                                 ",
"                                                      * f / y *                                                                 ",
"                                                    * 7.6.<.S N *                                                               ",
"                                                    * A 1.:.=.n *                                                               ",
"                                                    * 9 l l i * *                                                               ",
"                                                      * * l * *                                                                 ",
"                                                        9 * *                                                                   ",
"                                                                                                                                ",
"                                                                                                                                ",
"                                                                                                                                ",
"                                                                                                                                ",
"                                                                                                                                ",
"                                                                                                                                ",
"                                                                                                                                ",
"                                                                                                                                ",
"                                                                                                                                "
};
