/* XPM */
static char *e94ae8744dd1468abf6fa43da619068d8u106O0o8BY3eOOK[] = {
/* columns rows colors chars-per-pixel */
"64 64 127 2 ",
"   c black",
".  c #010000",
"X  c #000100",
"o  c #010100",
"O  c #010101",
"+  c #000201",
"@  c #000002",
"#  c #010002",
"$  c #010103",
"%  c #020202",
"&  c #100213",
"*  c #120114",
"=  c #110215",
"-  c #130214",
";  c #130215",
":  c #120016",
">  c #130117",
",  c #110217",
"<  c #120316",
"1  c #140115",
"2  c #160015",
"3  c #140117",
"4  c #170417",
"5  c #1D0417",
"6  c #130119",
"7  c #120318",
"8  c #140019",
"9  c #140218",
"0  c #3B061A",
"q  c #3F081F",
"w  c #3F0C1F",
"e  c #340A22",
"r  c #5A162B",
"t  c #53192F",
"y  c #5E1B2D",
"u  c #4F1931",
"i  c #5A1A32",
"p  c #5B1A32",
"a  c #611D2A",
"s  c #641C2A",
"d  c #671430",
"f  c #621C34",
"g  c #601F35",
"h  c #631F34",
"j  c #641F34",
"k  c #5F2035",
"l  c #692532",
"z  c #692534",
"x  c #6B2638",
"c  c #7C2C37",
"v  c #433951",
"b  c #4C4151",
"n  c #4C4358",
"m  c #4C475B",
"M  c #5B4F5B",
"N  c #554B63",
"B  c #574E61",
"V  c #545061",
"C  c #595563",
"Z  c #555168",
"A  c #892F31",
"S  c #CB342D",
"D  c #CA352E",
"F  c #CD342C",
"G  c #CD342E",
"H  c #CC352E",
"J  c #CC342F",
"K  c #CD362F",
"L  c #B34F2D",
"P  c #B1542B",
"I  c #B6552B",
"U  c #B9532B",
"Y  c #B85633",
"T  c #B95835",
"R  c #B95837",
"E  c #EB4B0F",
"W  c #EC4C0E",
"Q  c #EE4B10",
"!  c #EC4C10",
"~  c #ED4D11",
"^  c #EC4C12",
"/  c #FF7F00",
"(  c #CC5825",
")  c #CC5827",
"_  c #C15C2E",
"`  c #C15539",
"'  c #C25439",
"]  c #D17623",
"[  c #FF8001",
"{  c #FE8101",
"}  c #FD8701",
"|  c #FF8601",
" . c #FF8603",
".. c #E09834",
"X. c #F9A93A",
"o. c #FAB830",
"O. c #FFCE37",
"+. c #FFCD39",
"@. c #FFCF38",
"#. c #FFCE39",
"$. c #FFCE3B",
"%. c #F7B449",
"&. c #F1B85E",
"*. c #D19E6F",
"=. c #C89374",
"-. c #C1987A",
";. c #CB9D79",
":. c #D39D77",
">. c #EED195",
",. c #EFD49D",
"<. c #EDE4AD",
"1. c #F5E3A1",
"2. c #F5E3A3",
"3. c #F6F9DA",
"4. c #F9F8DA",
"5. c #F8F9DA",
"6. c #F9FADB",
"7. c #FBFADC",
"8. c #E5EBE9",
"9. c #FCF9EA",
"0. c #FDFAEB",
"q. c #FDF9ED",
"w. c #FFF9ED",
"e. c #FCFAED",
"r. c #FDF9EE",
"t. c #FEFAEE",
"y. c #FFFAEE",
/* pixels */
"                                                                                                                                ",
"                                                                                                                                ",
"                                                                                                                                ",
"                                                                                                                                ",
"                                                                                                                                ",
"                                                                                                                                ",
"                                                                                                                                ",
"                                                                                                                                ",
"                                                                                                                                ",
"                                                                                                                                ",
"                                                                                                                                ",
"                                                                                                                                ",
"                                                      ~       Q                                                                 ",
"                                                            ;                                                                   ",
"                                                          ; ;                                                                   ",
"                                                ~ [       ; H ; ;                                                               ",
"                                                ; ;     ; H H W ;                                                               ",
"                                                      1 ; H ~ | H ; ;                                                           ",
"                                                    ; H E ~ | | | | H ;   /                                                     ",
"                                                    ; H ~ | | | #.| H ;   ;                                                     ",
"                                              ; /   & ~ #.| #.#.q.| D ;       [                                                 ",
"                                              /   ; H ~ q.#.#.q.9.| ~ H ;   ; ~                                                 ",
"                                                  ; H ~ #.q.q.q.q.| | H ;     /                                                 ",
"                                                  ; ~ #.O.q.q.q.q.#.| | D ;                                                     ",
"                                                ; H ~ #.q.q.q.q.q.#.| ~ H ;                                                     ",
"                                                ; H | #.#.q.q.q.9.q.#.H ; ; ;                                                   ",
"                                                ; ~ | q.q.q.q.q.q.#.| H ; ;                                                     ",
"                                              9 H W | q.#.q.q.q.| ~ | H ;                                                       ",
"                                                ; H ~ | #.#.q.| ~ H H ;                                                         ",
"                                                  ; H ~ ~ W E H H ; ;                                                           ",
"                                                  ; ; ; ; ; ; ; ; ;                                                             ",
"                                              6 -.2.3.4.4.4.4.2.2.-.;                                                           ",
"                                              ; n n -.2.4.-.-.2.n n ;                                                           ",
"                                                6 ; ; ; ; ; ; ; ; ; ;                                                           ",
"                                                ; i 5 ' l z ' d 5 i ;                                                           ",
"                                                ; c ( X.5 Y 5 X.c i 9                                                           ",
"                                                ; 1 ; T X.5 T ( ; ; ;                                                           ",
"                                                  6 i 4 i &...4 i ;                                                             ",
"                                                    ; ; ; ; ; ; ;                                                               ",
"                                                    ; <.*.M *.N ;                                                               ",
"                                                    ; V *.:.B v 9                                                               ",
"                                                      ; 9 ; ; ;                                                                 ",
"                                                      1 j g q ;                                                                 ",
"                                                      ; o.I A ;                                                                 ",
"                                                      ; P g w ;                                                                 ",
"                                                      ; ] U 1 ;                                                                 ",
"                                                      ; %.L y ;                                                                 ",
"                                                      ; x e r ;                                                                 ",
"                                                      ; a _ 0 ;                                                                 ",
"                                                      ; s _ t ;                                                                 ",
"                                                    ; 8.7.>.Z m ;                                                               ",
"                                                    ; C ,.;.=.b ;                                                               ",
"                                                    ; 9 g k u ; 1                                                               ",
"                                                      ; ; k ; 6                                                                 ",
"                                                        9 ; ;                                                                   ",
"                                                                                                                                ",
"                                                                                                                                ",
"                                                                                                                                ",
"                                                                                                                                ",
"                                                                                                                                ",
"                                                                                                                                ",
"                                                                                                                                ",
"                                                                                                                                ",
"                                                                                                                                "
};
