/* XPM */
static char *ea543f3143bf4f68aad044fe7daee19aZYJSYlKZVnXOX8AP[] = {
/* columns rows colors chars-per-pixel */
"64 64 123 2 ",
"   c black",
".  c #010000",
"X  c #000100",
"o  c #010101",
"O  c #020001",
"+  c #000201",
"@  c #000002",
"#  c #010103",
"$  c #110215",
"%  c #130214",
"&  c #130215",
"*  c #120016",
"=  c #130117",
"-  c #110217",
";  c #140115",
":  c #140315",
">  c #140117",
",  c #140316",
"<  c #170417",
"1  c #1C0316",
"2  c #1D0417",
"3  c #1F0417",
"4  c #130119",
"5  c #110219",
"6  c #120318",
"7  c #140218",
"8  c #3A071A",
"9  c #3E081F",
"0  c #340A22",
"q  c #3F0B21",
"w  c #5A162B",
"e  c #53192F",
"r  c #5F1A2D",
"t  c #4F1931",
"y  c #5B1A30",
"u  c #5B1A32",
"i  c #5D1932",
"p  c #631C2A",
"a  c #641C2A",
"s  c #671432",
"d  c #621D32",
"f  c #631F34",
"g  c #631F36",
"h  c #5F2035",
"j  c #672531",
"k  c #692532",
"l  c #6D2638",
"z  c #7C2C37",
"x  c #433951",
"c  c #4D4253",
"v  c #4C4358",
"b  c #4E4258",
"n  c #4C425A",
"m  c #4C475B",
"M  c #5B4F5D",
"N  c #574B63",
"B  c #584F62",
"V  c #545061",
"C  c #595764",
"Z  c #56526B",
"A  c #892F2F",
"S  c #CB342D",
"D  c #CA352E",
"F  c #CD342E",
"G  c #CC352E",
"H  c #CC342F",
"J  c #B34F2D",
"K  c #B15429",
"L  c #B7542B",
"P  c #B6552B",
"I  c #BF5D2C",
"U  c #B85734",
"Y  c #B85736",
"T  c #EC4C0E",
"R  c #EE4B10",
"E  c #EC4C10",
"W  c #ED4D11",
"Q  c #EE4E10",
"!  c #EC4C12",
"~  c #CC5827",
"^  c #C15C2E",
"/  c #C15538",
"(  c #C15539",
")  c #D17623",
"_  c #FF8600",
"`  c #FF8700",
"'  c #FF8601",
"]  c #FD8703",
"[  c #FF8702",
"{  c #FF8800",
"}  c #DE9934",
"|  c #F9A93A",
" . c #FAB830",
".. c #FFCD38",
"X. c #FFCD39",
"o. c #FDCE38",
"O. c #FFCE39",
"+. c #FECF39",
"@. c #FFCD3B",
"#. c #FFCE3B",
"$. c #F4B448",
"%. c #F1B85E",
"&. c #D19E6F",
"*. c #D29E6F",
"=. c #C69374",
"-. c #C1987A",
";. c #CB9D79",
":. c #D39E76",
">. c #EFD193",
",. c #F0D59E",
"<. c #EDE4AD",
"1. c #F5E3A1",
"2. c #F5E3A3",
"3. c #F7F8D9",
"4. c #F9F8DA",
"5. c #F8F9DA",
"6. c #FBFADC",
"7. c #E5EBE9",
"8. c #FCF8EC",
"9. c #FDF9ED",
"0. c #FFF9ED",
"q. c #FCFAED",
"w. c #FDF9EE",
/* pixels */
"o o o o o o o o o o o o o o o o o o o o o o o o o o o o o o o o o o o o o o o o o o o o o o o o o o o o o o o o o o o o o o o o ",
"o o o o o o o o o o o o o o o o o o o o o o o o o o o o o o o o o o o o o o o o o o o o o o o o o o o o o o o o o o o o o o o o ",
"o o o o o o o o o o o o o o o o o o o o o o o o o o o o o o o o o o o o o o o o o o o o o o o o o o o o o o o o o o o o o o o o ",
"o o o o o o o o o o o o o o o o o o o o o o o o o o o o o o o o o o o o o o o o o o o o o o o o o o o o o o o o o o o o o o o o ",
"o o o o o o o o o o o o o o o o o o o o o o o o o o o o o o o o o o o o o o o o o o o o o o o o o o o o o o o o o o o o o o o o ",
"o o o o o o o o o o o o o o o o o o o o o o o o o o o o o o o o o o o o o o o o o o o o o o o o o o o o o o o o o o o o o o o o ",
"o o o o o o o o o o o o o o o o o o o o o o o o o o o o o o o o o o o o o o o o o o o o o o o o o o o o o o o o o o o o o o o o ",
"o o o o o o o o o o o o o o o o o o o o o o o o o o o o o o o o o o o o o o o o o o o o o o o o o o o o o o o o o o o o o o o o ",
"o o o o o o o o o o o o o o o o o o o o o o o o o o o o o o o o o o o o o o o o o o o o o o o o o o o o o o o o o o o o o o o o ",
"o o o o o o o o o o o o o o o o o o o o o o o o o o o o o o o o R o o o o o o o o o o o o o o o o o o o o o o o o o o o o o o o ",
"o o o o o o o o o o o o o o o o o o o o o o o o o E o o E o o o o o o o o o o o o o o o o o o o o o o o o o o o o o o o o o o o ",
"o o o o o o o o o o o o o o o o o o o o o o o o o & o o o & o o o o o o o o o o o o o o o o o o o o o o o o o o o o o o o o o o ",
"o o o o o o o o o o o o o o o o o o o o o o o o o o o o & F o o o o o o o o o o o o o o o o o o o o o o o o o o o o o o o o o o ",
"o o o o o o o o o o o o o o o o o o o o o o o o o o o o & F F & o o o o o o o o o o o o o o o o o o o o o o o o o o o o o o o o ",
"o o o o o o o o o o o o o o o o o o o o o o o o o o o & F E F & o o o o o o o o o o o o o o o o o o o o o o o o o o o o o o o o ",
"o o o o o o o o o o o o o o o o o o o o o o o o o o o & F E ' & o o o o { o o o o o o o o o o o o o o o o o o o o o o o o o o o ",
"o o o o o o o o o o o o o o o o o o o o o o o T ' o o & S ' ' F & o o o o & o o o o o o o o o o o o o o o o o o o o o o o o o o ",
"o o o o o o o o o o o o o o o o o o o o o o o & & o & F E ' ' F & ; o o o o ' ' o o o o o o o o o o o o o o o o o o o o o o o o ",
"o o o o o o o o o o o o o o o o o o o o o o ' o o o & F E ' O.E F F & ; o E & ' o o o o o o o o o o o o o o o o o o o o o o o o ",
"o o o o o o o o o o o o o o o o o o o o o o & o o & F E ' 9.O.' ' E F & o & o o o o o o o o o o o o o o o o o o o o o o o o o o ",
"o o o o o o o o o o o o o o o o o o o o o o o o o & F E 9.O.9.O.' ' E F & o o o o o o o o o o o o o o o o o o o o o o o o o o o ",
"o o o o o o o o o o o o o o o o o o o o o o o o o & F ' O.9.9.O.O.' E F & o o o o o o o o o o o o o o o o o o o o o o o o o o o ",
"o o o o o o o o o o o o o o o o o o o o o o o o o & F ' O.9.9.9.O.' R F & o o o o o o o o o o o o o o o o o o o o o o o o o o o ",
"o o o o o o o o o o o o o o o o o o o o o o o o & F E ' 9.9.9.9.O.O.' F & o o o o o o o o o o o o o o o o o o o o o o o o o o o ",
"o o o o o o o o o o o o o o o o o o o o o o o o & F E ' O.9.9.9.9.O.' E F & o o o o o o o o o o o o o o o o o o o o o o o o o o ",
"o o o o o o o o o o o o o o o o o o o o o o o o o & S E O.9.9.9.9.9.' E F & & o o o o o o o o o o o o o o o o o o o o o o o o o ",
"o o o o o o o o o o o o o o o o o o o o o o o o & S F E ' O.9.9.9.O.' ' F & o o o o o o o o o o o o o o o o o o o o o o o o o o ",
"o o o o o o o o o o o o o o o o o o o o o o o o & F E ' ' O.9.O.9.' E F & & o o o o o o o o o o o o o o o o o o o o o o o o o o ",
"o o o o o o o o o o o o o o o o o o o o o o o o o & F E ' O.O.O.' ' E F ; o o o o o o o o o o o o o o o o o o o o o o o o o o o ",
"o o o o o o o o o o o o o o o o o o o o o o o o o o & F E ' O.' E F & ; o o o o o o o o o o o o o o o o o o o o o o o o o o o o ",
"o o o o o o o o o o o o o o o o o o o o o o o o o o & & & & & & & & & o o o o o o o o o o o o o o o o o o o o o o o o o o o o o ",
"o o o o o o o o o o o o o o o o o o o o o o o o & -.2.5.5.3.5.5.2.2.-.& o o o o o o o o o o o o o o o o o o o o o o o o o o o o ",
"o o o o o o o o o o o o o o o o o o o o o o o o & v v -.2.3.-.-.2.v v & o o o o o o o o o o o o o o o o o o o o o o o o o o o o ",
"o o o o o o o o o o o o o o o o o o o o o o o o o & & & & & & & & & & & o o o o o o o o o o o o o o o o o o o o o o o o o o o o ",
"o o o o o o o o o o o o o o o o o o o o o o o o o & u 3 ( k j ( s 1 u & o o o o o o o o o o o o o o o o o o o o o o o o o o o o ",
"o o o o o o o o o o o o o o o o o o o o o o o o o & z ~ | 3 U 3 | z i & o o o o o o o o o o o o o o o o o o o o o o o o o o o o ",
"o o o o o o o o o o o o o o o o o o o o o o o o o & & & U | 3 U ~ 4 & & o o o o o o o o o o o o o o o o o o o o o o o o o o o o ",
"o o o o o o o o o o o o o o o o o o o o o o o o o o & u < u %.} < u & o o o o o o o o o o o o o o o o o o o o o o o o o o o o o ",
"o o o o o o o o o o o o o o o o o o o o o o o o o o o & & 4 & & & & o o o o o o o o o o o o o o o o o o o o o o o o o o o o o o ",
"o o o o o o o o o o o o o o o o o o o o o o o o o o o 4 <.&.M &.N & o o o o o o o o o o o o o o o o o o o o o o o o o o o o o o ",
"o o o o o o o o o o o o o o o o o o o o o o o o o o o & V &.:.B x 4 o o o o o o o o o o o o o o o o o o o o o o o o o o o o o o ",
"o o o o o o o o o o o o o o o o o o o o o o o o o o o o & & & & ; o o o o o o o o o o o o o o o o o o o o o o o o o o o o o o o ",
"o o o o o o o o o o o o o o o o o o o o o o o o o o o o & f f 9 & o o o o o o o o o o o o o o o o o o o o o o o o o o o o o o o ",
"o o o o o o o o o o o o o o o o o o o o o o o o o o o o &  .L A & o o o o o o o o o o o o o o o o o o o o o o o o o o o o o o o ",
"o o o o o o o o o o o o o o o o o o o o o o o o o o o o & K d q 7 o o o o o o o o o o o o o o o o o o o o o o o o o o o o o o o ",
"o o o o o o o o o o o o o o o o o o o o o o o o o o o o & ) L ; 4 o o o o o o o o o o o o o o o o o o o o o o o o o o o o o o o ",
"o o o o o o o o o o o o o o o o o o o o o o o o o o o o & $.J r & o o o o o o o o o o o o o o o o o o o o o o o o o o o o o o o ",
"o o o o o o o o o o o o o o o o o o o o o o o o o o o o & l 0 w & o o o o o o o o o o o o o o o o o o o o o o o o o o o o o o o ",
"o o o o o o o o o o o o o o o o o o o o o o o o o o o o & a ^ 8 & o o o o o o o o o o o o o o o o o o o o o o o o o o o o o o o ",
"o o o o o o o o o o o o o o o o o o o o o o o o o o o o & p I e 4 o o o o o o o o o o o o o o o o o o o o o o o o o o o o o o o ",
"o o o o o o o o o o o o o o o o o o o o o o o o o o o & 7.6.>.Z m & o o o o o o o o o o o o o o o o o o o o o o o o o o o o o o ",
"o o o o o o o o o o o o o o o o o o o o o o o o o o o & C ,.;.=.c & o o o o o o o o o o o o o o o o o o o o o o o o o o o o o o ",
"o o o o o o o o o o o o o o o o o o o o o o o o o o o & & h h t & & o o o o o o o o o o o o o o o o o o o o o o o o o o o o o o ",
"o o o o o o o o o o o o o o o o o o o o o o o o o o o o & & h 4 ; o o o o o o o o o o o o o o o o o o o o o o o o o o o o o o o ",
"o o o o o o o o o o o o o o o o o o o o o o o o o o o o o & & & o o o o o o o o o o o o o o o o o o o o o o o o o o o o o o o o ",
"o o o o o o o o o o o o o o o o o o o o o o o o o o o o o o o o o o o o o o o o o o o o o o o o o o o o o o o o o o o o o o o o ",
"o o o o o o o o o o o o o o o o o o o o o o o o o o o o o o o o o o o o o o o o o o o o o o o o o o o o o o o o o o o o o o o o ",
"o o o o o o o o o o o o o o o o o o o o o o o o o o o o o o o o o o o o o o o o o o o o o o o o o o o o o o o o o o o o o o o o ",
"o o o o o o o o o o o o o o o o o o o o o o o o o o o o o o o o o o o o o o o o o o o o o o o o o o o o o o o o o o o o o o o o ",
"o o o o o o o o o o o o o o o o o o o o o o o o o o o o o o o o o o o o o o o o o o o o o o o o o o o o o o o o o o o o o o o o ",
"o o o o o o o o o o o o o o o o o o o o o o o o o o o o o o o o o o o o o o o o o o o o o o o o o o o o o o o o o o o o o o o o ",
"o o o o o o o o o o o o o o o o o o o o o o o o o o o o o o o o o o o o o o o o o o o o o o o o o o o o o o o o o o o o o o o o ",
"o o o o o o o o o o o o o o o o o o o o o o o o o o o o o o o o o o o o o o o o o o o o o o o o o o o o o o o o o o o o o o o o ",
"o o o o o o o o o o o o o o o o o o o o o o o o o o o o o o o o o o o o o o o o o o o o o o o o o o o o o o o o o o o o o o o o "
};
