/* XPM */
static char *player_pos_001[] = {
/* columns rows colors chars-per-pixel */
"40 40 141 2 ",
"   c None",
".  c #030703",
"X  c #040A05",
"o  c #091508",
"O  c #0B180C",
"+  c #0D1D0D",
"@  c #0F1F0E",
"#  c #0C200D",
"$  c #0E230F",
"%  c #0F260F",
"&  c #102610",
"*  c #102710",
"=  c #102911",
"-  c #112812",
";  c #102A12",
":  c #122E14",
">  c #163317",
",  c #153417",
"<  c #163817",
"1  c #163418",
"2  c #173818",
"3  c #163A19",
"4  c #173B19",
"5  c #193B1A",
"6  c #1A3D1B",
"7  c #183E1B",
"8  c #193F1B",
"9  c #18391C",
"0  c #1B3E1D",
"q  c #1B401D",
"w  c #1A421C",
"e  c #1B421D",
"r  c #1D411D",
"t  c #1C411E",
"y  c #1D431E",
"u  c #1C441D",
"i  c #1C441E",
"p  c #1E441F",
"a  c #1D471F",
"s  c #1E471F",
"d  c #1C481F",
"f  c #1D481F",
"g  c #1E4B1F",
"h  c #1E4420",
"j  c #1F4921",
"k  c #1D4B20",
"l  c #214F25",
"z  c #224E24",
"x  c #224F24",
"c  c #205022",
"v  c #215324",
"b  c #255627",
"n  c #245727",
"m  c #245927",
"M  c #255B27",
"N  c #255628",
"B  c #265728",
"V  c #275929",
"C  c #285C2A",
"Z  c #295E2A",
"A  c #2A5E2B",
"S  c #2A612D",
"D  c #2B622D",
"F  c #2B642D",
"G  c #2D672F",
"H  c #2A692D",
"J  c #2C682F",
"K  c #2D6A30",
"L  c #2F6C31",
"P  c #2E6D31",
"I  c #306D32",
"U  c #307033",
"Y  c #307134",
"T  c #317134",
"R  c #317135",
"E  c #327235",
"W  c #317634",
"Q  c #327735",
"!  c #337636",
"~  c #347837",
"^  c #357A37",
"/  c #357938",
"(  c #377D38",
")  c #367D39",
"_  c #377E3A",
"`  c #368139",
"'  c #37803A",
"]  c #38813A",
"[  c #38833B",
"{  c #39843C",
"}  c #3B873D",
"|  c #3A873E",
" . c #3B873E",
".. c #3C8A40",
"X. c #3D8C40",
"o. c #3E8E41",
"O. c #3F9242",
"+. c #409343",
"@. c #409443",
"#. c #419545",
"$. c #419746",
"%. c #419946",
"&. c #439A46",
"*. c #439A47",
"=. c #449B47",
"-. c #459F49",
";. c #469E49",
":. c #46A049",
">. c #46A149",
",. c #46A14A",
"<. c #47A34A",
"1. c #47A34B",
"2. c #47A44B",
"3. c #47A54B",
"4. c #48A64C",
"5. c #48A74D",
"6. c #49A84D",
"7. c #49A94E",
"8. c #4AA94E",
"9. c #49AA4E",
"0. c #4AAB4E",
"q. c #4BAB4E",
"w. c #4BAA4F",
"e. c #4AAB4F",
"r. c #4BAB4F",
"t. c #4BAC4F",
"y. c #4BAD4F",
"u. c #4CAE4F",
"i. c #4BAE50",
"p. c #4CAD50",
"a. c #4CAE50",
"s. c #4DAE50",
"d. c #4CAF50",
"f. c #4DAF50",
"g. c #4CAF51",
"h. c #4DAF51",
"j. c #4CB050",
"k. c #4DB050",
"l. c #4CB051",
"z. c #4DB051",
"x. c #4DB151",
/* pixels */
"                                                                                ",
"                                                                                ",
"                                                                                ",
"                                                                                ",
"                                                                                ",
"                                                                                ",
"                                                                                ",
"                                                                                ",
"                                                                                ",
"                                                                                ",
"                                    $ e K t                                     ",
"                                  3 8 E 1.X.F 5                                 ",
"                                  e m E w.g.1.| A 9                             ",
"                                  = m S w.g.g.t.1.| B                           ",
"                                  & s U w.g.g.g.g.u.2.E t                       ",
"                          z b J ^ | &.t.g.g.g.g.g.g.g.t.+.G                     ",
"                  o 8 ) @.-.w.i.g.k.k.g.g.g.g.g.g.g.g.g.k.1.!                   ",
"                : 3 ^ 4.t.g.g.g.g.g.g.g.g.g.g.g.g.g.g.g.g.k.$.1                 ",
"                f L -.k.g.g.g.g.g.g.g.g.g.g.g.g.g.g.g.g.g.k.4.0                 ",
"                s | 1.k.g.g.g.g.g.g.g.g.g.g.g.g.g.g.g.g.g.k.&.z                 ",
"                , ' -.k.g.g.g.g.g.g.g.g.g.g.g.u.g.g.g.g.g.w.L                   ",
"                = ! $.g.g.g.g.g.g.g.g.g.g.g.g.g.g.g.g.g.t.) >                   ",
"                % H X.w.g.g.g.g.g.g.g.g.g.g.g.g.g.g.g.g.X.s                     ",
"                $ m ] 2.g.g.g.g.g.g.g.g.g.g.g.g.g.g.g.&.A                       ",
"                  c ! =.k.g.g.g.g.g.g.g.t.1.g.g.g.g.1.E                         ",
"                  j v ^ w.t.w.2.O./ S j 1 z 2.k.g.w.)                           ",
"                    < s A V e = @ O     8 s +.k.t.] t                           ",
"                      . X               f f ' w...h                             ",
"                                          3 b I B                               ",
"                                            & @                                 ",
"                                                                                ",
"                                                                                ",
"                                                                                ",
"                                                                                ",
"                                                                                ",
"                                                                                ",
"                                                                                ",
"                                                                                ",
"                                                                                ",
"                                                                                "
};
