/* XPM */
static char *player_pos_003[] = {
/* columns rows colors chars-per-pixel */
"40 40 236 2 ",
"   c black",
".  c #000B00",
"X  c #000300",
"o  c #215327",
"O  c #56C45A",
"+  c #1D3F1E",
"@  c #142E15",
"#  c #0C1B0D",
"$  c #060F07",
"%  c #010401",
"&  c #000800",
"*  c #1B341D",
"=  c #1A3F1B",
"-  c #0D220F",
";  c #000200",
":  c #001300",
">  c #0B1A0B",
",  c #051105",
"<  c #000100",
"1  c #060C06",
"2  c #B2FFB0",
"3  c #020100",
"4  c #010101",
"5  c #010100",
"6  c #000001",
"7  c #060904",
"8  c #010201",
"9  c #285324",
"0  c #0C1D0E",
"q  c #0B130B",
"w  c #0C1E0C",
"e  c #0B1C0B",
"r  c #388733",
"t  c #050A05",
"y  c #010000",
"u  c #050F05",
"i  c #0A170B",
"p  c #DDFFED",
"a  c #020402",
"s  c white",
"d  c #0D1F10",
"f  c #7BFF88",
"g  c #081009",
"h  c #040904",
"j  c #010301",
"k  c #001100",
"l  c #19001E",
"z  c #050C09",
"x  c #010A01",
"c  c #030A06",
"v  c #030803",
"b  c #153218",
"n  c #92FF8F",
"m  c #000400",
"M  c #000101",
"N  c #090D06",
"B  c #010402",
"V  c #070803",
"C  c #121609",
"Z  c #091B0A",
"A  c #112C12",
"S  c #09130A",
"D  c #040704",
"F  c #040804",
"G  c black",
"H  c #030704",
"J  c #112611",
"K  c #122913",
"L  c #081508",
"P  c #020602",
"I  c black",
"U  c black",
"Y  c black",
"T  c #060E06",
"R  c #132F15",
"E  c #317134",
"W  c #367A38",
"Q  c #2F6C31",
"!  c #275C2A",
"~  c #255527",
"^  c #224F24",
"/  c #143116",
"(  c #09160A",
")  c #0B1B0C",
"_  c #0A1A0C",
"`  c black",
"'  c #143215",
"]  c #1A3F1B",
"[  c None",
"{  c #419745",
"}  c #3A873E",
"|  c #337535",
" . c #337736",
".. c #275A29",
"X. c #173618",
"o. c #050C05",
"O. c #133114",
"+. c #245926",
"@. c #3B893F",
"#. c #132D14",
"$. c black",
"%. c black",
"&. c #1A401B",
"*. c #2D682F",
"=. c #040803",
"-. c #040904",
";. c #19391A",
":. c #367D38",
">. c #39833C",
",. c #0E200F",
"<. c black",
"1. c black",
"2. c #193B1C",
"3. c #327335",
"4. c #459E48",
"5. c #337234",
"6. c #0C180D",
"7. c #142F16",
"8. c #2E6930",
"9. c #419645",
"0. c #1D431E",
"q. c #010200",
"w. c #123912",
"e. c #040904",
"r. c #1D431E",
"t. c #3A853D",
"y. c #48A54C",
"u. c #409344",
"i. c #173818",
"p. c #050B05",
"a. c #0B1A0A",
"s. c #295E2B",
"d. c #337636",
"f. c #102511",
"g. c #0F2510",
"h. c #173A19",
"j. c #47A44B",
"k. c #245428",
"l. c black",
"z. c #081509",
"x. c #205022",
"c. c #3F9242",
"v. c #1F4922",
"b. c #010401",
"n. c #112A12",
"m. c #317134",
"M. c #0F2411",
"N. c black",
"B. c #040B05",
"V. c #1C471E",
"C. c #3A833C",
"Z. c #214D23",
"A. c #143316",
"S. c #275A29",
"D. c #000001",
"F. c black",
"G. c #0C200C",
"H. c #275829",
"J. c #0E210F",
"K. c #020702",
"L. c #1B461E",
"P. c #38803A",
"I. c #163116",
"U. c #000001",
"Y. c #000301",
"T. c #19401B",
"R. c #2D6830",
"E. c #162F16",
"W. c #040604",
"Q. c black",
"!. c #143216",
"~. c #163917",
"^. c #143316",
"/. c #122912",
"(. c #090F07",
"). c black",
"_. c #09190B",
"`. c #1E4D21",
"'. c #1E4A21",
"]. c #265828",
"[. c #1C3F1D",
"{. c #081207",
"}. c #050401",
"|. c #061207",
" X c #081609",
".X c black",
"XX c black",
"oX c #0E230F",
"OX c #0D220F",
"+X c #040A04",
"@X c black",
"#X c black",
"$X c #3C8A3F",
"%X c #4DB051",
"&X c #4DAF50",
"*X c #46A24A",
"=X c #2E6B31",
"-X c #4AA94E",
";X c #4DAF51",
":X c #4CAE50",
">X c #4BAB4F",
",X c #46A14A",
"<X c #225124",
"1X c #429846",
"2X c #4CAF50",
"3X c #4CAF51",
"4X c #4BAD4F",
"5X c #49A84D",
"6X c #4CB050",
"7X c #4CAD4F",
"8X c #4BAC4F",
"9X c #47A34B",
"0X c #48A74C",
"qX c #377F3A",
"wX c #4DB050",
"eX c #38833B",
"rX c #4DB151",
"tX c #2D6E30",
"yX c #419645",
"uX c #4BAD50",
"iX c #377F3B",
"pX c #4CB051",
"aX c #4AAA4E",
"sX c #357F39",
"dX c #449D49",
"fX c #2F6E32",
"gX c #48A54B",
"hX c #28652B",
"jX c #39863D",
"kX c #4BAE50",
"lX c #3F9143",
"zX c #204E22",
"xX c #38823B",
"cX c #2C6D30",
"vX c #449C48",
"bX c white",
/* pixels */
"                                                                                ",
"                                                                                ",
"                                                                                ",
"                                                                                ",
"                                                                                ",
"                                                                                ",
"                                                                                ",
"                                                                                ",
"                                                                                ",
"                                      . X                                       ",
"                                o   O + @ # $ % &                               ",
"                              G H J K L P I U Y * = - ; :                       ",
"                            > T R E W Q ! ~ ^ / ( ) _ ` ,   <                   ",
"                          1   ' ] $X%X&X*X[ { } |  ...X.o.2 3                   ",
"                          4 G O.+.=X-X;X%X%X%X%X:X>X,X@.#.$.5                   ",
"                        6   7 %.&.<X1X%X2X2X2X:X2X&X3X4X*.=.8                   ",
"                          9 ` -.;.:.5X;X2X2X2X:X2X&X&X:X>.,.0                   ",
"                        <.1.2.3.4.:X6X2X2X2X2X:X2X2X&X7X5.6.q                   ",
"                w e r I 7.8.9.8X2X2X2X2X2X2X2X2X&X2X2X9X0.q.t                   ",
"              y u w.e.r.t.y.:X2X2X2X2X2X3X2X2X2X&X2X%Xu.i.Y                     ",
"              y i p.a.s.0X2X2X2X2X2X:X2X&X:X2X2X&X2X4Xd.f.p a                   ",
"                s g.h.qX2X2X2X2X3X2X2X2X2X2X2X2X2XwXj.k.l.d                     ",
"                f z.x.eX5X2X:X3X2X2X2X2X:X%XrX6X2X2Xc.v.G g                     ",
"                h b.n.tXyXuX2X2X2X2X2X2XrX9XiX,XpXaXm.M.N.j                     ",
"                k l B.V.sXdX2X&X&X2X2X>XC.Z.A.fX%XgXS.D.z                       ",
"                k x F.G.hXjXaXwX%XkXlXH.J.K.L.zXxXP.I.U.c                       ",
"                  v b Y.T.cXiXaXvXR.E.W.U Q.!.~.^./.(.n                         ",
"                  m M )._.`.'.].[.{.}.N B < <.|. X.XQ.                          ",
"                        XXoXOX+X@XQ.V C   X   Z A                               ",
"                        ;   #XY S D                                             ",
"                          F j                                                   ",
"                                                                                ",
"                                                                                ",
"                                                                                ",
"                                                                                ",
"                                                                                ",
"                                                                                ",
"                                                                                ",
"                                                                                ",
"                                                                                "
};
