/* XPM */
static char *player_pos_016[] = {
/* columns rows colors chars-per-pixel */
"40 40 241 2 ",
"   c black",
".  c #163518",
"X  c #327135",
"o  c white",
"O  c #000001",
"+  c #010301",
"@  c #08140B",
"#  c #030703",
"$  c #0D190A",
"%  c #000C00",
"&  c #011101",
"*  c #070F07",
"=  c #051207",
"-  c #07160A",
";  c #000400",
":  c #030701",
">  c #050802",
",  c #000500",
"<  c #060E06",
"1  c #020803",
"2  c #000101",
"3  c #040D05",
"4  c #000F00",
"5  c #010101",
"6  c #020003",
"7  c #000A00",
"8  c #081308",
"9  c #001100",
"0  c #010201",
"q  c #000200",
"w  c #010100",
"e  c #326B2E",
"r  c #010300",
"t  c #030904",
"y  c #020402",
"u  c #010400",
"i  c #102515",
"p  c #040404",
"a  c #020906",
"s  c #08170D",
"d  c #256726",
"f  c #0A180B",
"g  c #0B0C08",
"h  c #82FF90",
"j  c #010000",
"k  c #76FF80",
"l  c #0D230E",
"z  c #0A1609",
"x  c #070E07",
"c  c #020502",
"v  c #0B1D0D",
"b  c #071308",
"n  c #010401",
"m  c #0B1F0B",
"M  c black",
"N  c black",
"B  c black",
"V  c black",
"C  c #0B190B",
"Z  c #132C14",
"A  c #163017",
"S  c #070F07",
"D  c #040A04",
"F  c black",
"G  c black",
"H  c #0E2110",
"J  c #1F4720",
"K  c #2A602C",
"L  c #367B38",
"P  c #38813B",
"I  c #1C421D",
"U  c #143216",
"Y  c black",
"T  c #040703",
"R  c #173719",
"E  c #235025",
"W  c #317034",
"Q  c #3D8D40",
"!  c #153617",
"~  c #051006",
"^  c #020D02",
"/  c #081208",
"(  c #132D14",
")  c #2D6730",
"_  c #3A863E",
"`  c #449C48",
"'  c #1C461D",
"]  c #0A1E0D",
"[  c black",
"{  c #1D411E",
"}  c #2C642D",
"|  c #3E8C40",
" . c #173718",
".. c #122E13",
"X. c black",
"o. c black",
"O. c #091309",
"+. c #377F3B",
"@. c None",
"#. c #214A22",
"$. c #142E15",
"%. c #060D06",
"&. c black",
"*. c black",
"=. c black",
"-. c #1B3E1C",
";. c #439B47",
":. c #3E8F42",
">. c #2E6A31",
",. c #214B21",
"<. c #112711",
"1. c #040B05",
"2. c #020702",
"3. c black",
"4. c #29602C",
"5. c #2C672F",
"6. c #142F15",
"7. c #040A04",
"8. c #010202",
"9. c black",
"0. c #1F4820",
"q. c #419645",
"w. c #183B1A",
"e. c #0D240F",
"r. c #152D14",
"t. c #2D662F",
"y. c #19411C",
"u. c black",
"i. c #163318",
"p. c #3A863D",
"a. c #143315",
"s. c black",
"d. c #0A1B0F",
"f. c #2A612E",
"g. c #48A54C",
"h. c #255E27",
"j. c #050B05",
"k. c black",
"l. c #132C15",
"z. c #357B39",
"x. c #19401A",
"c. c #020502",
"v. c #204922",
"b. c #409343",
"n. c #0D200D",
"m. c #030203",
"M. c #122C14",
"N. c #306F32",
"B. c #214D23",
"V. c #2E6A31",
"C. c #429846",
"Z. c #49A84D",
"A. c #225324",
"S. c #071208",
"D. c #000201",
"F. c #0F220F",
"G. c #3C8A3F",
"H. c #143015",
"J. c #070F07",
"K. c #112812",
"L. c #265929",
"P. c #3A863D",
"I. c #439B46",
"U. c #46A24A",
"Y. c #2A652C",
"T. c #153617",
"R. c #040904",
"E. c #030703",
"W. c #275929",
"Q. c #3A873E",
"!. c #245A26",
"~. c #0A190A",
"^. c black",
"/. c #010301",
"(. c #070F07",
"). c #1D411D",
"_. c #2C682F",
"`. c #204C22",
"'. c #153216",
"]. c #173A18",
"[. c #0F2510",
"{. c black",
"}. c #163619",
"|. c #142E15",
" X c #163317",
".X c #132F15",
"XX c #153416",
"oX c #071107",
"OX c black",
"+X c #030A03",
"@X c #09180A",
"#X c #071007",
"$X c #040804",
"%X c black",
"&X c #020402",
"*X c black",
"=X c #48A64C",
"-X c #4BAC4F",
";X c #4AAB4F",
":X c #275E2A",
">X c #4AAA4E",
",X c #4CAF50",
"<X c #4CB051",
"1X c #4DB051",
"2X c #429846",
"3X c #1D471F",
"4X c #49A74E",
"5X c #4CAE50",
"6X c #4DAF51",
"7X c #4DB151",
"8X c #357938",
"9X c #49A84D",
"0X c #4DAF50",
"qX c #46A14A",
"wX c #46A24A",
"eX c #4CB050",
"rX c #4CAF51",
"tX c #4DB251",
"yX c #3B893E",
"uX c #4BAC4E",
"iX c #357B38",
"pX c #409444",
"aX c #1E4B21",
"sX c #3B883E",
"dX c #2B692D",
"fX c #37813A",
"gX c #4DB050",
"hX c #449D48",
"jX c #347C37",
"kX c #4CAD50",
"lX c #459E48",
"zX c #48A54C",
"xX c #2D6F30",
"cX c #439A47",
"vX c #2B632D",
"bX c #49A64C",
"nX c #357A38",
"mX c #28602A",
"MX c #377F3A",
"NX c #255626",
"BX c white",
/* pixels */
"                                                                                ",
"                                                                                ",
"                                                                                ",
"                                                                                ",
"                                                                                ",
"                                                                                ",
"                                                                                ",
"                                                                                ",
"                                                                                ",
"                                  . X M N B o                                   ",
"                        O   + @ M V C Z A S D M                                 ",
"                        # $ F G H J K L P I U Y                                 ",
"                  % & * N T R E W Q =X-X;X:X! ~ =                               ",
"                    ^ / ( ) _ ` >X,X<X1X2X3X' ] -                               ",
"              ;   [ { } | 4X5X,X6X,X,X7X8X ...X.F : >                           ",
"              , o.O.+.9X0X6X,X,X,X,X,X0XqX@.#.$.%.&.*.< 1   ;                   ",
"              2 =.-.;.1X,X,X,X,X,X,X,X,X,X1X-X:.>.,.<.1.2.F 3   4               ",
"              5 3.4.wXeX,X,XrX5X,X5X5X,X5X5XrX7XtXwXyX5.6.7.8.6 7               ",
"              8 9.0.q.6X0X,X,X,X,X,X5X,X,X5XrX,X,X1X7XuXiXw.e.F 9               ",
"              0 o.r.t.=X0X,X,X,X,X,X,X,X,X,X,X,X,X,X0X,XpXaXy.u.q               ",
"                  V i.p.5X5X,X,X,X,XrX,X,X,X,X,X5X,X,X,XsXdXa.s.w               ",
"                  e d.f.g.,X0X,X,X,X0X0X,X,X,X,X,X,X,X9XfXh.j.F r               ",
"                  t k.l.z.>XgX,X,X1XeX,X,X0XrX,X,X,X1XhXjXx.c.y u               ",
"                    i =.v.b.,X6XkXlXzX,X,X,X,XrX,X,X5XpXxXn.m.p                 ",
"                    a M M.N.9X7XcXvXB.V.C.Z.-X,X,X1XbXsXA.S.  p                 ",
"                      s D.F.G.eXnXmXH.J.K.L.P.I.U.qXMXY.T.R.d                   ",
"                        f E.W.Q.NX!.~.^.o./.(.)._.`.'.].[.{.y                   ",
"                          }.|. X.XXXoX      g OXX.+X@X#X$X                      ",
"                          h OX%X&X*X          j   k l z x                       ",
"                              c v b n m                                         ",
"                                                                                ",
"                                                                                ",
"                                                                                ",
"                                                                                ",
"                                                                                ",
"                                                                                ",
"                                                                                ",
"                                                                                ",
"                                                                                ",
"                                                                                "
};
