/* XPM */
static char *player_pos_021[] = {
/* columns rows colors chars-per-pixel */
"40 40 234 2 ",
"   c black",
".  c #010301",
"X  c #040804",
"o  c #000300",
"O  c #09150A",
"+  c #000200",
"@  c #102C12",
"#  c #091B0A",
"$  c #0D1609",
"%  c #050803",
"&  c #000100",
"*  c #020402",
"=  c #080E06",
"-  c #000101",
";  c #000400",
":  c #91FF8F",
">  c #153218",
",  c #030803",
"<  c #030A06",
"1  c #010A01",
"2  c #001100",
"3  c #060C09",
"4  c #1E001E",
"5  c #040B04",
"6  c #081009",
"7  c #7BFF88",
"8  c #0D1F10",
"9  c white",
"0  c #DDFFED",
"q  c #0B160B",
"w  c #050F05",
"e  c #050A05",
"r  c #378734",
"t  c #0B1C0B",
"y  c #0C1E0C",
"u  c #0B130B",
"i  c #0C1D0E",
"p  c #245324",
"a  c #010201",
"s  c #040907",
"d  c #000001",
"f  c #010101",
"g  c #ADFFB0",
"h  c #060C06",
"j  c #051006",
"k  c #0B1A0B",
"l  c #001000",
"z  c #0D220F",
"x  c #1A3F1B",
"c  c #1B341D",
"v  c #000800",
"b  c #010401",
"n  c #060F07",
"m  c #0C1A0D",
"M  c #152E15",
"N  c #1E3F1E",
"B  c #54C458",
"V  c #215327",
"C  c #000B00",
"Z  c black",
"A  c black",
"S  c black",
"D  c black",
"F  c #040A04",
"G  c #0D220F",
"H  c #0E2310",
"J  c black",
"K  c black",
"L  c #081609",
"P  c #061207",
"I  c black",
"U  c #030401",
"Y  c #081208",
"T  c #1C401D",
"R  c #265828",
"E  c #1E4A21",
"W  c #1D4D21",
"Q  c #09190A",
"!  c black",
"~  c #090F07",
"^  c #122912",
"/  c #143316",
"(  c #163917",
")  c #143216",
"_  c black",
"`  c #040704",
"'  c #162F16",
"]  c #2D6830",
"[  c #18401B",
"{  c #000301",
"}  c #000001",
"|  c #163116",
" . c #38803A",
".. c #1B461E",
"X. c #020702",
"o. c #0E210F",
"O. c #275829",
"+. c #0B200C",
"@. c black",
"#. c #000001",
"$. c #275A29",
"%. c #143316",
"&. c #214D23",
"*. c #39833C",
"=. c #1C471E",
"-. c #050B05",
";. c black",
":. c #102411",
">. c #317234",
",. c #112A12",
"<. c #010601",
"1. c black",
"2. c #1F4922",
"3. c #3F9243",
"4. c #205022",
"5. c #081509",
"6. c black",
"7. c #245428",
"8. c #47A44B",
"9. c #173A19",
"0. c #0F2410",
"q. c #102511",
"w. c #337636",
"e. c #295E2B",
"r. c #0B1A0A",
"t. c #050B05",
"y. c #173818",
"u. c #409344",
"i. c #48A54B",
"p. c #3A853D",
"a. c #1D431E",
"s. c #040903",
"d. c #113B13",
"f. c #010201",
"g. c #1D431F",
"h. c #419645",
"j. c #2E6930",
"k. c #142F16",
"l. c black",
"z. c #0C180D",
"x. c #337235",
"c. c #459E48",
"v. c #327334",
"b. c #193B1C",
"n. c black",
"m. c #0E200F",
"M. c #39833C",
"N. c None",
"B. c #193A1A",
"V. c #040904",
"C. c black",
"Z. c #030803",
"A. c #2D682F",
"S. c #1A401B",
"D. c black",
"F. c black",
"G. c #132C14",
"H. c #3B883E",
"J. c #245926",
"K. c #133114",
"L. c #050B05",
"P. c #173617",
"I. c #275A28",
"U. c #337736",
"Y. c #337535",
"T. c #3A873E",
"R. c #419745",
"E. c #459E48",
"W. c #1A3F1B",
"Q. c #143215",
"!. c #0A1A0C",
"~. c #0B1B0C",
"^. c #09160A",
"/. c #143116",
"(. c #214F25",
"). c #255527",
"_. c #285C2A",
"`. c #306C31",
"'. c #357A38",
"]. c #317133",
"[. c #132F15",
"{. c #060E06",
"}. c #030602",
"|. c #081508",
" X c #112912",
".X c #112611",
"XX c #030704",
"oX c #449C47",
"OX c #4AAA4E",
"+X c #37803B",
"@X c #2C6D2F",
"#X c #38823B",
"$X c #204E22",
"%X c #3F9143",
"&X c #4BAE4F",
"*X c #4DB051",
"=X c #4DB050",
"-X c #39863C",
";X c #28652B",
":X c #48A54B",
">X c #2F6E32",
",X c #4BAB4F",
"<X c #4CAF50",
"1X c #4DAF50",
"2X c #459D49",
"3X c #357F38",
"4X c #4CB051",
"5X c #46A14A",
"6X c #377F3B",
"7X c #47A34A",
"8X c #4DB151",
"9X c #4CAD50",
"0X c #419645",
"qX c #2D6E30",
"wX c #4CB050",
"eX c #4CAE50",
"rX c #4CAF51",
"tX c #49A84D",
"yX c #38833B",
"uX c #377F3A",
"iX c #4BAD4F",
"pX c #48A74C",
"aX c #47A34B",
"sX c #4BAC4F",
"dX c #4CAD4F",
"fX c #4DAF51",
"gX c #49A84E",
"hX c #429846",
"jX c #225124",
"kX c #4AA94E",
"lX c #2E6B31",
"zX c #46A24A",
"xX c #3C8A3F",
"cX c white",
/* pixels */
"                                                                                ",
"                                                                                ",
"                                                                                ",
"                                                                                ",
"                                                                                ",
"                                                                                ",
"                                                                                ",
"                                                                                ",
"                                                                                ",
"                                                  . X                           ",
"                                          o X O Z A   +                         ",
"                              @ #   o   $ % S D F G H J                         ",
"                          S K L P I & * = U Y T R E W Q ! - ;                   ",
"                        : ~ ^ / ( ) S _ ` ' ] oXOX+X@X[ { > ,                   ",
"                      < } |  .#X$X..X.o.O.%X&X*X=XOX-X;X+.@.1 2                 ",
"                      3 #.$.:X*X>X%.&.*.,X<X<X1X1X<X2X3X=.-.4 2                 ",
"                    . ;.:.>.OX4X5X6X7X8X<X<X<X<X<X<X9X0XqX,.<.5                 ",
"                    6 1.2.3.<X<XwX8X=XeXrX<X<X<X<X<X<XtXyX4.5.7                 ",
"                    8 6.7.8.<X<X<X<X<X<X<X<X<XrX<X<X<XeXuX9.0.9                 ",
"                  * 0 q.w.iX<X1X<X<X<X1X<XeX<X<X<X<X<XpXe.r.t.q                 ",
"                    Z y.u.*XeX<X<XrX<XrX<X<X<X<X<XeXi.p.a.s.d.w                 ",
"                  e f.g.aX<X<XrX<X<X<X<X1X<X1X<XsXh.j.k.l.r t y                 ",
"                  u z.x.dX1XrXrXeX<X<X<X<XwXeXc.v.b.n.I                         ",
"                  i m.M.eX1X1X<X<X<X<X<XfXgXN.B.V.C.p                           ",
"                  a Z.A.iX<X1X<X<X<X<X<X*XhXjXS.D.s   d                         ",
"                  & F.G.H.5X,XeX*X*X*X*XfXkXlXJ.K.1.f                           ",
"                  & g L.P.I.U.Y.T.R.E.zX1X*XxXW.Q.  h                           ",
"                  &   j C.!.~.^./.(.)._.`.'.].[.{.k                             ",
"                    & l + z x c Z _ l.}.|. X.XXX1.                              ",
"                              v b n m M N B   V                                 ",
"                                      o C                                       ",
"                                                                                ",
"                                                                                ",
"                                                                                ",
"                                                                                ",
"                                                                                ",
"                                                                                ",
"                                                                                ",
"                                                                                ",
"                                                                                "
};
