/* XPM */
static char *player_pos_011[] = {
/* columns rows colors chars-per-pixel */
"40 40 237 2 ",
"   c black",
".  c #000001",
"X  c #09090A",
"o  c #020202",
"O  c #1F461F",
"+  c #000200",
"@  c #38843A",
"#  c #030703",
"$  c #081607",
"%  c #132718",
"&  c #040904",
"*  c #122613",
"=  c #0A180A",
"-  c #18371C",
";  c #050000",
":  c #010301",
">  c #020000",
",  c #08150A",
"<  c #020602",
"1  c white",
"2  c #0B1E0D",
"3  c #0D1F0E",
"4  c #040D06",
"5  c #1A3A19",
"6  c #98FF9F",
"7  c #0C1F0D",
"8  c #000100",
"9  c #040604",
"0  c #090909",
"q  c #002B00",
"w  c #0A030A",
"e  c #001D00",
"r  c #081108",
"t  c #030E04",
"y  c #0C210E",
"u  c #2C6730",
"i  c #030803",
"p  c #112D12",
"a  c #061006",
"s  c #040B05",
"d  c #297532",
"f  c #08150B",
"g  c #030804",
"h  c #040704",
"j  c #020402",
"k  c #030603",
"l  c black",
"z  c black",
"x  c black",
"c  c black",
"v  c black",
"b  c black",
"n  c #071209",
"m  c #1C3F1E",
"M  c #255627",
"N  c #152F17",
"B  c #070F07",
"V  c #071407",
"C  c #225024",
"Z  c #38813C",
"A  c #439A47",
"S  c None",
"D  c #3E8C41",
"F  c #224F24",
"G  c #112511",
"H  c #0A150A",
"J  c black",
"K  c #122813",
"L  c #337535",
"P  c #39823C",
"I  c #295E2B",
"U  c #132C15",
"Y  c #000002",
"T  c #040904",
"R  c #214C23",
"E  c #429846",
"W  c #47A34B",
"Q  c #357C39",
"!  c #224F25",
"~  c #183619",
"^  c #060C06",
"/  c black",
"(  c #081109",
")  c #317033",
"_  c #429946",
"`  c #347937",
"'  c #1A3E1C",
"]  c #0C1C0D",
"[  c #0B150A",
"{  c #1A3A1B",
"}  c #3C8A3F",
"|  c #295E2C",
" . c #122612",
".. c black",
"X. c black",
"o. c #235226",
"O. c #347A37",
"+. c #0F230F",
"@. c black",
"#. c #0D1E0E",
"$. c #2F6D32",
"%. c #123014",
"&. c #020803",
"*. c black",
"=. c #1A3B1B",
"-. c #3A833C",
";. c #1F4921",
":. c #1A431C",
">. c #193F1A",
",. c #0F2710",
"<. c black",
"1. c #010200",
"2. c #245225",
"3. c #1B401D",
"4. c #133114",
"5. c #132F14",
"6. c #071106",
"7. c #0B1A0B",
"8. c #2F6D32",
"9. c #2C662E",
"0. c #071208",
"q. c #143116",
"w. c #3A853D",
"e. c #409243",
"r. c #0D1E0F",
"t. c #09170A",
"y. c #255727",
"u. c #245525",
"i. c #1E4620",
"p. c #040804",
"a. c #020602",
"s. c #0F2610",
"d. c #1D491F",
"f. c #255D28",
"g. c #143315",
"h. c #214E23",
"j. c #4AAC4E",
"k. c #347837",
"l. c #071107",
"z. c #030D03",
"x. c #091B0B",
"c. c #050D05",
"v. c black",
"b. c #183719",
"n. c #419644",
"m. c #143015",
"M. c #060C06",
"N. c #061007",
"B. c #357A38",
"V. c #265828",
"C. c #000200",
"Z. c black",
"A. c #285E2B",
"S. c #46A24A",
"D. c #040C05",
"F. c black",
"G. c #163417",
"H. c #3E9042",
"J. c #1E4920",
"K. c #0C1E0D",
"L. c black",
"P. c black",
"I. c #337536",
"U. c #46A24A",
"Y. c #1C471F",
"T. c #0B1D0C",
"R. c black",
"E. c #183719",
"W. c #295C2A",
"Q. c #225524",
"!. c #153818",
"~. c #0E2710",
"^. c #040A04",
"/. c #050B05",
"(. c #0E210E",
"). c #1B401C",
"_. c #193F1B",
"`. c #0C200D",
"'. c #060F06",
"]. c #000101",
"[. c black",
"{. c #0C1D0C",
"}. c #183B19",
"|. c #133015",
" X c #071308",
".X c #030905",
"XX c #030403",
"oX c black",
"OX c #4BAC4F",
"+X c #4DB051",
"@X c #4DB050",
"#X c #4DAE51",
"$X c #47A14A",
"%X c #4CAF50",
"&X c #4DAE50",
"*X c #4CAE50",
"=X c #4AA94E",
"-X c #4DAF50",
";X c #4AAB4E",
":X c #4CAF51",
">X c #4AAA4E",
",X c #409444",
"<X c #449D48",
"1X c #4DB151",
"2X c #4DAF51",
"3X c #419645",
"4X c #337636",
"5X c #235726",
"6X c #409343",
"7X c #47A24A",
"8X c #46A24A",
"9X c #4BAB4E",
"0X c #4CB051",
"qX c #4CAD4F",
"wX c #449B47",
"eX c #3D8B40",
"rX c #49A74C",
"tX c #285D2A",
"yX c #255727",
"uX c #37803A",
"iX c #4CB050",
"pX c #49A94D",
"aX c #429946",
"sX c #49A74D",
"dX c #295F2B",
"fX c #4BAD4F",
"gX c #46A14A",
"hX c #38823C",
"jX c #459D49",
"kX c #3D8D40",
"lX c #357D38",
"zX c #2A682D",
"xX c #419644",
"cX c #2C6E2F",
"vX c #2B672D",
"bX c #245B27",
"nX c white",
/* pixels */
"                                                                                ",
"                                                                                ",
"                                                                                ",
"                                                                                ",
"                                                                                ",
"                                                                                ",
"                                                                                ",
"                            . .     X o                                         ",
"                        .     l z x c O                                         ",
"                        + v b n m M N B v @ #                                   ",
"                        $ V C Z A S D F G H J % &                               ",
"                        c K L OX+X@X#X$XP I U Y l *                             ",
"                      = T R E %X&X&X%X*X*XW Q ! ~ ^ /                           ",
"                      - ( ) =X%X%X-X%X-X%X%X;X_ ` ' ] [   ;                     ",
"                    : l { } -X*X%X%X:X-X%X&X:X%X>X,X|  ...>                     ",
"                    , X.o.<X+X*X%X%X%X%X%X-X%X:X1X+XO.+.@.<                     ",
"                    1 #.$.>X2X%X%X%X%X%X:X%X%XOX3X4X5X%.&.2                     ",
"                  3 *.=.-.-X-X%X%X%X%X%X%X-X1X6X;.:.>.,.<.4                     ",
"                  5 1.2.7X+X%X%X:X%X*X-X%X-X@X8X3.4.5.6.                        ",
"                  6 7.8.9X@X+X-X%X%X%X-X%X*X%X0X9.0./ 7   .                     ",
"                  J q.w.qXwXeXrX%X%X%X%X%X%X*X%Xe.r.<.8                         ",
"                  l t.y.tXyXu.uXiX%X%X%X%X%X%X%XpXi.p.9 0                       ",
"                    a.s.d.f.g.h.j.%X%X%X%X%X%X%X*Xk.l.q w                       ",
"                  e / z.x.c.v.b.n.0X%X%X:X:X*X%X+XaXm.M.r                       ",
"                  q   t 1 y u N.B.*X%X%X%X%X%X%X%XsXV.C.i                       ",
"                              Z.A.S.:X%X%X%X*X-X+XOXdXD.F.                      ",
"                          8   J G.H.*X%X%X%X2XfXgXhXJ.K.L.                      ",
"                                P.I.U.%X%X>XjXkXlXzXY.T.p                       ",
"                                R.E.W.6XxXkXlXcXQ.!.~.^.a                       ",
"                                v /.(.).vXbX_.`.'.].[.v                         ",
"                                s c {.}.|. X.XXX  d +                           ",
"                                  f v x oXl g h h                               ",
"                                        j k &                                   ",
"                                                                                ",
"                                                                                ",
"                                                                                ",
"                                                                                ",
"                                                                                ",
"                                                                                ",
"                                                                                "
};
