/* XPM */
static char *player_pos_017[] = {
/* columns rows colors chars-per-pixel */
"40 40 140 2 ",
"   c None",
".  c #060F06",
"X  c #0A180A",
"o  c #0B1B0C",
"O  c #0D210E",
"+  c #0E220F",
"@  c #0F230F",
"#  c #0F2610",
"$  c #0F2811",
"%  c #102611",
"&  c #122913",
"*  c #102A12",
"=  c #122B13",
"-  c #132C14",
";  c #142F15",
":  c #153716",
">  c #173617",
",  c #163418",
"<  c #173418",
"1  c #173518",
"2  c #163619",
"3  c #163918",
"4  c #163A19",
"5  c #193B1B",
"6  c #183D1A",
"7  c #1A3C1B",
"8  c #193A1C",
"9  c #19411B",
"0  c #1A411B",
"q  c #1A441C",
"w  c #1B441E",
"e  c #1C461D",
"r  c #1C451E",
"t  c #1D451E",
"y  c #1F4721",
"u  c #1F4820",
"i  c #1F4921",
"p  c #1F4A22",
"a  c #1F4E21",
"s  c #1F5022",
"d  c #204A21",
"f  c #224C23",
"g  c #214F23",
"h  c #224F25",
"j  c #234F25",
"k  c #205122",
"l  c #215323",
"z  c #235025",
"x  c #215225",
"c  c #245125",
"v  c #245426",
"b  c #245427",
"n  c #265528",
"m  c #265628",
"M  c #265A29",
"N  c #275B2A",
"B  c #265C28",
"V  c #275E29",
"C  c #2A602B",
"Z  c #2B672E",
"A  c #2C642E",
"S  c #2C662F",
"D  c #2B6A2E",
"F  c #2D682F",
"G  c #2E6B30",
"H  c #2F6B31",
"J  c #2D6D30",
"K  c #2F6C32",
"L  c #2F6D32",
"P  c #306D32",
"I  c #306F32",
"U  c #307633",
"Y  c #317135",
"T  c #327234",
"R  c #327334",
"E  c #337536",
"W  c #347737",
"Q  c #347B36",
"!  c #337D36",
"~  c #367C39",
"^  c #367D39",
"/  c #367E39",
"(  c #377E39",
")  c #38813B",
"_  c #39833C",
"`  c #3A853D",
"'  c #3A863D",
"]  c #3A863E",
"[  c #3D8D40",
"{  c #3E8C41",
"}  c #3D8E41",
"|  c #3E9041",
" . c #3E9243",
".. c #3F9343",
"X. c #409344",
"o. c #409444",
"O. c #419544",
"+. c #419644",
"@. c #429645",
"#. c #429745",
"$. c #419846",
"%. c #439946",
"&. c #439A47",
"*. c #449C47",
"=. c #449C48",
"-. c #449E48",
";. c #459F49",
":. c #46A049",
">. c #46A14A",
",. c #46A24A",
"<. c #47A34A",
"1. c #47A34B",
"2. c #47A44B",
"3. c #47A54B",
"4. c #49A74C",
"5. c #48A74D",
"6. c #49A84D",
"7. c #4AA84E",
"8. c #4AA94E",
"9. c #4AAA4E",
"0. c #4AAB4E",
"q. c #4BAB4E",
"w. c #4AAC4F",
"e. c #4BAC4F",
"r. c #4BAD4F",
"t. c #4BAE4F",
"y. c #4BAE50",
"u. c #4CAE50",
"i. c #4DAE50",
"p. c #4CAF50",
"a. c #4DAF50",
"s. c #4CAE51",
"d. c #4CAF51",
"f. c #4DAF51",
"g. c #4CB051",
"h. c #4DB051",
"j. c #4DB151",
"k. c #4DB251",
"l. c #4DB152",
"z. c #4DB252",
/* pixels */
"                                                                                ",
"                                                                                ",
"                                                                                ",
"                                                                                ",
"                                                                                ",
"                                                                                ",
"                                                                                ",
"                                                                                ",
"                                                                                ",
"                                                                                ",
"                                    z S + 3                                     ",
"                                i T o.;.Z 9                                     ",
"                            8 S } 3.d.9.H 9                                     ",
"                          b ` 1.r.d.d.9.f 9                                     ",
"                      - H ;.r.d.d.d.d.9.h 2 %                                   ",
"                    f ` 9.d.d.d.d.d.d.d.r.%._ P m t 7 2 &                       ",
"                  F o.d.d.d.d.d.d.d.d.d.d.d.h.h.h.r.;.} W i $                   ",
"                2 o.h.d.d.d.d.d.d.d.d.d.d.d.d.d.d.d.h.h.h. .z 3                 ",
"                5 4.d.d.d.d.d.d.d.d.d.d.d.d.d.d.d.d.d.d.h.%.J k                 ",
"                c 1.h.d.d.d.d.d.d.d.d.d.t.d.d.d.d.d.d.d.h.%.Q t                 ",
"                  / d.d.d.d.d.d.d.d.d.d.d.d.d.d.d.d.d.d.h.o.! :                 ",
"                  z } d.d.d.d.d.d.d.d.t.d.d.d.d.d.d.d.d.d.o.U &                 ",
"                    h X.d.d.d.d.d.d.d.d.d.d.d.d.d.d.d.d.r. .D #                 ",
"                      C ;.d.d.d.d.d.d.d.d.d.d.d.d.d.d.d.9. .B +                 ",
"                        T 1.d.d.d.d.9.r.r.r.y.y.d.d.d.h.1./ a X                 ",
"                          E 9.d.d.4.J i d P ` %.1.3.3.*.H t q                   ",
"                          : T 9.h.o.M k .         m J b + +                     ",
"                            ; / 9.) B s                                         ",
"                              y / M q 7                                         ",
"                                2 & o                                           ",
"                                                                                ",
"                                                                                ",
"                                                                                ",
"                                                                                ",
"                                                                                ",
"                                                                                ",
"                                                                                ",
"                                                                                ",
"                                                                                ",
"                                                                                "
};
