/* XPM */
static char *player_pos_009[] = {
/* columns rows colors chars-per-pixel */
"40 40 170 2 ",
"   c black",
".  c #000001",
"X  c #000100",
"o  c #010000",
"O  c #000101",
"+  c #010001",
"@  c #010100",
"#  c black",
"$  c black",
"%  c #000301",
"&  c #010101",
"*  c black",
"=  c black",
"-  c black",
";  c #060D06",
":  c black",
">  c black",
",  c #070E07",
"<  c black",
"1  c #020602",
"2  c black",
"3  c #010000",
"4  c #040905",
"5  c #010100",
"6  c #010100",
"7  c black",
"8  c #000002",
"9  c #010003",
"0  c #010000",
"q  c black",
"w  c black",
"e  c #010000",
"r  c black",
"t  c #050B05",
"y  c black",
"u  c #000100",
"i  c None",
"p  c #010000",
"a  c black",
"s  c #020003",
"d  c black",
"f  c black",
"g  c #000200",
"h  c #000100",
"j  c black",
"k  c #070F06",
"l  c black",
"z  c black",
"x  c black",
"c  c #000100",
"v  c black",
"b  c #010100",
"n  c #000100",
"m  c black",
"M  c #010000",
"N  c #000001",
"B  c #000200",
"V  c #010300",
"C  c black",
"Z  c #010302",
"A  c #000003",
"S  c #020402",
"D  c black",
"F  c #030703",
"G  c black",
"H  c #050905",
"J  c black",
"K  c #050C05",
"L  c black",
"P  c #060F07",
"I  c #010000",
"U  c #010201",
"Y  c black",
"T  c #000101",
"R  c black",
"E  c #010000",
"W  c #020002",
"Q  c #050D06",
"!  c black",
"~  c black",
"^  c #020602",
"/  c #050D05",
"(  c #050805",
")  c #030703",
"_  c #020502",
"`  c #010401",
"'  c #010301",
"]  c #000201",
"[  c black",
"{  c black",
"}  c #1A3C1A",
"|  c #4AAB4E",
" . c #4DAF50",
".. c #4CAF50",
"X. c #429946",
"o. c #245326",
"O. c #102511",
"+. c #4CAF51",
"@. c #4DAE51",
"#. c #4CAE51",
"$. c #4AAC4F",
"%. c #4CAE50",
"&. c #4DAE50",
"*. c #48A54C",
"=. c #429846",
"-. c #3A883F",
";. c #4DAF51",
":. c #38843D",
">. c #275829",
",. c #2F6B31",
"<. c #122B13",
"1. c #234F24",
"2. c #173519",
"3. c #49A74C",
"4. c #3B883F",
"5. c #46A049",
"6. c #2C682F",
"7. c #46A24A",
"8. c #060F07",
"9. c #1B441D",
"0. c #0A160B",
"q. c #173418",
"w. c #142D15",
"e. c #235025",
"r. c #09150A",
"t. c #0D210E",
"y. c #0F2610",
"u. c #1A451D",
"i. c #27642A",
"p. c #358739",
"a. c #388C3D",
"s. c #398D3C",
"d. c #112811",
"f. c #4BAE4F",
"g. c #255F28",
"h. c #235925",
"j. c #143315",
"k. c #4BAD4F",
"l. c #4BAC4E",
"z. c #4AAA4E",
"x. c #49A84D",
"c. c #48A64C",
"v. c #47A34A",
"b. c #459E49",
"n. c #439B47",
"m. c #367D39",
"M. c #050A04",
"N. c #245526",
"B. c #122D13",
"V. c #050D06",
"C. c #2E6A31",
"Z. c #3C8A40",
"A. c #3B853D",
"S. c #377F3B",
"D. c #347736",
"F. c #307033",
"G. c #2D682F",
"H. c #275A29",
"J. c #09140A",
"K. c #235A26",
"L. c #29682C",
"P. c #327F37",
"I. c #2F7632",
"U. c #307B34",
"Y. c #337E35",
"T. c #328136",
"R. c #358538",
"E. c #358738",
"W. c #37883A",
"Q. c white",
/* pixels */
"          .   .     X       X       o                 O           o             ",
"          o                 X                                     o             ",
"            o X       X .                 X                         . .     . . ",
"    .       . .           X           . o                           o   . .     ",
"                              o         +   .     . o   . X           o         ",
"  o   X .                             X             X               . .   . X   ",
"    .   O     .             X     # $ % & * =                   o               ",
"          X         +       X X - } |  ...X.; :                   .             ",
"                              > o........... ., <     X   O   .                 ",
"@ X               .         : O.+.@...#... .@.$.1 2                 o           ",
"        X     o           3 4 %.%.&...%. .%.%.%.*.5                           o ",
"  .   o                   6 *.+.......&.+...%. .+.=.7     X X   X               ",
"                  .     8 -. .%.#.+.;.+... .+. .....:.9                         ",
"            o         0 >.+...+.%. ...+.;..... .%. . .,.q           .     o     ",
"                    w <.%.%. .&...+.....+. . ...@.....+.1.e   o       .       X ",
"                  r t %. . .;.........;...+... .%....... .2.y                   ",
"                  u 3... .@. ...&.+. ...+...%.%.&. .;.+...+.i p       .     .   ",
"                a 4.%... .+.#... .%.&. . .%.......%.+. .....5.s       o         ",
"          o X   d 6.&.+.&. .@. .+.#.+.%.%.;............. .7.8.f @   .     o     ",
"      .         g 9.0.q.w.e.+..... ...+.%. .#. ...%.r.t.y.u.i.h                 ",
"                j k p.a.s.d.f.......+..... .&.%. .%.8.g.h.j.l           X .   . ",
"    . o           z x c v b k..... ...%.+.+.&.+.%.%.n m M N               X .   ",
"          o o O         X B l... .%.....%...;.+...+.V                 .     . o ",
"              .           C z...%..... .....%.%.%.;.Z .             X           ",
"                  .       A x... .;...+. . . .......S X     X                   ",
"        .       o         D c.........+...%.+...%.%.F     @       .             ",
"    X               o   o G v... .%.....+...%.&.....H   X X   X                 ",
"      .   o   X   X       J b... ...@.....+... ...+.K .                         ",
"o   .                 o o L n...%.+...%.%. .@.......P   .                       ",
"                o         I m.&... ...%...%....... .U                 o   . .   ",
"          o X       o o   Y M.%.%.+.#...+.&...+.+.N.T         .           X   X ",
"      o                   R B.V.C.Z.A.S.D.F.G.H.J.K.E                           ",
"  @     .                   W L.P.I.U.Y.T.R.E.W.p.Q !                   .       ",
"  . X X X       o       o   X ~ ^ / ( ) _ ` ' ] [ { . .                         ",
"                                                      o                 .       ",
"    o             X               .         o         X                         ",
"X                           o       .         .   X                       X .   ",
"                                    .     . @   o o     .     o           . o   ",
"  X       X X o                       X                       o                 ",
"      o                       X                                                 "
};
