/* XPM */
static char *player_pos_026[] = {
/* columns rows colors chars-per-pixel */
"40 40 139 2 ",
"   c None",
".  c #060F07",
"X  c #0A180A",
"o  c #0B1B0C",
"O  c #0D210E",
"+  c #0E210F",
"@  c #0F230E",
"#  c #0E230F",
"$  c #0F2610",
"%  c #102611",
"&  c #102811",
"*  c #122913",
"=  c #102A12",
"-  c #112B13",
";  c #132C14",
":  c #142E15",
">  c #153616",
",  c #173617",
"<  c #163418",
"1  c #173518",
"2  c #173719",
"3  c #163918",
"4  c #173A18",
"5  c #193B1B",
"6  c #183D1A",
"7  c #1A3C1B",
"8  c #193A1C",
"9  c #19411B",
"0  c #1A411B",
"q  c #1A431C",
"w  c #1B451D",
"e  c #1C441D",
"r  c #1D441F",
"t  c #1C471E",
"y  c #1F4721",
"u  c #1F4820",
"i  c #1F4922",
"p  c #1F4E21",
"a  c #1F5022",
"s  c #204B21",
"d  c #204A22",
"f  c #214F23",
"g  c #214C24",
"h  c #224F24",
"j  c #234F25",
"k  c #205122",
"l  c #235025",
"z  c #235125",
"x  c #215324",
"c  c #225225",
"v  c #245226",
"b  c #245426",
"n  c #265528",
"m  c #265628",
"M  c #265B29",
"N  c #275B2A",
"B  c #265C28",
"V  c #275E29",
"C  c #2A602C",
"Z  c #2B672E",
"A  c #2C652E",
"S  c #2C662F",
"D  c #2C6A2E",
"F  c #2E6B2F",
"G  c #2D6830",
"H  c #2F6B31",
"J  c #2D6D31",
"K  c #2F6D32",
"L  c #306D32",
"P  c #306F32",
"I  c #317235",
"U  c #327334",
"Y  c #327235",
"T  c #317634",
"R  c #337536",
"E  c #347736",
"W  c #337C36",
"Q  c #347C36",
"!  c #367C39",
"~  c #377D39",
"^  c #367E38",
"/  c #367E39",
"(  c #39813B",
")  c #39833C",
"_  c #3A853D",
"`  c #3A863D",
"'  c #3A863E",
"]  c #3D8D40",
"[  c #3D8C41",
"{  c #3D8E41",
"}  c #3E9041",
"|  c #3F9243",
" . c #3F9343",
".. c #409344",
"X. c #409444",
"o. c #419544",
"O. c #419645",
"+. c #429645",
"@. c #429745",
"#. c #429846",
"$. c #439946",
"%. c #439A47",
"&. c #449C47",
"*. c #449C49",
"=. c #449E48",
"-. c #459F49",
";. c #469F49",
":. c #46A14A",
">. c #46A24A",
",. c #47A34B",
"<. c #47A44A",
"1. c #47A44B",
"2. c #48A54B",
"3. c #48A74C",
"4. c #49A74D",
"5. c #49A84D",
"6. c #4AA84D",
"7. c #4AA94E",
"8. c #4AAA4E",
"9. c #4AAB4E",
"0. c #4BAB4E",
"q. c #4AAB4F",
"w. c #4BAC4E",
"e. c #4BAD4F",
"r. c #4BAE4F",
"t. c #4CAC4F",
"y. c #4BAE50",
"u. c #4CAD50",
"i. c #4CAE50",
"p. c #4DAE50",
"a. c #4CAF50",
"s. c #4DAF50",
"d. c #4DAE51",
"f. c #4CAF51",
"g. c #4DAF51",
"h. c #4DB051",
"j. c #4DB151",
"k. c #4DB251",
"l. c #4EB252",
/* pixels */
"                                                                                ",
"                                                                                ",
"                                                                                ",
"                                                                                ",
"                                                                                ",
"                                                                                ",
"                                                                                ",
"                                                                                ",
"                                  4 k r > * $ @ X                               ",
"                                * c J Q W T D B p q                             ",
"                                d  .%.%.o... . .^ r @                           ",
"                              * E h.h.h.h.a.7.7.;.H @                           ",
"                              2 ] h.a.a.a.a.a.a.h.&.v                           ",
"                              7 ;.h.a.a.a.a.a.a.a.<.H                           ",
"                              r r.a.a.a.a.a.a.a.a.<.m                           ",
"                              m h.a.a.a.a.a.a.a.a.>.                            ",
"                              P h.a.a.a.a.a.a.a.y.%.                            ",
"                            % ) h.a.a.a.a.a.a.a.y.`                             ",
"                    4 0 0 0 2 %.h.a.a.a.a.a.a.a.r.P                             ",
"                    @ Z D f j t.a.a.a.a.a.a.a.a.r.d .                           ",
"                    S ;.7.7.7.a.a.a.a.a.a.a.a.a.r.u c a 7                       ",
"                    c o.a.a.a.a.a.a.a.a.a.a.a.a.4.J N B w o                     ",
"                      I 2.a.a.a.a.a.a.a.a.a.a.a.a.4.o.( N *                     ",
"                      u ] r.a.a.a.a.a.a.a.a.a.a.a.a.h.7.^ 2                     ",
"                        S <.a.a.a.a.a.a.a.a.a.a.a.a.7.^ y                       ",
"                        8 ` r.a.a.a.a.a.a.a.a.a.a.7.I :                         ",
"                          b ;.a.a.a.a.a.a.a.a.a.>.T >                           ",
"                            H 7.a.a.a.a.a.a.a.;.I                               ",
"                            ; ` h.a.a.a.a.a...C                                 ",
"                              j o.h.a.h.a.] j                                   ",
"                                H o.4.>.^ c                                     ",
"                                  2 5 c                                         ",
"                                                                                ",
"                                                                                ",
"                                                                                ",
"                                                                                ",
"                                                                                ",
"                                                                                ",
"                                                                                ",
"                                                                                "
};
