/* XPM */
static char *player_pos_010[] = {
/* columns rows colors chars-per-pixel */
"40 40 145 2 ",
"   c None",
".  c #030703",
"X  c #040A04",
"o  c #091508",
"O  c #0B180C",
"+  c #0D1D0D",
"@  c #0F1F0E",
"#  c #0C200D",
"$  c #0E220F",
"%  c #0F2610",
"&  c #0F2710",
"*  c #112610",
"=  c #102911",
"-  c #112812",
";  c #112A12",
":  c #122E14",
">  c #163217",
",  c #153517",
"<  c #163417",
"1  c #163717",
"2  c #173418",
"3  c #173818",
"4  c #173A19",
"5  c #173B19",
"6  c #18391B",
"7  c #193B1A",
"8  c #1A3D1B",
"9  c #183F1A",
"0  c #1A3E1B",
"q  c #1B3E1D",
"w  c #1A421C",
"e  c #1B401E",
"r  c #1C411D",
"t  c #1D411D",
"y  c #1C411E",
"u  c #1D431E",
"i  c #1B451D",
"p  c #1C451E",
"a  c #1E441F",
"s  c #1D471F",
"d  c #1E471F",
"f  c #1C481E",
"g  c #1D481F",
"h  c #1D4B1F",
"j  c #1E4B1F",
"k  c #1E4320",
"l  c #1F4821",
"z  c #204F22",
"x  c #224E24",
"c  c #224F25",
"v  c #215323",
"b  c #225024",
"n  c #255627",
"m  c #245727",
"M  c #245927",
"N  c #245A27",
"B  c #255C27",
"V  c #255628",
"C  c #255728",
"Z  c #275929",
"A  c #285C2A",
"S  c #295E2A",
"D  c #295E2B",
"F  c #2A612D",
"G  c #2B612D",
"H  c #2B642E",
"J  c #2D672F",
"K  c #2A692D",
"L  c #2C6830",
"P  c #2E6A31",
"I  c #2F6B31",
"U  c #2E6D31",
"Y  c #306D32",
"T  c #317033",
"R  c #317134",
"E  c #317035",
"W  c #327235",
"Q  c #317734",
"!  c #337635",
"~  c #327735",
"^  c #347837",
"/  c #357938",
"(  c #357A38",
")  c #367C39",
"_  c #367D39",
"`  c #377E3A",
"'  c #368139",
"]  c #37803A",
"[  c #38813B",
"{  c #38843B",
"}  c #38853C",
"|  c #3B873D",
" . c #3A873E",
".. c #3B873E",
"X. c #3C8A3F",
"o. c #3D8D3F",
"O. c #3D8C40",
"+. c #3D8E41",
"@. c #3F9242",
"#. c #409343",
"$. c #409444",
"%. c #419545",
"&. c #419745",
"*. c #429946",
"=. c #429A46",
"-. c #439A47",
";. c #449B47",
":. c #459E49",
">. c #459F49",
",. c #46A049",
"<. c #46A149",
"1. c #46A14A",
"2. c #47A34A",
"3. c #47A24B",
"4. c #47A34B",
"5. c #47A44B",
"6. c #47A54B",
"7. c #47A34C",
"8. c #48A64C",
"9. c #48A74C",
"0. c #49A84D",
"q. c #49A94E",
"w. c #49AA4E",
"e. c #4AAA4E",
"r. c #4AAB4E",
"t. c #4AAB4F",
"y. c #4BAB4F",
"u. c #4BAC4E",
"i. c #4BAC4F",
"p. c #4BAD4F",
"a. c #4CAC4F",
"s. c #4BAC50",
"d. c #4BAD50",
"f. c #4BAE50",
"g. c #4CAE50",
"h. c #4DAE50",
"j. c #4CAF50",
"k. c #4DAF50",
"l. c #4CAE51",
"z. c #4CAF51",
"x. c #4DAF51",
"c. c #4CB050",
"v. c #4CB051",
"b. c #4DB051",
"n. c #4DB151",
/* pixels */
"                                                                                ",
"                                                                                ",
"                                                                                ",
"                                                                                ",
"                                                                                ",
"                                                                                ",
"                                                                                ",
"                                                                                ",
"                                  < q c                                         ",
"                                ! &.8.-.I >                                     ",
"                              J 3.c.c.c.e._ a                                   ",
"                            y #.j.j.j.j.j.d.+.D                                 ",
"                            W p.j.j.j.j.j.j.p.-.W                               ",
"                          C 3.j.j.j.j.j.j.j.j.j.7._ y                           ",
"                        6  .p.j.j.j.j.j.j.j.j.j.j.e.[ k                         ",
"                        D 3.j.j.j.j.j.j.j.j.j.j.j.j.d.X.C                       ",
"                      6  .p.j.j.j.j.j.j.j.j.j.j.j.c.c.e.Y @                     ",
"                      H 3.j.j.j.j.j.j.j.j.j.j.j.j.5.#.] m &                     ",
"                    y +.j.j.j.j.j.j.j.j.j.j.j.j.3.b a f 5                       ",
"                    I 3.p.e.e.j.j.j.j.j.j.j.j.j.a.2 9 f                         ",
"                    y W W G T p.j.j.j.j.j.j.j.j.j.l                             ",
"                    # 9 N N a -.j.j.j.j.j.j.j.j.j.G                             ",
"                      5 e - *  .c.j.j.j.j.j.j.j.j./ O                           ",
"                              / j.j.j.j.j.j.j.j.j.@.@                           ",
"                              I d.j.j.j.j.j.j.j.j.5.-                           ",
"                              m e.j.j.j.j.j.j.j.j.e.e                           ",
"                              c :.j.j.j.j.j.j.j.j.p.Z                           ",
"                                &.p.j.j.j.j.j.j.c.e.D X                         ",
"                                _ 8.c.c.c.j.e.5.;.^ a .                         ",
"                                9 ^ :.3.:.&.o.{ ! v <                           ",
"                                o 5 U  .] ! K B z f                             ",
"                                  : f i < - & #                                 ",
"                                                                                ",
"                                                                                ",
"                                                                                ",
"                                                                                ",
"                                                                                ",
"                                                                                ",
"                                                                                ",
"                                                                                "
};
