/* XPM */
static char *player_pos_007[] = {
/* columns rows colors chars-per-pixel */
"40 40 245 2 ",
"   c black",
".  c #071207",
"X  c #020502",
"o  c #000100",
"O  c #000400",
"+  c #020000",
"@  c #20431B",
"#  c #010101",
"$  c #000504",
"%  c #06100A",
"&  c #274D2A",
"*  c #000200",
"=  c #020705",
"-  c #9AFF88",
";  c #030603",
":  c #000005",
">  c #225120",
",  c #010301",
"<  c #020402",
"1  c #0A1A0E",
"2  c #09160A",
"3  c #060F07",
"4  c #071308",
"5  c #1C421E",
"6  c #010401",
"7  c #112A13",
"8  c white",
"9  c #050E06",
"0  c #0B1F0B",
"q  c #59E35E",
"w  c #0B1B0D",
"e  c #010204",
"r  c #1E3D1F",
"t  c #060B06",
"y  c #020202",
"u  c #060F06",
"i  c #020704",
"p  c #081B0B",
"a  c #0C280F",
"s  c #040804",
"d  c #0D1F0D",
"f  c #050803",
"g  c #091509",
"h  c #060D06",
"j  c #0C1E0D",
"k  c #0C230E",
"l  c #040404",
"z  c #030503",
"x  c #060806",
"c  c #0E000C",
"v  c #000300",
"b  c #000F00",
"n  c #000E00",
"m  c #001800",
"M  c black",
"N  c black",
"B  c black",
"V  c black",
"C  c black",
"Z  c black",
"A  c #102410",
"S  c #1C421D",
"D  c #285F2B",
"F  c #1F4821",
"G  c #0C1B0D",
"H  c #010001",
"J  c black",
"K  c #06120A",
"L  c #142E16",
"P  c #265828",
"I  c #3F9042",
"U  c #3B873F",
"Y  c #235126",
"T  c #081709",
"R  c black",
"E  c #0E2210",
"W  c #265728",
"Q  c #377E3A",
"!  c #337536",
"~  c #112511",
"^  c black",
"/  c #0E2210",
"(  c #1D431F",
")  c #306E33",
"_  c #45A04A",
"`  c #1B3E1C",
"'  c #030603",
"]  c #040A04",
"[  c #0A160A",
"{  c #2A602C",
"}  c #3E8D41",
"|  c #357A38",
" . c #0E190B",
".. c #0D1E0E",
"X. c #245226",
"o. c #37803A",
"O. c #429645",
"+. c #1F441F",
"@. c black",
"#. c black",
"$. c #0E200E",
"%. c #347837",
"&. c #2B642E",
"*. c #030705",
"=. c #0E2410",
"-. c #38823C",
";. c #163117",
":. c black",
">. c #102A12",
",. c #215324",
"<. c None",
"1. c #439946",
"2. c #265728",
"3. c #060F07",
"4. c #060F06",
"5. c #081609",
"6. c #132F14",
"7. c #193C1A",
"8. c #327335",
"9. c #122812",
"0. c #010301",
"q. c #245326",
"w. c #3C8A3F",
"e. c #1B3F1D",
"r. c #050D07",
"t. c #3B883F",
"y. c #1D411F",
"u. c #030403",
"i. c #1D4420",
"p. c #459E49",
"a. c #193D1B",
"s. c #1B421D",
"d. c #204F22",
"f. c #0A170A",
"g. c black",
"h. c #327334",
"j. c #49A94D",
"k. c #2D662F",
"l. c #0E230F",
"z. c #1D491F",
"x. c #163818",
"c. c #143415",
"v. c #091809",
"b. c #152D15",
"n. c #3D8D40",
"m. c #1D441F",
"M. c black",
"N. c #07160A",
"B. c #071709",
"V. c #000100",
"C. c black",
"Z. c #245427",
"A. c #429946",
"S. c #0B1A0C",
"D. c black",
"F. c #193D1B",
"G. c #2A612D",
"H. c #030502",
"J. c #081308",
"K. c #112911",
"L. c #173417",
"P. c #050702",
"I. c #040804",
"U. c #133014",
"Y. c #255C28",
"T. c #377E39",
"R. c #09170A",
"E. c #0D200E",
"W. c #143215",
"Q. c #1F4C20",
"!. c #1A3D1C",
"~. c #040C05",
"^. c black",
"/. c #020502",
"(. c #081108",
"). c #0A1B0B",
"_. c #163917",
"`. c #235825",
"'. c #193F1B",
"]. c #091509",
"[. c black",
"{. c #020002",
"}. c #040603",
"|. c #030703",
" X c #102A12",
".X c #1A441D",
"XX c #102C12",
"oX c #030803",
"OX c black",
"+X c black",
"@X c #45A149",
"#X c #459F49",
"$X c #46A14A",
"%X c #4DAF50",
"&X c #4DB051",
"*X c #4BAE50",
"=X c #4CAE50",
"-X c #4CAF50",
";X c #449C48",
":X c #49A74D",
">X c #4CAF51",
",X c #4BAD4F",
"<X c #48A54B",
"1X c #4DB050",
"2X c #4DAE50",
"3X c #4BAC4E",
"4X c #4EB251",
"5X c #48A54C",
"6X c #214F24",
"7X c #327234",
"8X c #409444",
"9X c #4BAC4F",
"0X c #4DAF51",
"qX c #4BAD50",
"wX c #275C29",
"eX c #409343",
"rX c #4CB051",
"tX c #439B46",
"yX c #4BAB4E",
"uX c #4AAA4E",
"iX c #49A74C",
"pX c #377E3A",
"aX c #3E8F41",
"sX c #4DB151",
"dX c #3C8A3F",
"fX c #255A28",
"gX c #449D48",
"hX c #3A853D",
"jX c #3E9042",
"kX c #4DB251",
"lX c #2F6D31",
"zX c #47A34B",
"xX c #4CB050",
"cX c #449E48",
"vX c #38833B",
"bX c #439B47",
"nX c #2B6A2E",
"mX c #337A36",
"MX c #367F39",
"NX c #3A863D",
"BX c #3F9243",
"VX c #3A883E",
"CX c #2B692D",
"ZX c #225425",
"AX c white",
/* pixels */
"                                                                                ",
"                                                                                ",
"                                                                                ",
"                                                                                ",
"                                                                                ",
"                                                                                ",
"                                                                                ",
"                                        . X o O O                               ",
"                                  +   M N B V C                                 ",
"                                o @ Z A S D F G H M #                           ",
"                            $ % J K L P I @X#XU Y T &                           ",
"                      o * = - R E W Q $X%X&X&X*X! ~ ^                           ",
"                          Z / ( ) _ =X-X-X%X-X%X;X` ' ;                         ",
"                  : >   ] [ { } :X-X=X=X>X>X-X-X,X|  .                          ",
"                    J ..X.o.<X=X1X2X-X-X-X>X-X-X%XO.+.@.,                       ",
"                  < #.$.%.3X4X%X%X-X>X-X-X-X-X-X-X5X&.*.1                       ",
"                  2 R =.6X7X8X9X0X-X-X-X-X-X%X-X-XqX-.;.Z   3                   ",
"                  4 :.>.,.<.wXeX-X-X-X=X-X-X-X-X-XrX1.2.3.5 <                   ",
"                  6 7 4.5.6.7.tX-X-X-X-X=X=X-X-X=X>XyX8.9.8 9                   ",
"                  0   q :.0.q.uX-X-X-X-X>X-X-X-X&X&X-Xw.e.Z w                   ",
"                        e r.t.=X-X-X-X-X-X-X-XiXpXaX9XaXy.u.r                   ",
"                        #.i.p.>X-X=X=X-X-X=XsXdXa.s.fXd.f.#.t                   ",
"                      y g.h.j.-X-X=X-X-X>X>X-Xk.l.z.x.c.v.J                     ",
"                      J b.n.=X-X-X-X-X-X-X&XgXm.M.N.B.V.M u                     ",
"                      C.Z.A.=X-X-X-X-X-X-XsXhXS.@.i p *                         ",
"                    a D.F.jXkX-X-X-X-X-X-XuXG.H.s                               ",
"                    d J.K.lXzX,XrX-X>X%XxXcXL.P.f                               ",
"                    g I.U.Y.vXeXbX5X=X-X-XT.R.                                  ",
"                    h Z E.W.Q.nXmXMXNXBXVX!.~.j                                 ",
"                        ^./.(.)._.`.CXZX'.].[.,                                 ",
"                        , k 8 {.}.|. X.XXXoXM                                   ",
"                            l l z x OX+XM c                                     ",
"                                v v * o b n m                                   ",
"                                                                                ",
"                                                                                ",
"                                                                                ",
"                                                                                ",
"                                                                                ",
"                                                                                ",
"                                                                                "
};
