/* XPM */
static char *player_pos_000[] = {
/* columns rows colors chars-per-pixel */
"40 40 167 2 ",
"   c #000000",
".  c #000000",
"X  c black",
"o  c #000000",
"O  c #000000",
"+  c #000000",
"@  c #000000",
"#  c black",
"$  c black",
"%  c black",
"&  c black",
"*  c black",
"=  c #000000",
"-  c #000000",
";  c black",
":  c black",
">  c #000000",
",  c black",
"<  c black",
"1  c black",
"2  c black",
"3  c #000000",
"4  c black",
"5  c black",
"6  c black",
"7  c black",
"8  c black",
"9  c black",
"0  c black",
"q  c #000000",
"w  c black",
"e  c black",
"r  c #000100",
"t  c #000100",
"y  c #000001",
"u  c #020002",
"i  c #040905",
"p  c #000100",
"a  c black",
"s  c #010000",
"d  c #020602",
"f  c black",
"g  c #050D05",
"h  c #000001",
"j  c #040905",
"k  c black",
"l  c #030703",
"z  c #000301",
"x  c #020502",
"c  c #010101",
"v  c #010401",
"b  c black",
"n  c #010201",
"m  c #060D06",
"M  c black",
"N  c #000201",
"B  c #070E07",
"V  c black",
"C  c black",
"Z  c #020602",
"A  c black",
"S  c black",
"D  c #050D06",
"F  c #010100",
"G  c black",
"H  c black",
"J  c #000100",
"K  c #010201",
"L  c #060F07",
"P  c #050C05",
"I  c #050904",
"U  c #030703",
"Y  c #020402",
"T  c #010302",
"R  c #010300",
"E  c black",
"W  c black",
"Q  c #000003",
"!  c black",
"~  c black",
"^  c black",
"/  c None",
"(  c #010000",
")  c #000100",
"_  c black",
"`  c #030002",
"'  c black",
"]  c #1B441D",
"[  c #2C682F",
"{  c #3B883F",
"}  c #358739",
"|  c #0A170B",
" . c #4CAF50",
".. c #49A74C",
"X. c #388D3D",
"o. c #173418",
"O. c #122B13",
"+. c #398D3C",
"@. c #142D15",
"#. c #4DAF50",
"$. c #4CAE50",
"%. c #275929",
"&. c #102811",
"*. c #235025",
"=. c #4DAF51",
"-. c #3A883F",
";. c #122D12",
":. c #050A04",
">. c #367D39",
",. c #439B47",
"<. c #459F49",
"1. c #47A34A",
"2. c #48A64C",
"3. c #49A84D",
"4. c #4AAA4E",
"5. c #4BAC4E",
"6. c #4BAD4F",
"7. c #4BAE4F",
"8. c #4CAE51",
"9. c #48A54C",
"0. c #29692C",
"q. c #050D06",
"w. c #4CAF51",
"e. c #102511",
"r. c #327E36",
"t. c #2E6A30",
"y. c #245326",
"u. c #2F7632",
"i. c #3D8B40",
"p. c #4DAE51",
"a. c #1A3C1B",
"s. c #307B34",
"d. c #3B853D",
"f. c #4AAB4E",
"g. c #327E35",
"h. c #377E3A",
"j. c #328136",
"k. c #347736",
"l. c #348538",
"z. c #307033",
"x. c #429946",
"c. c #358638",
"v. c #2D682F",
"b. c #4DAE50",
"n. c #36893A",
"m. c #275A29",
"M. c #4AAC4F",
"N. c #09150A",
"B. c #235A26",
"V. c #245526",
"C. c #429846",
"Z. c #060E07",
"A. c #39843D",
"S. c #255F28",
"D. c #0D210E",
"F. c #2F6B31",
"G. c #235825",
"H. c #0F2610",
"J. c #224F24",
"K. c #143315",
"L. c #1B451D",
"P. c #46A24A",
"I. c #173519",
"U. c #27642A",
"Y. c #060F07",
"T. c #46A149",
"R. c white",
/* pixels */
"  . . X X X X X X . X X X X X X X X X X X X X X X X X o X X X X X X X X X X X X ",
"X X X . X X X X X X X X X X X X X X X X O X X O X X o X X X O X X X X X X o X X ",
"X X X X X X O X X X X X X X X X X X X X X X X X O X X o X X X o X X X X X X X X ",
"O X X . X O X o X X X X X X . X o X X X X . X X X X X X X X . X X X X X X X . X ",
"X X X X X X . X X X O X . X X X X X X X X X X X X X X . o X X X X X X X X X X X ",
"X X X X X X X X X X X X X X o X X X X . O X X O X X X . X o X X X X X O X o X X ",
"X X X X o X X . X X X o X X . X X X X X o X X X X X X X O . X X X X X X X X X X ",
"X X O X X X X X X o X X X X X X X X X X X o X X X X o X X X X X X . X X X X X X ",
"X X X X X X X X X . X X X o X X X X X # $ % & X o X X . X X X X X X X X X X X X ",
"X X X o X X X X X X X . X X o X . X * = ] [ { - ; X X X X X X X X X X X X . X X ",
"X X X O X X X X X X O X X X X X X X : } |  . ...> , X X X X X X X . X X X X o X ",
"O X X X X X X o X O X X X X X . X . < X.o. . . . .O.1 X X X X o X X X X X X X X ",
"X X o X o X X X X X X X X X X X X X 2 +.@. .#.#. .$.%.3 o X X X X X X X X . X X ",
"X O . X . X X X 4 5 6 7 8 9 0 q w e r &.*.#. .=.#.$. .-.t y X X X X X o X O X O ",
"X X X X X X X u ;.:.>.,.<.1.2.3.4.5.6.7. .=.8. .#.#. . .9.i p X X X X X X X X X ",
"o X X X X X a 0.q.$. . . .w. .w. . . . .w.#. . . .#.w. .w.$.e.s o X X X X X X X ",
"X o O X O X d r.t.$. . .#. . . . . . . . .w.#.$. . .$.$. .$. .y.f X X X X X o X ",
"X X X O X X g u.i.w.#. . .$. .=. .$.#. .#. . . . .w. . .$. .p. .a.h X X X X X X ",
"X X X O X X j s.d.$. . .$. . . . . . . . .w.$. . . . .#. .#. . .f.k X X X X . X ",
"X X X o X X l g.h.w. . . . .w.w. .$. . .w.$. . . . . .w.#.$.$. . .z X X X X X X ",
"X X X X X X x j.k.=. .$. .w. .#. . .w. .#.$. . . .w.w.#.w.#. . . .c X X X X X X ",
"X X X . X X v l.z.$.$. . . .$. . . . .#. .#.$. . .#. . . .#.#. .x.b X o X X X o ",
"X X X o X X n c.v.w.#.#. .$.w.#. .w.$.$. . . .$. . . .w. .$.p.b.m M X X X X o X ",
"X X X o X X N n.m. . . .#. . . . .w.$.$.#. . . .#.#. .#.#.$.M.B V X O X . X X X ",
"O o X X X X C } N.w. . . . .$. .$. .$.#. . . . .$.p.$. .w.9.Z A X X X X   X . X ",
"X X X X X o S D B.V.#. .w. . . .w. .$. .$.#. . . . . . .C.F G X X X . X . o X X ",
"O X X X X . X H < J K L P I U Y T R r Z.N. .w.w.$. . .A.E X X X O X X X X X X X ",
"X X X X X . X X O X X X X X X . X O W S.D. .#. . . .F.Q X X . o X X X X X X X o ",
"X X X O O X O X X X X X X . X X X X , G.H. . . . .J.! X X X X X X X X X X X X X ",
"X X X X X X X X X X X X X X . X X o # K.L.P.w. .I.~ X X + X X X X X . X X O X X ",
". X . X X X X X X X X X X X X X X X X ^ U.Y.T./ ( X X X X X X . o . X X X X X O ",
"X X X X X X O X X X o X X X X X X X X X ) _ ` ' X X X X X X X o X X X X X O X X ",
"X X X O o X X . X o X X X X X X X X X o X X X X X o O X X X X X . X X X X X X X ",
"O X X X X X X X X X X X X X X O X X . X X X X . X X X X o X X . X X X X X X X X ",
"X X X O X X . X X X X X X X X . X @ X X X X o X o X O o X X X X X X o X X X X X ",
"X X X O X X X X X X X X X X X X . X X o X X X X . X . X X X X X X X X X X X X X ",
"X X O X X X O X X X X X X X X X X X X X O . X X . X X X O X X . X X X X X X X X ",
"X X X o X X X X X X X X X X O O . X X X X X X X o X X X o X X X X X X X X X X X ",
"X X X X X X X X . X X X X X X . X X X X X X X X . X X X o X X X X X X X X X X X ",
"X o X X X X X X X X X X o X X X X X X O X X X X X X X X X . o X X X X X X X X X "
};
