/* XPM */
static char *player_pos_020[] = {
/* columns rows colors chars-per-pixel */
"40 40 241 2 ",
"   c black",
".  c #050000",
"X  c #020000",
"o  c #020702",
"O  c #091A0B",
"+  c #040D06",
"@  c #000003",
"#  c #7FFF8B",
"$  c #090909",
"%  c #0A050A",
"&  c #080F08",
"*  c #030703",
"=  c #0F2810",
"-  c #061006",
";  c #071207",
":  c #000100",
">  c #030603",
",  c #030C02",
"<  c #010000",
"1  c #0F250F",
"2  c #040A07",
"3  c #09130A",
"4  c #0D2611",
"5  c #000001",
"6  c #020402",
"7  c white",
"8  c #040705",
"9  c #000002",
"0  c #09120B",
"q  c #030805",
"w  c #265B29",
"e  c #0B200D",
"r  c #44A14C",
"t  c #020502",
"y  c #0F1D11",
"u  c #020202",
"i  c #0A170A",
"p  c #5FDC64",
"a  c #132A13",
"s  c #010201",
"d  c #030804",
"f  c #010101",
"g  c #1C421C",
"h  c #061305",
"j  c #020301",
"k  c #0B1B0C",
"l  c #0E220E",
"z  c #214A21",
"x  c #070008",
"c  c #010301",
"v  c #122C14",
"b  c #050A05",
"n  c black",
"m  c black",
"M  c black",
"N  c black",
"B  c black",
"V  c black",
"C  c #090805",
"Z  c #0C170B",
"A  c #091709",
"S  c #0E2610",
"D  c #0C1F0D",
"F  c #030602",
"G  c black",
"H  c black",
"J  c #010301",
"K  c #081509",
"L  c #081609",
"P  c #0B190D",
"I  c #245327",
"U  c #2C652E",
"Y  c #204E22",
"T  c #173B19",
"R  c #0F2510",
"E  c #010100",
"W  c #030502",
"Q  c #102310",
"!  c #1C411D",
"~  c #1E4720",
"^  c #193E1B",
"/  c #183D1A",
"(  c #0D220E",
")  c black",
"_  c #020402",
"`  c #163317",
"'  c #3B893F",
"]  c #1B451D",
"[  c #173B19",
"{  c #030703",
"}  c #050B06",
"|  c #163317",
" . c #2A602C",
".. c #28632B",
"X. c #143316",
"o. c black",
"O. c #142E16",
"+. c #2F6E31",
"@. c #1A401C",
"#. c #132D14",
"$. c #224F23",
"%. c #367D39",
"&. c #1F4D21",
"*. c #050D05",
"=. c black",
"-. c #204A22",
";. c #409343",
":. c #0A1A0A",
">. c #020102",
",. c #0F2211",
"<. c #317134",
"1. c #163818",
"2. c #040805",
"3. c #050C05",
"4. c #245427",
"5. c #449D48",
"6. c #225624",
"7. c #060F06",
"8. c #102210",
"9. c #357A39",
"0. c #102912",
"q. c black",
"w. c #040A05",
"e. c #1C421E",
"r. c #1F4C22",
"t. c #193E1A",
"y. c black",
"u. c #112613",
"i. c #39823C",
"p. c #2E6A30",
"a. c #0F240F",
"s. c #0F2410",
"d. c black",
"f. c #225025",
"g. c None",
"h. c #49A84D",
"j. c #449D48",
"k. c #39843C",
"l. c #1B3D1C",
"z. c #081408",
"x. c #030602",
"c. c black",
"v. c #204A22",
"b. c #4CB050",
"n. c #46A14A",
"m. c #3E8F42",
"M. c #327435",
"N. c #1E4720",
"B. c #0A160A",
"V. c #050B05",
"C. c #0B1A0C",
"Z. c #3B883E",
"A. c #2E6A30",
"S. c #235124",
"D. c #0E2210",
"F. c black",
"G. c black",
"H. c #000201",
"J. c #285D2A",
"K. c #3A853D",
"L. c #255827",
"P. c #102911",
"I. c black",
"U. c black",
"Y. c #0D220E",
"T. c #183719",
"R. c #275B2A",
"E. c #38823C",
"W. c #439A47",
"Q. c #235726",
"!. c #020603",
"~. c black",
"^. c #0A180A",
"/. c #0F2111",
"(. c #204822",
"). c #2C662F",
"_. c #38803B",
"`. c #409343",
"'. c #215423",
"]. c #0A1C0B",
"[. c #030804",
"{. c #142D15",
"}. c #214B22",
"|. c #2D682F",
" X c #377E3A",
".X c #409243",
"XX c #285D2A",
"oX c #112C12",
"OX c #051004",
"+X c black",
"@X c #091208",
"#X c #153015",
"$X c #1D451F",
"%X c #102611",
"&X c #060E06",
"*X c black",
"=X c #4AAB4F",
"-X c #307133",
";X c #38823C",
":X c #449D48",
">X c #47A44B",
",X c #337636",
"<X c #49A84D",
"1X c #4DB151",
"2X c #3E8E41",
"3X c #439A47",
"4X c #4AAA4E",
"5X c #4DB252",
"6X c #4DB051",
"7X c #337935",
"8X c #4CAE50",
"9X c #4CAF51",
"0X c #39843C",
"qX c #419544",
"wX c #4CB050",
"eX c #4CAF50",
"rX c #4DAF50",
"tX c #4BAB4F",
"yX c #3B893E",
"uX c #2B6A2D",
"iX c #49A94D",
"pX c #4DB050",
"aX c #337A36",
"sX c #4DAE50",
"dX c #49A74D",
"fX c #3B8A3E",
"gX c #4BAD4F",
"hX c #409645",
"jX c #2B692E",
"kX c #449C48",
"lX c #4CAD50",
"zX c #4DAF51",
"xX c #48A74C",
"cX c #4CB051",
"vX c #3E9041",
"bX c #3F8F41",
"nX c #4CAD4F",
"mX c #419444",
"MX c #255727",
"NX c #275A29",
"BX c white",
/* pixels */
"                                                                                ",
"                                                                                ",
"                                                                                ",
"                                                                                ",
"                                                                                ",
"                                                                                ",
"                                                                                ",
"                                                                                ",
"                                                                                ",
"                          . X o O +                                             ",
"                        @   n m M N #     $ % & * B V = -                       ",
"                          C Z A S D F ; : > , G H J K L M                       ",
"                    <   B P I U Y T R 1 2 E W Q ! ~ ^ / ( ) :                   ",
"                      3 _ ` ' =X-X] [ { } |  .;X:X>X,X..X.o.4                   ",
"                  5 6   O.+.<X1X2X@.#.$.%.3X4X5X6X1X:X7X&.*.7 8                 ",
"                  9 0 =.-.;.8X9X4X0XqX4X8XwXeXeXeXrXtXyXuX:.>.8                 ",
"                    V ,.<.iXeXeXeXpXrX8XeXeXeX8XeXeX6X3XaX1.2.q >               ",
"                  w 3.4.5.eXsXeXeXeXeX8XeXeXeXrXeXeXeXdXfX6.7.e 6               ",
"                  r 8.9.gXeXrXeXeXeXeXeXeXeXeX9XeX8XeX8XhXjX0.q.t               ",
"                y w.e.kX8XeXeXeXeXeX9XeXeXeXeXeXeXeXeXeXqXr.t.y.                ",
"              $ V u.i.lX8XeXzX9XeXeX8XeXeXeX8XeXeXeXeXxXp.a.s.B <               ",
"              u d.f.g.6XeX9XeXeXeXeX8XrXeXrXeXcXcXh.j.k.l.z.x.                  ",
"                c.v.5.6X8XrXeXeXeXeX9XeXeX1Xb.n.m.M.N.B.V.B i                   ",
"                d.C.Z.eXeX8XeXeXeX8XeXrX4XvXA.S.D.F.G.p a s                     ",
"                  H.J.K.>X8XeXeXeXrXeX6XbXL.P.I.U.                              ",
"                  U.Y.T.R.E.W.xXnXrX6X6XmXMXQ.!.d                               ",
"                  f   ~.^./.(.)._.`.iX8XlXNX'.].B                               ",
"                        g B G [.{.}.|. X.XXXoXOXh                               ",
"                            j k V +X@X#X$X%X&XV                                 ",
"                            5 5   l z N G.*XU.x                                 ",
"                                      c v b                                     ",
"                                                                                ",
"                                                                                ",
"                                                                                ",
"                                                                                ",
"                                                                                ",
"                                                                                ",
"                                                                                ",
"                                                                                ",
"                                                                                "
};
