/* XPM */
static char *player_pos_018[] = {
/* columns rows colors chars-per-pixel */
"40 40 167 2 ",
"   c black",
".  c #000100",
"X  c #000001",
"o  c #010000",
"O  c #010100",
"+  c #010001",
"@  c black",
"#  c #020002",
"$  c black",
"%  c #000001",
"&  c black",
"*  c None",
"=  c black",
"-  c #000001",
";  c black",
":  c black",
">  c black",
",  c #000003",
"<  c black",
"1  c black",
"2  c #000100",
"3  c #010300",
"4  c #010302",
"5  c #020402",
"6  c #030703",
"7  c #050904",
"8  c #040D05",
"9  c #060F07",
"0  c #010301",
"q  c #000100",
"w  c #000100",
"e  c black",
"r  c black",
"t  c #010100",
"y  c #050D06",
"u  c black",
"i  c black",
"p  c #020602",
"a  c black",
"s  c black",
"d  c #070E07",
"f  c #000201",
"g  c black",
"h  c #060C06",
"j  c #010201",
"k  c black",
"l  c #000401",
"z  c #010101",
"x  c #020502",
"c  c #000200",
"v  c #030703",
"b  c #000002",
"n  c #040905",
"m  c black",
"M  c #040D05",
"N  c black",
"B  c #020602",
"V  c black",
"C  c #010000",
"Z  c #050905",
"A  c #030002",
"S  c #000100",
"D  c black",
"F  c #000002",
"G  c black",
"H  c #000002",
"J  c black",
"K  c black",
"L  c black",
"P  c #000001",
"I  c black",
"U  c black",
"Y  c black",
"T  c #000002",
"R  c black",
"E  c black",
"W  c black",
"Q  c #050B05",
"!  c black",
"~  c black",
"^  c #000101",
"/  c #060F06",
"(  c black",
")  c black",
"_  c black",
"`  c black",
"'  c #47A149",
"]  c #060F06",
"[  c #27642B",
"{  c #173519",
"}  c #4CAF50",
"|  c #4CAF51",
" . c #47A24A",
".. c #1B451D",
"X. c #143315",
"o. c #224F24",
"O. c #0F2610",
"+. c #235825",
"@. c #2F6B31",
"#. c #4CAE50",
"$. c #4CAE51",
"%. c #4DAF50",
"&. c #4DAE51",
"*. c #0D210E",
"=. c #255E29",
"-. c #39843D",
";. c #4DAF51",
":. c #09150B",
">. c #070F07",
",. c #429846",
"<. c #245526",
"1. c #235A26",
"2. c #48A54C",
"3. c #09150A",
"4. c #358739",
"5. c #4AAC4F",
"6. c #4DAE50",
"7. c #275A29",
"8. c #36893A",
"9. c #2D682F",
"0. c #358638",
"q. c #439946",
"w. c #317033",
"e. c #348538",
"r. c #347736",
"t. c #328136",
"y. c #377E3A",
"u. c #327F35",
"i. c #4AAB4E",
"p. c #3A853D",
"a. c #307B35",
"s. c #1A3C1B",
"d. c #3D8B41",
"f. c #2E7632",
"g. c #245326",
"h. c #2E6A30",
"j. c #327E36",
"k. c #102511",
"l. c #040D06",
"z. c #29692C",
"x. c #48A44C",
"c. c #4BAE4F",
"v. c #4BAD4E",
"b. c #4AAA4E",
"n. c #49A84D",
"m. c #48A64D",
"M. c #46A34A",
"N. c #459F48",
"B. c #439B47",
"V. c #367D39",
"C. c #050A04",
"Z. c #122D12",
"A. c #3A883F",
"S. c #225025",
"D. c #102811",
"F. c #275929",
"G. c #142D15",
"H. c #398D3D",
"J. c #122B13",
"K. c #173518",
"L. c #388D3C",
"P. c #49A74C",
"I. c #0A170B",
"U. c #3B883F",
"Y. c #2C682F",
"T. c #1A441D",
"R. c white",
/* pixels */
"        .         X     .                         o     X       o               ",
"                                                  .           X               o ",
"  o                 O           X                     o           .             ",
"                o                                           .           o       ",
"      X               o             o                     .     .               ",
"        .       .     O     o                 X                                 ",
".   o                 .             X   o           X                 X         ",
"            X                                                   o               ",
"                            .   @ # $ %     o     X                 .           ",
"      . .           .         & * ' ] [ =   o                                   ",
"  o o     o     o   X       - { } |  ...X.; X       o                 o         ",
"                        . : o.| } } } O.+.>                   o                 ",
"  o   X       o X       , @.#.$.} %.&.*.=.< o o   o               o             ",
"    X     o     X     1 -.} | #.$.;.} :.>.2 3 4 5 6 7 8 9 0 q w e     .         ",
"        X X       r t ,.%.} } #.} } } #.} #.} | } %.} | } %.<.1.y u X           ",
"                i p 2.$.} #.&.#.} } } $.;.#.} #.} #.#.} | #.| 3.4.a         .   ",
"              s d 5.| %.%.} 6.%.%.} } } #.#.| #.} } } %.&.} } 7.8.f         X X ",
"            g h #.&.#.} | %.} %.} %.} } #.6.| #.%.| } | %.%.| 9.0.j             ",
"            k q.| ;.;.| $.} 6.} } #.%.#.%.%.} %.} } 6.} %.#.#.w.e.l             ",
"    .       z } } } %.| } | $.#.| } #.} } } } } %.} | | #.| ;.r.t.x             ",
"        X   c | %.#.#.%.#.} } #.} | } } } } #.} $.} } #.} 6.} y.u.v           . ",
"            b i.&.} %.} %.} } } } } $.%.} } } } } } } #.| } #.p.a.n       .     ",
"o           m s.#.&.%.#.} } } | } } } ;.} %.#.} ;.%.#.| %.%.| d.f.M             ",
"X             N g.} $.} #.#.} } #.} | } } } } #.} ;.} ;.} } #.h.j.B       X o   ",
"              X V k.#.| 6.#.} } } } %.| } } } } } } ;.} } } | l.z.C             ",
". o O   o     .   s Z x.| } } ;.#.| ;.} c.v.v.b.n.m.M.N.B.V.C.Z.A     o         ",
"      .     X       r S A.| #.6.&.} %.S.D.D F G H J K L P I U Y               X ",
"                        T F.&.} %.%.} G.H.R   .                   X             ",
"  .       +               E J.} #.%.| K.L.W     o                   X .         ",
"                .   o       > Q P.| %.I.4.!       X X   o             o         ",
"                              ~ ^ U.Y.T./ (                                     ",
"o       X                       o ) _ ` ;     .           X                     ",
"                          +     .                                           X . ",
"                  o               . o           o X X             .     X   .   ",
"o               X     .     X                 X           o X       X     o     ",
"  X         o                           o                                       ",
"                o             o .     O   +       .                             ",
"X         X                   .   X       X X               .     X             ",
"        o         .                     . X   .             X       X   X       ",
"      o o               o .   .                   .         .             o     "
};
