/* XPM */
static char *player_pos_012[] = {
/* columns rows colors chars-per-pixel */
"40 40 235 2 ",
"   c black",
".  c #000100",
"X  c #010201",
"o  c #0C1D0E",
"O  c #0B130B",
"+  c #050A05",
"@  c #020402",
"#  c #ADFFB1",
"$  c #DDFFED",
"%  c #0D1F10",
"&  c #081009",
"*  c #010301",
"=  c #001300",
"-  c #051005",
";  c #060C09",
":  c #030A06",
">  c #000200",
",  c #92FF8F",
"<  c #0D220F",
"1  c #1A3F1B",
"2  c #010000",
"3  c #000800",
"4  c #1B341D",
"5  c #112C12",
"6  c #010401",
"7  c #081B0A",
"8  c #060F07",
"9  c #0C1B0D",
"0  c #000300",
"q  c #152E15",
"w  c #020301",
"e  c #000B00",
"r  c #1E411E",
"t  c #080E06",
"y  c #0D1609",
"u  c #54C25A",
"i  c #050803",
"p  c #040704",
"a  c #215127",
"s  c #09130A",
"d  c #0B1A0B",
"f  c #040907",
"g  c #060C06",
"h  c #010101",
"j  c #245324",
"k  c #040803",
"l  c #000001",
"z  c #388734",
"x  c #153218",
"c  c #000101",
"v  c #0B1C0B",
"b  c #19001E",
"n  c #010A01",
"m  c #030803",
"M  c #000400",
"N  c #0C1E0C",
"B  c #0B150B",
"V  c white",
"C  c #73FF88",
"Z  c #030B04",
"A  c #001100",
"S  c black",
"D  c #030804",
"F  c #0E200F",
"G  c #0C180D",
"H  c #010201",
"J  c black",
"K  c #050B05",
"L  c #132C15",
"P  c #2D6830",
"I  c #39833C",
"U  c #337235",
"Y  c #1D431F",
"T  c #173818",
"R  c #102511",
"E  c black",
"W  c black",
"Q  c black",
"!  c black",
"~  c #173618",
"^  c #3B883F",
"/  c #409344",
"(  c #337636",
")  c #245428",
"_  c #1F4922",
"`  c #102511",
"'  c #000001",
"]  c #000001",
"[  c #0A1A0C",
"{  c #275A29",
"}  c #47A44B",
"|  c #3F9243",
" . c #317134",
".. c #275A29",
"X. c #163016",
"o. c #090E07",
"O. c black",
"+. c #0B1B0C",
"@. c #347736",
"#. c #387F3A",
"$. c #122912",
"%. c black",
"&. c #09160A",
"*. c #337535",
"=. c #143316",
"-. c #091609",
";. c #143116",
":. c #3A873E",
">. c #163917",
",. c #051207",
"<. c black",
"1. c #214F24",
"2. c #419745",
"3. c #143316",
"4. c #1B451E",
"5. c #143216",
"6. c black",
"7. c black",
"8. c #255527",
"9. c None",
"0. c #214D23",
"q. c #020702",
"w. c #030602",
"e. c #285C2A",
"r. c #3A833C",
"t. c #0F200F",
"y. c #091708",
"u. c #2F6D31",
"i. c #275829",
"p. c #040704",
"a. c #112913",
"s. c #357A38",
"d. c #162F16",
"f. c #030401",
"g. c #102711",
"h. c #317134",
"j. c #367D39",
"k. c #2D6830",
"l. c #081108",
"z. c #030704",
"x. c #132F15",
"c. c #1A3F1B",
"v. c #245926",
"b. c #1A401B",
"n. c #19391A",
"m. c #459E48",
"M. c #1C3F1D",
"N. c black",
"B. c #060E06",
"V. c #143215",
"C. c #133114",
"Z. c black",
"A. c #040904",
"S. c #327335",
"D. c #255828",
"F. c #040A04",
"G. c #193B1C",
"H. c #419645",
"J. c #1E4A21",
"K. c #0D220E",
"L. c black",
"P. c black",
"I. c #2E6930",
"U. c #48A54C",
"Y. c #1E4D20",
"T. c #0E230F",
"R. c #142F16",
"E. c #3A853D",
"W. c #19401B",
"Q. c #09190A",
"!. c black",
"~. c #1D431E",
"^. c #295F2B",
"/. c #1C471E",
"(. c #0C200C",
"). c #000301",
"_. c black",
"`. c #040903",
"'. c #0B1A0A",
"]. c #173A19",
"[. c #205022",
"{. c #112A12",
"}. c #040B05",
"|. c black",
" X c #123E15",
".X c #050A05",
"XX c #0F2410",
"oX c #071509",
"OX c #010601",
"+X c #4BAD4F",
"@X c #4CAE50",
"#X c #4CAD4F",
"$X c #47A34B",
"%X c #46A14A",
"&X c #4CAF50",
"*X c #4DAF50",
"=X c #4DB051",
"-X c #4BAB4F",
";X c #4CAF51",
":X c #4CB050",
">X c #4AAA4E",
",X c #48A54B",
"<X c #4CB051",
"1X c #38823B",
"2X c #2F6E32",
"3X c #204E22",
"4X c #4DB151",
"5X c #37803B",
"6X c #4DB050",
"7X c #47A24B",
"8X c #47A24A",
"9X c #4DAF51",
"0X c #4AA94E",
"qX c #429846",
"wX c #49A84D",
"eX c #3F9142",
"rX c #3C8A3F",
"tX c #2E6B31",
"yX c #225125",
"uX c #449C48",
"iX c #4AAC4F",
"pX c #49AA4E",
"aX c #377F3B",
"sX c #4CAD50",
"dX c #459D49",
"fX c #39863D",
"gX c #2D6D2F",
"hX c #49A74C",
"jX c #419645",
"kX c #357F38",
"lX c #28652B",
"zX c #377F3A",
"xX c #38833B",
"cX c #2D6E30",
"vX c white",
/* pixels */
"                                                                                ",
"                                                                                ",
"                                                                                ",
"                                                                                ",
"                                                                                ",
"                                                                                ",
"                                                                                ",
"                                                                                ",
"                                                                                ",
"                          . . X o O +   @                                       ",
"                          # S D F G H J $ % & *                                 ",
"                      = - K L P I U Y T R E W Q ; :                             ",
"                      > ! ~ ^ +X@X#X$X/ ( ) _ ` ' ] ,                           ",
"                      < [ { %X&X*X*X&X=X+X} |  ...X.o.O.                        ",
"                      1 +.@.-X*X*X;X&X&X&X:X*X>X,X#.$.%.2                       ",
"                    3 4 &.*.@X&X&X;X&X;X*X&X&X<X=X1X=.-.5                       ",
"                    6 J ;.:.=X&X&X&X&X&X&X&X<X%X2X3X>.,.7                       ",
"                    8 <.1.2.=X&X&X&X&X&X&X&X4X5X3.4.5.6.                        ",
"                    9 7.8.9.=X&X&X&X&X&X&X&X6X7X0.q.O.. 0                       ",
"                  0 q w.e.8X=X&X&X&X&X;X*X&X@X4Xr.t.<.w                         ",
"                  e r y.u.*X9X=X9X&X&X&X&X&X;X&X-Xi.p.t y                       ",
"                    u a.s.=X0XqXwX:X&X;X&X&X&X&X;XeXd.f.i                       ",
"                      g.h.rXtXyXj.@X*X&X&X&X&X@X&X+Xk.l.O.p                     ",
"                    a z.x.c.v.b.n.m.&X&X&X&X&X@X*X4XuXM.N.s                     ",
"                      W B.V.C.Z.A.S.iX&X&X&X&X&X*X*XpXD.F.J                     ",
"                        d   W f ! G.H.@X&X&X&X&X&X>XaXJ.K.L.*                   ",
"                          g h   j P.I.U.&X&X&XsXdXfXgXY.T.  k                   ",
"                              l   6.R.E.hX&XwXjXkXlXW.Q.!.>                     ",
"                                    7.~.^.zXxXcX/.(.)._.                        ",
"                                    z `.'.].[.{.}.|.x c                         ",
"                                    v  X.XXXoXOXb n m M                         ",
"                                    N - B V C Z A A                             ",
"                                                                                ",
"                                                                                ",
"                                                                                ",
"                                                                                ",
"                                                                                ",
"                                                                                ",
"                                                                                ",
"                                                                                "
};
