/* XPM */
static char *player_pos_033[] = {
/* columns rows colors chars-per-pixel */
"40 40 246 2 ",
"   c black",
".  c #010101",
"X  c #070A07",
"o  c #010000",
"O  c #000800",
"+  c #000700",
"@  c #010601",
"#  c #75FF7C",
"$  c #359B34",
"%  c #122710",
"&  c #09120A",
"*  c #000600",
"=  c #030603",
"-  c #0D200D",
";  c #112C10",
":  c #030A03",
">  c #020802",
",  c #030703",
"<  c #010302",
"1  c #050B05",
"2  c #020502",
"3  c #133115",
"4  c #040D04",
"5  c #021700",
"6  c #020402",
"7  c #010B00",
"8  c #071809",
"9  c #000500",
"0  c #000001",
"q  c white",
"w  c #010202",
"e  c #061009",
"r  c gray1",
"t  c #0E220F",
"y  c gray3",
"u  c #061907",
"i  c #060D07",
"p  c #202020",
"a  c #102A10",
"s  c #081408",
"d  c #0D200F",
"f  c #020702",
"g  c #040504",
"h  c #44A34A",
"j  c #000C00",
"k  c #001600",
"l  c #040A04",
"z  c #173F19",
"x  c #050805",
"c  c #030402",
"v  c #000300",
"b  c #204C20",
"n  c #000400",
"m  c #215222",
"M  c #2C6B2C",
"N  c #0F2911",
"B  c #071008",
"V  c #0A1509",
"C  c #071207",
"Z  c #030B03",
"A  c #54B758",
"S  c #29612C",
"D  c #0E1E0F",
"F  c #071007",
"G  c #010201",
"H  c #010001",
"J  c #020302",
"K  c #010502",
"L  c #061408",
"P  c #020401",
"I  c black",
"U  c #0B1B0C",
"Y  c #0B180B",
"T  c #010000",
"R  c black",
"E  c #0B1C0C",
"W  c #1C451E",
"Q  c #163517",
"!  c #204720",
"~  c #235125",
"^  c #060E07",
"/  c black",
"(  c black",
")  c #081308",
"_  c #050D04",
"`  c black",
"'  c black",
"]  c #030A04",
"[  c #183D1A",
"{  c #429845",
"}  c #367B38",
"|  c #1C401D",
" . c #010302",
".. c black",
"X. c black",
"o. c #143416",
"O. c #1C461E",
"+. c #193C1B",
"@. c #1A3D1D",
"#. c #040A05",
"$. c black",
"%. c #0D200E",
"&. c #439846",
"*. c #2E6931",
"=. c #122A13",
"-. c #030703",
";. c #215424",
":. c #377F3A",
">. c #0C1D0C",
",. c #020703",
"<. c #1C481E",
"1. c #4AAA4E",
"2. c #3C8A3F",
"3. c #235225",
"4. c #235325",
"5. c None",
"6. c #224E23",
"7. c black",
"8. c black",
"9. c #102911",
"0. c #2D672F",
"q. c #0B190B",
"w. c #071409",
"e. c #225524",
"r. c #3E8E41",
"t. c #1D421F",
"y. c black",
"u. c #112912",
"i. c #1C461E",
"p. c #47A44B",
"a. c #245326",
"s. c black",
"d. c #060E06",
"f. c #122D13",
"g. c #347837",
"h. c #122913",
"j. c #010200",
"k. c #040A04",
"l. c #193A1A",
"z. c #419645",
"x. c #1C401E",
"c. c black",
"v. c #010501",
"b. c #0F2410",
"n. c #255627",
"m. c #295D2B",
"M. c #0D210F",
"N. c black",
"B. c #040703",
"V. c #142C15",
"C. c #2B642E",
"Z. c #439B47",
"A. c #39833C",
"S. c #132D14",
"D. c black",
"F. c #030B04",
"G. c #183819",
"H. c #327435",
"J. c #3D8C40",
"K. c #132F15",
"L. c black",
"P. c #173918",
"I. c #163518",
"U. c #2C672F",
"Y. c #030803",
"T. c #122B12",
"R. c #1B421C",
"E. c #39833C",
"W. c #142E16",
"Q. c black",
"!. c #0C1E0C",
"~. c #193F1B",
"^. c #46A149",
"/. c #419745",
"(. c #39843D",
"). c #316E33",
"_. c #2E6B31",
"`. c #1B3C1C",
"'. c #0F210F",
"]. c #070F08",
"[. c #0C200D",
"{. c #112912",
"}. c #2B622D",
"|. c #39833C",
" X c #347838",
".X c #2C662F",
"XX c #265628",
"oX c #224F25",
"OX c #132D15",
"+X c #040703",
"@X c #030703",
"#X c #000100",
"$X c black",
"%X c #010000",
"&X c #102311",
"*X c #17361A",
"=X c #112813",
"-X c #0A180A",
";X c black",
":X c black",
">X c black",
",X c #2E6F31",
"<X c #377F3A",
"1X c #429946",
"2X c #29652C",
"3X c #3F9142",
"4X c #4BAD50",
"5X c #4DB051",
"6X c #4CAF50",
"7X c #4AAA4E",
"8X c #265C29",
"9X c #3B893E",
"0X c #368139",
"qX c #47A14A",
"wX c #4CAE50",
"eX c #357937",
"rX c #4DB050",
"tX c #2C6C2F",
"yX c #3E8F41",
"uX c #4CAD50",
"iX c #4CB051",
"pX c #47A54B",
"aX c #3E8E41",
"sX c #48A54C",
"dX c #49A74D",
"fX c #337835",
"gX c #47A24A",
"hX c #4DAF50",
"jX c #4CAF51",
"kX c #37803A",
"lX c #347A38",
"zX c #377E39",
"xX c #49A84D",
"cX c #4DB151",
"vX c #3D8D41",
"bX c #48A64C",
"nX c #47A34B",
"mX c #4CB050",
"MX c #3D8C40",
"NX c #4DAE50",
"BX c #4BAD4F",
"VX c #285F2A",
"CX c #4CAD4F",
"ZX c #439947",
"AX c #38833C",
"SX c white",
/* pixels */
"                                                                                ",
"                                                                                ",
"                                                                                ",
"                                                                                ",
"                                                                                ",
"                                                                                ",
"                                                                                ",
"                                                                                ",
"                                                                                ",
"                          . X . o o                                             ",
"                    O + @ # $ % &                                               ",
"                    *   I U Y T R           = - ;                               ",
"                  : > R E W Q ! ~ ^ / , < 1 ( ) _ ` '                           ",
"                  2 3 ] [ ,X<X1X{ } |  ...X.o.O.+.@.#.4 5                       ",
"                  6 $.%.2X3X4X5X6X7X&.*.=.-.;.8X9X:.>.  7                       ",
"                  8 ,.<.0XqX6X6X6X6XwX1.2.3.4.eXrX5.6.7.9                       ",
"                0 8.9.tXyXuX6X6X6X6X6X6XiXpXaXsXiXdX0.q.q w                     ",
"                ' w.e.fXgXhXwX6X6X6X6X6X6XiX5XjX6XhXr.t.y.e 0                   ",
"              r ' u.i.kXwXhX6X6X6X6X6X6X6X6X6X6X6XrXp.a.s.t 0                   ",
"              y u d.f.lX6XrX6X6X6X6X6XjXjX6X6X6X6XjXwXg.h.q i                   ",
"              p 6 j.k.l.zXxXcX6X6X6X6X6X6X6X6X6X6XwXjXz.x.c.                    ",
"                a s ' v.b.n.vXwX6X6XwX6X6X6X6X6X6X6X6XbXm.M.d                   ",
"                  f 9 g N.B.V.C.Z.6XhX6X6X6X6XjXjXhXhX6XA.S.h                   ",
"                    j k l z D.F.G.H.nXmX6X6X6X6XhX6XwX6XJ.K.                    ",
"                        x c 1 L.P.I.MXcX6XNX6X6X6XhX5XBXU.Y.v                   ",
"                            b T.R.VXdXjX6X5XmXrXCXxXZXE.W.Q.n                   ",
"                            m !.~.AX5XiXbX^./.(.)._.`.'.].M n                   ",
"                          0 N [.{.}.|. X.XXXoXOX+X@X#X  B   0                   ",
"                          0   $X%X&X*X=X-X;X:X>XV C Z                           ",
"                          0     q >X  A S D F G   o                             ",
"                              H   J K L P                                       ",
"                                                                                ",
"                                                                                ",
"                                                                                ",
"                                                                                ",
"                                                                                ",
"                                                                                ",
"                                                                                ",
"                                                                                ",
"                                                                                "
};
