/* XPM */
static char *player_pos_032[] = {
/* columns rows colors chars-per-pixel */
"40 40 203 2 ",
"   c black",
".  c #060E09",
"X  c #010302",
"o  c #060D07",
"O  c #050C05",
"+  c #020702",
"@  c #020602",
"#  c #030904",
"$  c #0D200F",
"%  c #000500",
"&  c #030A03",
"*  c #0E2210",
"=  c #0A170A",
"-  c #0B1C0B",
";  c #071509",
":  c #000100",
">  c #000200",
",  c #1C401D",
"<  c #153115",
"1  c #040A04",
"2  c #3B983F",
"3  c #112911",
"4  c #071107",
"5  c #102A11",
"6  c #050F07",
"7  c #5DD964",
"8  c #020402",
"9  c #020605",
"0  c #030604",
"q  c #0A130A",
"w  c #040804",
"e  c #020902",
"r  c #0F0A0F",
"t  c #2E6430",
"y  c #000900",
"u  c #020A01",
"i  c #245D29",
"p  c #173A19",
"a  c #1A431C",
"s  c #060F08",
"d  c #143115",
"f  c #B8FFB8",
"g  c #52BA57",
"h  c #030804",
"j  c black",
"k  c #010203",
"l  c #030603",
"z  c #010501",
"x  c #102B11",
"c  c #163817",
"v  c #0B1C0B",
"b  c #040A04",
"n  c black",
"m  c #010201",
"M  c #0D210E",
"N  c #255C27",
"B  c #2B632D",
"V  c #2E6930",
"C  c #18381A",
"Z  c black",
"A  c black",
"S  c #071107",
"D  c #205022",
"F  c None",
"G  c #3D8D41",
"H  c #224E24",
"J  c black",
"K  c black",
"L  c #081308",
"P  c #071308",
"I  c #030904",
"U  c black",
"Y  c black",
"T  c #030A04",
"R  c #1A431C",
"E  c #429846",
"W  c #255427",
"Q  c #020302",
"!  c #010301",
"~  c #1C451E",
"^  c #1A431C",
"/  c #1A3E1B",
"(  c #102310",
")  c black",
"_  c #040B05",
"`  c #193F1B",
"'  c #459F49",
"]  c #255627",
"[  c #0D210E",
"{  c #255B27",
"}  c #2A602C",
"|  c #050D04",
" . c #183C19",
".. c #27622A",
"X. c #46A149",
"o. c #2E6C31",
"O. c #2A602C",
"+. c #050B06",
"@. c black",
"#. c #112D13",
"$. c #357B38",
"%. c #132B14",
"&. c black",
"*. c #050F06",
"=. c #173919",
"-. c #3D8A3F",
";. c #1A3C1C",
":. c black",
">. c black",
",. c #071309",
"<. c #224F24",
"1. c #245226",
"2. c black",
"3. c #060C05",
"4. c #1A3A1A",
"5. c #3C8A3F",
"6. c #235026",
"7. c #010101",
"8. c #020302",
"9. c #153217",
"0. c #38823C",
"q. c #316F33",
"w. c #091309",
"e. c #122912",
"r. c #327334",
"t. c #357938",
"y. c #122713",
"u. c #122D13",
"i. c #143015",
"p. c #3E8F41",
"a. c #193A1A",
"s. c #0B1C0C",
"d. c #1A411B",
"f. c #1D481F",
"g. c #3F9142",
"h. c #183819",
"j. c #09170A",
"k. c #1A421C",
"l. c #29602B",
"z. c #050B06",
"x. c #09190B",
"c. c #163517",
"v. c #337737",
"b. c #459E48",
"n. c #449D48",
"m. c #449E48",
"M. c #449C48",
"N. c #459E49",
"B. c #3F9043",
"V. c #3D8D40",
"C. c #2F6D32",
"Z. c #09160A",
"A. c black",
"S. c #030202",
"D. c #19371A",
"F. c #245427",
"G. c #214D23",
"H. c #224E23",
"J. c #235126",
"K. c #1C411F",
"L. c #183819",
"P. c #1D431F",
"I. c #163217",
"U. c #193A1A",
"Y. c #0F2310",
"T. c black",
"R. c black",
"E. c #2A632C",
"W. c #39853C",
"Q. c #459F49",
"!. c #4BAD4F",
"~. c #337B36",
"^. c #449D48",
"/. c #4CAF50",
"(. c #4BAC4F",
"). c #2F7232",
"_. c #3F9042",
"`. c #4CAD4F",
"'. c #2C672F",
"]. c #37803A",
"[. c #4AA94E",
"{. c #2D6930",
"}. c #459D48",
"|. c #4CAE50",
" X c #225324",
".X c #439C47",
"XX c #4DB051",
"oX c #4CB050",
"OX c #4AAB4E",
"+X c #49A64D",
"@X c #4DAF50",
"#X c #419745",
"$X c #4CAF51",
"%X c #48A74C",
"&X c #49A84D",
"*X c #317134",
"=X c #3B883E",
"-X c #337837",
";X c #4DB050",
":X c #4CB051",
">X c #49A74D",
",X c #439B47",
"<X c white",
/* pixels */
"                                                                                ",
"                                                                                ",
"                                                                                ",
"                                                                                ",
"                                                                                ",
"                                                                                ",
"                                                                                ",
"                                                                                ",
"                                                                                ",
"                          . X o O                                               ",
"                        + @ j k l                                               ",
"                        # z x c v b n $                                         ",
"                    % & m M N E.B V C Z *     = - ;                             ",
"                  : > A S D W.Q.!.F G H J , K L P I U : <                       ",
"                    Y T R ~.^./././.(.E W Q ! ~ ^ / ( ) 1                       ",
"                  2 _ ` )._.`./././././.' ] [ { '._.} | 3                       ",
"                4 )  ...].[./././././././.X.o.{.}.|.O.+.5                       ",
"                6 @.#. X.XXX/././.|./././.oXOX+X@XXX$.%.7                       ",
"                  &.*.=.#XXX/.|./././././././.$X$XXX-.;.:.                      ",
"                    >.,.<.#XoX/./././././.@X/././.@X^.1.Y                       ",
"                  >   2.3.4.5.@X/././././.|././././.%X6.7.8                     ",
"                    9 0 :.8.9.0.|./.|./././.@X@X/./.(.q.w.q                     ",
"                      w e r J e.r.&X/./././././././.`.t.y.t                     ",
"                        y u i u.i.*X|././././.$X/././.p.a.&.                    ",
"                          p s.d.f.=X/./.|./././.@X|./.g.h.&.                    ",
"                          a j.k.-X/.XX$X/./.;X/.XX:X>Xl.z.s                     ",
"                          d x.c.v.%X,Xb.n.m.M.N.B.V.C.Z.A.                      ",
"                            @.S.D.F.G.H.J.K.L.P.I.U.Y.A.X                       ",
"                          f   :.@.T.T.R.K ) K :.:.&.g h                         ",
"                                              :                                 ",
"                                                                                ",
"                                                                                ",
"                                                                                ",
"                                                                                ",
"                                                                                ",
"                                                                                ",
"                                                                                ",
"                                                                                ",
"                                                                                ",
"                                                                                "
};
