/* XPM */
static char *player_pos_036[] = {
/* columns rows colors chars-per-pixel */
"40 40 169 2 ",
"   c #000101",
".  c #000001",
"X  c black",
"o  c #000100",
"O  c #010000",
"+  c #010100",
"@  c #010001",
"#  c black",
"$  c #010000",
"%  c #000101",
"&  c black",
"*  c black",
"=  c #070F06",
"-  c #000100",
";  c black",
":  c black",
">  c #050B05",
",  c black",
"<  c #010000",
"1  c black",
"2  c black",
"3  c #000003",
"4  c black",
"5  c black",
"6  c black",
"7  c #000100",
"8  c black",
"9  c black",
"0  c black",
"q  c #020004",
"w  c black",
"e  c black",
"r  c #000100",
"t  c #000100",
"y  c black",
"u  c #020002",
"i  c #040905",
"p  c black",
"a  c black",
"s  c black",
"d  c #020702",
"f  c black",
"g  c #050D05",
"h  c black",
"j  c #050905",
"k  c black",
"l  c #030702",
"z  c #000300",
"x  c #020502",
"c  c #010101",
"v  c #010401",
"b  c black",
"n  c #010301",
"m  c #060D06",
"M  c black",
"N  c #000201",
"B  c #070F07",
"V  c #000002",
"C  c #020602",
"Z  c black",
"A  c black",
"S  c #050D06",
"D  c #000101",
"F  c black",
"G  c black",
"H  c #000100",
"J  c #010201",
"K  c #060F07",
"L  c #050D05",
"P  c #050905",
"I  c #030703",
"U  c #020502",
"Y  c #000303",
"T  c #010300",
"R  c black",
"E  c black",
"W  c #000003",
"Q  c black",
"!  c black",
"~  c black",
"^  c None",
"/  c black",
"(  c black",
")  c #010100",
"_  c #030002",
"`  c black",
"'  c #1B441D",
"]  c #2C682F",
"[  c #3B883F",
"{  c #358739",
"}  c #0A170B",
"|  c #4CAF50",
" . c #4DAF50",
".. c #49A64C",
"X. c #388D3D",
"o. c #173419",
"O. c #4CAF51",
"+. c #4CAE50",
"@. c #4CAE51",
"#. c #122B13",
"$. c #388C3C",
"%. c #142D15",
"&. c #4DAE51",
"*. c #275929",
"=. c #112811",
"-. c #235025",
";. c #4DAF51",
":. c #3A883F",
">. c #122C12",
",. c #050A04",
"<. c #367D39",
"1. c #439B47",
"2. c #459F49",
"3. c #47A34A",
"4. c #48A64C",
"5. c #48A84D",
"6. c #4AAA4E",
"7. c #4AAC4E",
"8. c #4BAC4E",
"9. c #4BAF4F",
"0. c #49A54C",
"q. c #29692C",
"w. c #040D06",
"e. c #4DAE50",
"r. c #102511",
"t. c #327E36",
"y. c #2F6A30",
"u. c #245326",
"i. c #2F7632",
"p. c #3D8B40",
"a. c #1A3C1A",
"s. c #307B34",
"d. c #3A853D",
"f. c #4AAB4E",
"g. c #327E35",
"h. c #377E3A",
"j. c #328136",
"k. c #347736",
"l. c #348538",
"z. c #307032",
"x. c #429946",
"c. c #358638",
"v. c #2D682F",
"b. c #36893A",
"n. c #275B28",
"m. c #4AAD4E",
"M. c #358738",
"N. c #09140A",
"B. c #49A54D",
"V. c #235B27",
"C. c #245526",
"Z. c #429846",
"A. c #060E07",
"S. c #08150A",
"D. c #39853D",
"F. c #255F29",
"G. c #0D210E",
"H. c #2E6B31",
"J. c #235825",
"K. c #0F2610",
"L. c #224F24",
"P. c #143315",
"I. c #1B451D",
"U. c #46A24A",
"Y. c #173519",
"T. c #27642A",
"R. c #070F06",
"E. c #46A149",
"W. c white",
/* pixels */
"  . X X X X X X X X X X X X X X X X X X X X X X X X X . X X X X X X X o X X X X ",
"o X X X X o X X X X X . X X X X X X X X X X X X X X X X X . X o X X X X X X X . ",
"X . X X o X X . o X O X X X X X X X . X X X o X X X   X O X X X O O X X X X X X ",
"X X X X X o X X X X X X X X X X X X X X X X X X X X X X X X X X X o X X X X X . ",
"X X X X X X X X X O X O O X X X . X X . X X X X o X X X X X o O X X X X O X X X ",
"X X X X X X X X X X X X X O X X O X O X X X X X O X o X X X X X X X X X . X X X ",
"X X X X X X X X X X o X X X X X o X X X X X X X X O O X X X X X X X . X X X X X ",
"X X X X X X X X X X X X X X X X X X X X X X o X O X X X X . X X X X X X + X X X ",
"X X X o X X X o o X X X X X X X X X X # $ % & o X X X X X X X o X X X o X X X . ",
"X X X o X X X X X X X X X X X X X X * = ' ] [ - ; X X X X X X X X X O X X X X X ",
". X X X X X X X O X X X X X X X X X : { } |  ...> , X X X X X X X o X X X X X X ",
". X o X X o X X O X X X O X X X X X < X.o.| O.+.@.#.1 X X O X X X X X X X X X X ",
"X X X X X o X o X X X X X . X X X X 2 $.%.|  . .| &.*.3 X O X X X X X X o X . X ",
"X X X X X X X X 4 5 6 7 8 9 0 q w e r =.-.;.| ;. .+.| :.t y X X X X X o X X X X ",
"X X X X . . X u >.,.<.1.2.3.4.5.6.7.8.9. .&.+.|  . .| | 0.i p X X X o X o O X X ",
"X X X X X X a q.w.e. .| O.O.| O.O. .|  .|  .| O.| ;.O.| &.+.r.s X O o X X X X O ",
"X X o X X X d t.y.+.+.|  .| | | |  .| | | @. .+.e.| +.+.O.+.| u.f X . X X X X X ",
"O X X X X . g i.p.O. .| +.+.| ;.| +.O.| &.| O.| | O.| | | | &.| a.h X X X X X . ",
"X X X O X X j s.d.+.+.|  .| | O.+.O.+.|  .O.+.+.e.O.|  .+. . .| f.k X X X X X X ",
"X X o X X X l g.h.@. .| | O.;.;.| | O.| ;.@.| | +.| O.O.| @.+.| | z X X X X X X ",
". . X X X X x j.k.;.| +.| O.| e.| | @.| &.+.+.| | O.O.;.O. .| | | c . O X X X . ",
". X O . . X v l.z.| +.| | | +.| +. .|  .|  .e.| |  .O.| | e. .| x.b X . O . . X ",
"X X X X X X n c.v.O. . .| +.O.&.| O.+.| | | | +. .+.| O.| +.;.+.m M X X X O O X ",
"X X X X X X N b.n.| | | ;.+.O.| O.O.+.@. .| | | e.+.|  . .@.m.B p X X X X X X X ",
"X X X O X X V M.N.O.|  .| +.+. .+.| +. .| | +.| | ;.+.| O.B.C Z X X X X X X X X ",
"X X X X X X A S V.C.;.e.O.| | @.O.| +.| +.+.| +. .| | | Z.D y o . X X X X X X X ",
"X X X X O X . F G H J K L P I U Y T r A.S.| O.O.+.| | D.R X X X X X X X X X X X ",
"X X X X X X X X X O X o X X X X X X E F.G.|  .|  . .H.W X . . . X X X X X . X X ",
"X X X X X X X X X X . X X X X X X X , J.K.| |  .| L.Q X X X X X X X X X . X X X ",
"O X X X X X o X X X . X X O X X X X # P.I.U.O.| Y.! X X X X X X . O X . X X X X ",
"o X X X X X X X X X O X X . X X X o o ~ T.R.E.^ / X X X @ X X X X X X X . X X X ",
"X . X X X X X . X . X X X X X X X X X X ( ) _ ` X X X X X . X X X X X X X X X   ",
"X X X o X X X . X X X X X X X X X X X X X X X X X X o X X X X o o X X X X X X X ",
"X X X X X X X X X X X X X X X X X X X X X X X X o X X X X X X X O X X X X o X X ",
"O X X X . X X X X X X X X X   X X X X . X X X . X X X X X X X X X X X X X X X X ",
"X o . X X X X X X X X X X X X X X X X X X o X X . . X X X X . X X X X X X X X . ",
"X X X . X X X X X X X X X X O X X X X X X X . X X O X . X X X X X X X X O O X X ",
"X X X X X X X . X X X X X X X X X X X . X X . X X X X X X X X X X X X X X X X X ",
"X X . X X X X X X O . X X o X X X X X X X . X X X O X X X X X o X X X X X X X X ",
"X X X o X X X X . X X X X X X X X X   X X X X X X . X X X X X X o X X X . X X X "
};
