/* XPM */
static char *player_pos_002[] = {
/* columns rows colors chars-per-pixel */
"40 40 239 2 ",
"   c black",
".  c #002B00",
"X  c #214A21",
"o  c #0F230F",
"O  c #020402",
"+  c #121D11",
"@  c #0E2314",
"#  c #030602",
"$  c #040E04",
"%  c #234F29",
"&  c #0D1E0D",
"*  c #18401A",
"=  c #204E1E",
"-  c #010701",
";  c #0D270D",
":  c #071408",
">  c #113312",
",  c #0C1F0F",
"<  c #337635",
"1  c #1E471E",
"2  c #060E06",
"3  c #0F250F",
"4  c #1E4920",
"5  c #090909",
"6  c #020202",
"7  c #081108",
"8  c #000001",
"9  c #030603",
"0  c #113111",
"q  c white",
"w  c #040704",
"e  c #040904",
"r  c #030804",
"t  c #2B5A34",
"y  c #040804",
"u  c #010101",
"i  c #020302",
"p  c #162D15",
"a  c #030703",
"s  c #0E250E",
"d  c #030A04",
"f  c #060D06",
"g  c #090808",
"h  c #090908",
"j  c #17411B",
"k  c #000100",
"l  c #020703",
"z  c #091C0C",
"x  c #060B04",
"c  c #030000",
"v  c #050000",
"b  c #040000",
"n  c black",
"m  c black",
"M  c #020602",
"N  c #060F07",
"B  c #153217",
"V  c #0C1D0C",
"C  c #050B05",
"Z  c black",
"A  c #000400",
"S  c #0D210E",
"D  c #1E4820",
"F  c #39833C",
"G  c #327435",
"H  c #265727",
"J  c #1B3F1C",
"K  c #112612",
"L  c black",
"P  c #061107",
"I  c #1A431C",
"U  c #3C8A3F",
"Y  c #327235",
"T  c #255729",
"R  c #1C411E",
"E  c #0B170D",
"W  c #060D05",
"Q  c black",
"!  c black",
"~  c #205022",
"^  c #3D8D41",
"/  c #347938",
"(  c #235125",
")  c #163418",
"_  c #081308",
"`  c #030E03",
"'  c black",
"]  c #102811",
"[  c #204E22",
"{  c #377E39",
"}  c #275B29",
"|  c #060F07",
" . c black",
".. c black",
"X. c #000201",
"o. c #163116",
"O. c #1F4720",
"+. c #317434",
"@. c #419645",
"#. c #0F2310",
"$. c black",
"%. c black",
"&. c #112611",
"*. c #265828",
"=. c #327435",
"-. c #3F9042",
";. c #49A84D",
":. c #245226",
">. c #010201",
",. c #040A04",
"<. c #122812",
"1. c #2E6B31",
"2. c #3C8C40",
"3. c #459F49",
"4. c #2B642E",
"5. c #030603",
"6. c #0B1C0C",
"7. c #0C1E0C",
"8. c #204A21",
"9. c #429946",
"0. c #459C48",
"q. c #1C3F1E",
"w. c #070607",
"e. c #153517",
"r. c #183C1A",
"t. c #2A612D",
"y. c #0C1A0C",
"u. c black",
"i. c #0F2510",
"p. c #255C28",
"a. c #3F9143",
"s. c #1A3A1B",
"d. c #040B04",
"f. c #1D491E",
"g. c #317034",
"h. c #102611",
"j. c #000102",
"k. c #133215",
"l. c #3C8A40",
"z. c #1B3F1E",
"x. c black",
"c. c #020002",
"v. c #081508",
"b. c None",
"n. c #2A622D",
"m. c #070D09",
"M. c #020502",
"N. c #1B461D",
"B. c #439947",
"V. c #317033",
"C. c #1E4721",
"Z. c #1A3E1C",
"A. c #3A873D",
"S. c #1D431F",
"D. c #010000",
"F. c #0E2510",
"G. c #38813B",
"H. c #245125",
"J. c #0F2310",
"K. c #091409",
"L. c #0E2610",
"P. c #1A421C",
"I. c #214E24",
"U. c #09150A",
"Y. c black",
"T. c #071408",
"R. c #1E4B1F",
"E. c #1B431D",
"W. c #285C2A",
"Q. c #193A1A",
"!. c #091409",
"~. c #050A05",
"^. c black",
"/. c #091709",
"(. c #193F1B",
"). c #1F4C21",
"_. c #2D6830",
"`. c #132C15",
"'. c #020402",
"]. c #0B1B0A",
"[. c #0D200D",
"{. c #071107",
"}. c #000100",
"|. c #050904",
" X c #0D010B",
".X c #020502",
"XX c #0D220E",
"oX c #123014",
"OX c #102610",
"+X c #112411",
"@X c #122411",
"#X c black",
"$X c #020904",
"%X c black",
"&X c black",
"*X c #225124",
"=X c #47A44B",
"-X c #4BAD4F",
";X c #48A54B",
":X c #245626",
">X c #3E8D41",
",X c #4DAF50",
"<X c #4DAF51",
"1X c #4DB051",
"2X c #4AAB4E",
"3X c #46A14A",
"4X c #377D39",
"5X c #4CAE50",
"6X c #4CAF50",
"7X c #4CB051",
"8X c #4BAC4F",
"9X c #449D48",
"0X c #4CB050",
"qX c #4CAF51",
"wX c #49A84D",
"eX c #49A74D",
"rX c #4DAE50",
"tX c #38803A",
"yX c #4AA94E",
"uX c #3D8D40",
"iX c #4BAD50",
"pX c #39863C",
"aX c #48A64D",
"sX c #2F7332",
"dX c #419646",
"fX c #4DB151",
"gX c #266029",
"hX c #39853C",
"jX c #3F9243",
"kX c #327834",
"lX c #429845",
"zX c #4AAA4E",
"xX c #3A873E",
"cX c #2A6A2D",
"vX c #317234",
"bX c #29632C",
"nX c #285D2A",
"mX c #337836",
"MX c white",
/* pixels */
"                                                                                ",
"                                                                                ",
"                                                                                ",
"                                                                                ",
"                                                                                ",
"                                                                                ",
"                                                                                ",
"                                                                                ",
"                                                                                ",
"                            .     n m   X o O                                   ",
"                              + M N B V C Z   @ #                               ",
"                            $ A S D F G H J K L m % &                           ",
"                            * P I *X=X-X;XU Y T R E W Q = - ;                   ",
"                            : ! ~ :X>X,X<X1X2X3X^ / ( ) _ ` >                   ",
"                            , ' ] [ 4X5X6X6X,X7X6X8X9X{ } | <                   ",
"                         ...X.o.O.+.3X6X6X6X6X5X6X6X0X-X@.#.$.                  ",
"              1 2 3 Z %.&.*.=.-.;.0X6X,XqX6X5X6X6XqX5X6XwX:.>.                  ",
"                n ,.<.1.2.3.-X7X6X6X6X6X6X6X6X6X6X,X6X,XeX4.5.                  ",
"              4 6.7.8.9.-X6X6X6X6X6X6X6X5X6X6XqXqX6X6XrX0.q.w.5                 ",
"               .e.r.tX5X,X6X6X6X6X6X6X6X5X6X6X6X6X6X6XyXt.y.n 6                 ",
"            O u.i.p.uXiX6X5X6XqX6X5X6X,X6X,X6X6X6X6X0Xa.s.Z 7 8                 ",
"            9 0 d.f.pXaX6X6X6XqX6X6X6X6X6X,X6X6X,XqXyXg.h.q w                   ",
"            e r j.k.sXdXqX5X6X6X,X5XqX5X,XfX6X6X6X5Xl.z.x.r                     ",
"              w c.v.gXhXyXqX6X6X6X6X6X1XeXjXyXqX6Xb.n.m.t                       ",
"              w O M.N.kXlX1X6X7X6XzXB.V.C.Z.xXqX5XA.S.Z y                       ",
"                u D.F.cXvXzXzX9XG.H.J.K.L.P.bX-X3XI.U.                          ",
"                  Y.T.R.E.nXW.Q.!.~.^. ./.(.).mX_.`.Q                           ",
"                    '.].[.{.}.|. Xw i   .XXXoXOX+X@Xp                           ",
"                    a s m #Xd f g h     j Q $X%X&XY.                            ",
"                        k k               l z x c v b                           ",
"                                                                                ",
"                                                                                ",
"                                                                                ",
"                                                                                ",
"                                                                                ",
"                                                                                ",
"                                                                                ",
"                                                                                ",
"                                                                                ",
"                                                                                "
};
