/* XPM */
static char *player_pos_025[] = {
/* columns rows colors chars-per-pixel */
"40 40 118 2 ",
"   c None",
".  c #091508",
"X  c #0D1E0D",
"o  c #0E230E",
"O  c #0E230F",
"+  c #0E2610",
"@  c #0F2611",
"#  c #102411",
"$  c #112913",
"%  c #122E14",
"&  c #132E14",
"*  c #152C15",
"=  c #133214",
"-  c #133215",
";  c #153316",
":  c #153317",
">  c #153417",
",  c #173518",
"<  c #173818",
"1  c #183819",
"2  c #193F1B",
"3  c #1B3F1D",
"4  c #1B441D",
"5  c #1D441E",
"6  c #1E441F",
"7  c #1E451F",
"8  c #1C471F",
"9  c #1D481E",
"0  c #1E4B1F",
"q  c #1E4620",
"w  c #204B22",
"e  c #204B23",
"r  c #214D23",
"t  c #204E22",
"y  c #225024",
"u  c #235125",
"i  c #255627",
"p  c #235926",
"a  c #255628",
"s  c #275A28",
"d  c #265D29",
"f  c #265F29",
"g  c #285B2A",
"h  c #285C2A",
"j  c #266029",
"k  c #2B632D",
"l  c #29652C",
"z  c #2B652E",
"x  c #2C652E",
"c  c #2D662F",
"v  c #2D672F",
"b  c #2D6B31",
"n  c #2E6A30",
"m  c #2F6C32",
"M  c #2F6D32",
"N  c #2E7231",
"B  c #317033",
"V  c #317234",
"C  c #327235",
"Z  c #327335",
"A  c #337636",
"S  c #347737",
"D  c #337B37",
"F  c #347937",
"G  c #377E39",
"H  c #377F3A",
"J  c #36803A",
"K  c #37803A",
"L  c #38823B",
"P  c #38833C",
"I  c #39853D",
"U  c #3B883E",
"Y  c #3B893E",
"T  c #3B893F",
"R  c #3C8A40",
"E  c #3C8C40",
"W  c #3D8D40",
"Q  c #3F8F42",
"!  c #3F9243",
"~  c #409343",
"^  c #409444",
"/  c #419645",
"(  c #439A47",
")  c #439B47",
"_  c #449C48",
"`  c #449D48",
"'  c #459E48",
"]  c #459E49",
"[  c #459F49",
"{  c #46A04A",
"}  c #46A24A",
"|  c #47A24B",
" . c #47A34B",
".. c #48A74C",
"X. c #49A74C",
"o. c #49A84D",
"O. c #49A94D",
"+. c #4AA94D",
"@. c #4AAA4E",
"#. c #4BAA4E",
"$. c #4AAB4F",
"%. c #4BAB4F",
"&. c #4CAB4F",
"*. c #4BAC4F",
"=. c #4BAD4F",
"-. c #4CAD4F",
";. c #4CAE4F",
":. c #4CAE50",
">. c #4DAE50",
",. c #4CAF50",
"<. c #4DAF50",
"1. c #4CAE51",
"2. c #4CAF51",
"3. c #4DAF51",
"4. c #4CB050",
"5. c #4CB051",
"6. c #4DB051",
"7. c #4DB151",
/* pixels */
"                                                                                ",
"                                                                                ",
"                                                                                ",
"                                                                                ",
"                                                                                ",
"                                                                                ",
"                                                                                ",
"                                                                                ",
"                                        @                                       ",
"                                    > 7 j 0 = .                                 ",
"                                  O b P K D N f 4 @                             ",
"                                  h ..,.%.{ / W K l 2                           ",
"                                X L 7.,.,.,.,.*.{ V &                           ",
"                                7 [ 7.,.,.,.,.,.7.[ 7                           ",
"                                k 7.,.,.,.,.,.,.,.{ l                           ",
"                              $ U 7.,.,.,.,.,.,.,.[                             ",
"                        = 0   7 ..7.,.,.,.,.,.,.*.W                             ",
"                      < t 2 : m 7.,.,.,.,.,.,.,.%.l                             ",
"                    * F { U v ) ,.,.,.,.,.,.,.,.[                               ",
"                      G ,.,.,.,.,.,.,.,.,.,.,.,.A                               ",
"                      v %.,.,.,.,.,.,.,.,.,.,.%.y O                             ",
"                      t ~ 7.,.,.,.,.,.,.,.,.7.[ s f p                           ",
"                        S %.,.,.,.,.,.,.,.,.,.&.W b w &                         ",
"                        a { ,.,.,.,.,.,.,.,.,.,.,.*.I :                         ",
"                          R ,.,.,.,.,.,.,.,.,.,.-.) v                           ",
"                          V %.,.,.,.,.,.,.,.-.[ G ,                             ",
"                          1 / ,.,.,.,.,.7.%.U g                                 ",
"                            m %.,.,.,.*./ V 3                                   ",
"                            w ! %.%.{ A q                                       ",
"                              # y B i                                           ",
"                                                                                ",
"                                                                                ",
"                                                                                ",
"                                                                                ",
"                                                                                ",
"                                                                                ",
"                                                                                ",
"                                                                                ",
"                                                                                ",
"                                                                                "
};
