/* XPM */
static char *player_pos_035[] = {
/* columns rows colors chars-per-pixel */
"40 40 145 2 ",
"   c None",
".  c #060F06",
"X  c #0A190A",
"o  c #0B1B0C",
"O  c #0E210F",
"+  c #0D220E",
"@  c #0E220F",
"#  c #0F230F",
"$  c #0F2610",
"%  c #102611",
"&  c #102811",
"*  c #112A11",
"=  c #122913",
"-  c #112B13",
";  c #132C14",
":  c #142E14",
">  c #163417",
",  c #153616",
"<  c #173617",
"1  c #163418",
"2  c #173518",
"3  c #173619",
"4  c #173918",
"5  c #173A19",
"6  c #193B1B",
"7  c #183D1A",
"8  c #193A1C",
"9  c #1A3C1C",
"0  c #19411A",
"q  c #19411B",
"w  c #1A411B",
"e  c #1A431C",
"r  c #1B451E",
"t  c #1C441E",
"y  c #1D441F",
"u  c #1C461E",
"i  c #1F4721",
"p  c #1F4820",
"a  c #1F4921",
"s  c #1F4E21",
"d  c #204A21",
"f  c #204A22",
"g  c #224C23",
"h  c #214F23",
"j  c #224F24",
"k  c #234F25",
"l  c #205022",
"z  c #235025",
"x  c #215324",
"c  c #225225",
"v  c #235126",
"b  c #245326",
"n  c #245427",
"m  c #275428",
"M  c #265628",
"N  c #265B29",
"B  c #275B2A",
"V  c #265C28",
"C  c #275E29",
"Z  c #2A602C",
"A  c #2B672E",
"S  c #2C642E",
"D  c #2C662F",
"F  c #2E682F",
"G  c #2C6A2E",
"H  c #2E6B30",
"J  c #2E6B31",
"K  c #2F6B31",
"L  c #2D6C31",
"P  c #2F6C32",
"I  c #2F6D32",
"U  c #306D32",
"Y  c #306F32",
"T  c #307633",
"R  c #317235",
"E  c #327234",
"W  c #327334",
"Q  c #337536",
"!  c #347737",
"~  c #337D36",
"^  c #347C36",
"/  c #367C39",
"(  c #377E39",
")  c #367F39",
"_  c #367D3A",
"`  c #38813B",
"'  c #39833C",
"]  c #3A853D",
"[  c #3A863E",
"{  c #3D8D40",
"}  c #3D8C41",
"|  c #3D8E41",
" . c #3E9041",
".. c #3F9243",
"X. c #3F9343",
"o. c #409343",
"O. c #409444",
"+. c #419544",
"@. c #419644",
"#. c #429645",
"$. c #429745",
"%. c #419846",
"&. c #429846",
"*. c #439946",
"=. c #439A47",
"-. c #449C47",
";. c #449C49",
":. c #449E48",
">. c #469F49",
",. c #459F4A",
"<. c #46A049",
"1. c #46A14A",
"2. c #46A24A",
"3. c #46A24B",
"4. c #47A44B",
"5. c #48A54B",
"6. c #49A64C",
"7. c #48A74D",
"8. c #49A84D",
"9. c #4AA94E",
"0. c #4AAA4E",
"q. c #4AAB4E",
"w. c #4BAB4F",
"e. c #4BAD4E",
"r. c #4BAC4F",
"t. c #4BAD4F",
"y. c #4BAE4F",
"u. c #4CAE4F",
"i. c #4BAE50",
"p. c #4CAE50",
"a. c #4DAE50",
"s. c #4CAF50",
"d. c #4DAF50",
"f. c #4CAE51",
"g. c #4DAE51",
"h. c #4CAF51",
"j. c #4DAF51",
"k. c #4CB051",
"l. c #4DB051",
"z. c #4DB151",
"x. c #4EB151",
"c. c #4DB052",
"v. c #4DB152",
"b. c #4DB252",
"n. c #4EB252",
/* pixels */
"                                                                                ",
"                                                                                ",
"                                                                                ",
"                                                                                ",
"                                                                                ",
"                                                                                ",
"                                                                                ",
"                                                                                ",
"                                                                                ",
"                                                                                ",
"                                          o - 1                                 ",
"                                        7 r N ) i                               ",
"                                        l C ` 9.) :                             ",
"                    O O b P m         . x N @.k.r.R <                           ",
"                  e t K -.4.4.<.%.[ Y d p P 6.s.s.9.Q                           ",
"                X s ) <.k.s.s.s.i.i.r.u.r.9.s.s.s.s.<.R                         ",
"                O C  .9.s.s.s.s.s.s.s.s.s.s.s.s.s.s.s.;.Z                       ",
"                $ F  .9.s.s.s.s.s.s.s.s.s.s.s.s.s.s.s.s.o.k                     ",
"                - T @.s.s.s.s.s.s.s.s.s.s.s.s.s.s.s.s.s.s.} x                   ",
"                < ~ @.k.s.s.s.s.s.s.s.s.s.s.s.s.s.s.s.s.s.s.)                   ",
"                t ^ %.k.s.s.s.s.s.s.s.s.s.s.s.s.s.s.s.s.s.s.<.x                 ",
"                l P %.k.s.s.s.s.s.s.s.s.s.s.s.s.s.s.s.s.s.s.6.6                 ",
"                4 x  .k.k.k.s.s.s.s.s.s.s.s.s.s.s.s.s.s.s.k.@.1                 ",
"                  - d ! } ;.r.k.k.k.s.s.s.s.s.s.s.s.s.s.k.@.F                   ",
"                      - 1 9 t m Y ' %.9.s.s.s.s.s.s.s.9.[ g                     ",
"                                  % < k 9.s.s.s.s.r.;.K ;                       ",
"                                    w g 9.s.s.r.4.[ n                           ",
"                                    w K 9.s.5.} D 8                             ",
"                                    w A ;.@.R p                                 ",
"                                    4 O D x                                     ",
"                                                                                ",
"                                                                                ",
"                                                                                ",
"                                                                                ",
"                                                                                ",
"                                                                                ",
"                                                                                ",
"                                                                                ",
"                                                                                ",
"                                                                                "
};
