/* XPM */
static char *player_pos_034[] = {
/* columns rows colors chars-per-pixel */
"40 40 250 2 ",
"   c black",
".  c #061006",
"X  c #09170B",
"o  c #040804",
"O  c #030703",
"+  c #091509",
"@  c #0B1C0B",
"#  c #123011",
"$  c #010200",
"%  c #050002",
"&  c #091209",
"*  c #0B190B",
"=  c #010000",
"-  c #050B05",
";  c white",
":  c #040404",
">  c #030805",
",  c #000403",
"<  c #07130C",
"1  c #000300",
"2  c #030503",
"3  c #000100",
"4  c #0C1F10",
"5  c #000200",
"6  c #030602",
"7  c #7CFC66",
"8  c #010908",
"9  c #0A190C",
"0  c #000F00",
"q  c #3F7F4A",
"w  c #071207",
"e  c #050306",
"r  c #020503",
"t  c #001A00",
"y  c #09160A",
"u  c #183215",
"i  c #000400",
"p  c #101A09",
"a  c #060803",
"s  c #28672B",
"d  c #050000",
"f  c #030804",
"g  c #B7FFAD",
"h  c #0D250E",
"j  c #081A0A",
"k  c #3B7C3F",
"l  c #050806",
"z  c #040703",
"x  c #000002",
"c  c #245F24",
"v  c #1C4425",
"b  c #020702",
"n  c #000001",
"m  c #255929",
"M  c #030603",
"N  c #020502",
"B  c #1D3C1E",
"V  c #0E2210",
"C  c #060E06",
"Z  c #040904",
"A  c black",
"S  c black",
"D  c black",
"F  c black",
"G  c black",
"H  c #030402",
"J  c #081308",
"K  c #010500",
"L  c black",
"P  c #010301",
"I  c #102911",
"U  c #0E2510",
"Y  c #0E210F",
"T  c #0D1E0E",
"R  c #102712",
"E  c #071208",
"W  c #153517",
"Q  c #102710",
"!  c #183819",
"~  c #235226",
"^  c #1A3D1B",
"/  c black",
"(  c black",
")  c black",
"_  c #010402",
"`  c #215323",
"'  c None",
"]  c #337636",
"[  c #295E2B",
"{  c #0E1F0E",
"}  c #040804",
"|  c #0D220E",
" . c #265E28",
".. c #429946",
"X. c #3F9242",
"o. c #357A37",
"O. c #235125",
"+. c #081309",
"@. c #010301",
"#. c #0D200E",
"$. c #28612A",
"%. c #3F9142",
"&. c #122A13",
"*. c #040A05",
"=. c #183D1A",
"-. c #4AAA4E",
";. c #46A14A",
":. c #3E8F42",
">. c #2A5F2C",
",. c #193B1A",
"<. c #235225",
"1. c #317033",
"2. c #132D15",
"3. c #010001",
"4. c #071007",
"5. c #245A26",
"6. c #439946",
"7. c #255426",
"8. c #010304",
"9. c black",
"0. c #112C12",
"q. c #377E3A",
"w. c #163318",
"e. c black",
"r. c black",
"t. c #1B461D",
"y. c #2E6A32",
"u. c #0D1F10",
"i. c black",
"p. c #0B1E0D",
"a. c #255D28",
"s. c #3D8D41",
"d. c #1C411E",
"f. c black",
"g. c black",
"h. c #153818",
"j. c #205022",
"k. c #2D6830",
"l. c #142D14",
"z. c black",
"x. c #0F2911",
"c. c #163718",
"v. c #449D48",
"b. c #225024",
"n. c #081308",
"m. c #020602",
"M. c #071208",
"N. c #142F15",
"B. c #327234",
"V. c #306E32",
"C. c #040A05",
"Z. c black",
"A. c #020702",
"S. c #081509",
"D. c #132B13",
"F. c #265828",
"G. c #285B2A",
"H. c #010301",
"J. c #050602",
"K. c #030602",
"L. c #081108",
"P. c #1A3C1C",
"I. c #295F2B",
"U. c #39823C",
"Y. c #439B47",
"T. c #142C15",
"R. c black",
"E. c black",
"W. c black",
"Q. c #0B1B0B",
"!. c #163618",
"~. c #377D39",
"^. c #285C2A",
"/. c #081008",
"(. c #1E4C20",
"). c #183C1A",
"_. c #439847",
"`. c #3A843D",
"'. c #1F4921",
"]. c #122812",
"[. c #0B1C0C",
"{. c #000200",
"}. c #000803",
"|. c #153616",
" X c #3B873E",
".X c #2E6B31",
"XX c #224C23",
"oX c #0F200E",
"OX c #050904",
"+X c #123014",
"@X c #1B431D",
"#X c #3D8E41",
"$X c #347938",
"%X c #295E2B",
"&X c #1A3B1B",
"*X c #050D08",
"=X c black",
"-X c #0C1E0D",
";X c #071107",
":X c #1B3C1C",
">X c #1C421E",
",X c #142F15",
"<X c #09160A",
"1X c black",
"2X c #030503",
"3X c #2A612C",
"4X c #3D8D40",
"5X c #2B622D",
"6X c #4AA94D",
"7X c #347C37",
"8X c #449B47",
"9X c #4DB251",
"0X c #4CAF50",
"qX c #4CAE50",
"wX c #3B873E",
"eX c #4DB050",
"rX c #4BAD4F",
"tX c #3C8B3F",
"yX c #4AAA4E",
"uX c #4CAF51",
"iX c #4BAC4E",
"pX c #459F49",
"aX c #3F9042",
"sX c #4AA84D",
"dX c #4DAF50",
"fX c #2D6F30",
"gX c #409344",
"hX c #4BAC4F",
"jX c #327A36",
"kX c #4CB051",
"lX c #49A64D",
"zX c #367E39",
"xX c #38833C",
"cX c #49A94D",
"vX c #337636",
"bX c #429946",
"nX c #49A84D",
"mX c #4DB051",
"MX c #4DB151",
"NX c #377F3A",
"BX c #4DAF51",
"VX c #47A34A",
"CX c #2E6B31",
"ZX c #47A24B",
"AX c #1E4A20",
"SX c #46A24A",
"DX c #4CB050",
"FX c #459E48",
"GX c #3A873D",
"HX c white",
/* pixels */
"                                                                                ",
"                                                                                ",
"                                                                                ",
"                                                                                ",
"                                                                                ",
"                                                                                ",
"                                                                                ",
"                                                                                ",
"                                                                                ",
"                                          . X o                                 ",
"                    O + @ # $           O A S D F                               ",
"                  % G H J K L F &       P I U Y T R * =                         ",
"                -   E W Q ! ~ ^ / ( )   _ ` ' ] [ { ; =                         ",
"                - } |  .3X4X..X.o.O.+.@.#.$.5X6X%.&.S                           ",
"              : > *.=.7X8X9X0XqX-.;.:.>.,.<.wXeXrX1.2.G ,                       ",
"              : 3.4.5.tXyX0X0X0X0XuXqXiXpXaXsXdXdX6.7.8.<                       ",
"            1 2 9.0.fXgXuX0X0X0XuX0X0X0X0XdXuXuXdXhXq.w.e.3 4                   ",
"            5 6 r.t.jXpX0X0X0X0X0X0X0X0X0X0X0X0XdXkXlXy.u.7 8                   ",
"            5 i.p.a.zXyX0X0X0X0X0X0XuX0X0X0X0X0X0XqXkXs.d.f.9                   ",
"            3 g.h.j.xXqXdX0X0X0X0X0X0X0XuX0X0XuX0XqXqXcXk.l.z.                  ",
"            0 q x.c.vXhXdXuX0X0XuX0X0XdXqX0X0X0X0X0X0XdXv.b.n.w                 ",
"            0 e m.M.N.B.bXnXmXMXuXqXqXdXqX0X0XdXuXuXdX0XyXV.C.r                 ",
"            t   ) Z.A.S.D.F.NXbXrX9XBX0X0XdX0X0X0XuXdX0XyXG.H.3                 ",
"                  3 y u J.K.L.P.I.U.VX0X0X0XdX0X0X0XdXqXY.T.R.i                 ",
"                    = p a O E.W.Q.!.CXqX0XdXBXuXdXqXZX~.^./.s i                 ",
"                          d f g (.).zXqXuXmXqXnX_.`.'.].[.{.h                   ",
"                            j }.|.AXSXDXrXFX X.XXXoXOXG k l                     ",
"                            5 e.+X@XGX#X$X%X&X*X=X) z                           ",
"                            x c -X;X:X>X,X<XZ.v b                               ",
"                            n   A 1X2Xg.  m M                                   ",
"                            n     N B V C Z                                     ",
"                                                                                ",
"                                                                                ",
"                                                                                ",
"                                                                                ",
"                                                                                ",
"                                                                                ",
"                                                                                ",
"                                                                                ",
"                                                                                "
};
