/* XPM */
static char *player_pos_004[] = {
/* columns rows colors chars-per-pixel */
"40 40 215 2 ",
"   c black",
".  c #0E170E",
"X  c white",
"o  c #050C04",
"O  c #020201",
"+  c #112912",
"@  c #3A923E",
"#  c #030603",
"$  c #010000",
"%  c #51D259",
"&  c #0F210F",
"*  c #010502",
"=  c #0E1D0E",
"-  c #07100A",
";  c #040804",
":  c #000400",
">  c #0C1F09",
",  c #030703",
"<  c #061006",
"1  c #306B31",
"2  c #18411A",
"3  c #1D421F",
"4  c #030202",
"5  c #060906",
"6  c #030A03",
"7  c #030803",
"8  c #419142",
"9  c #0C230C",
"0  c #020402",
"q  c #1E4320",
"w  c #040904",
"e  c #020602",
"r  c #0A1D0C",
"t  c #123712",
"y  c #081908",
"u  c #030D05",
"i  c #0B1D0E",
"p  c #030704",
"a  c #0B130A",
"s  c #020000",
"d  c #060804",
"f  c #000202",
"g  c #010302",
"h  c #010001",
"j  c gray1",
"k  c #0A160A",
"l  c #0A170A",
"z  c #050D05",
"x  c black",
"c  c black",
"v  c black",
"b  c black",
"n  c black",
"m  c black",
"M  c black",
"N  c black",
"B  c #060D06",
"V  c #183819",
"C  c #1F4720",
"Z  c #193A1A",
"A  c #204921",
"S  c #214E24",
"D  c #1D421E",
"F  c #1A3C1C",
"G  c #224C23",
"H  c #224D23",
"J  c #1E4520",
"K  c #142D15",
"L  c black",
"P  c #040904",
"I  c #173618",
"U  c #39833C",
"Y  c #46A149",
"T  c #409544",
"R  c #439946",
"E  c None",
"W  c #459F49",
"Q  c #47A24A",
"!  c #429746",
"~  c #306F32",
"^  c #0A160A",
"/  c black",
"(  c #0B1C0C",
")  c #1C431D",
"_  c #2A612C",
"`  c #040804",
"'  c #081509",
"]  c #215324",
"[  c #275D2A",
"{  c #3B883E",
"}  c #0F2210",
"|  c black",
" . c #0D210E",
".. c #1D461E",
"X. c #39823C",
"o. c #0D1D0E",
"O. c black",
"+. c #132C14",
"@. c #327535",
"#. c #306E33",
"$. c #070F07",
"%. c black",
"&. c #1C411E",
"*. c #3D8C40",
"=. c #2F6B31",
"-. c #050F05",
";. c black",
":. c #224E24",
">. c #409444",
",. c #235025",
"<. c black",
"1. c black",
"2. c #0B1B0C",
"3. c #2A622C",
"4. c #439A47",
"5. c #245327",
"6. c black",
"7. c #061104",
"8. c #0F220E",
"9. c #39843D",
"0. c #409243",
"q. c #1C3F1D",
"w. c #0C200D",
"e. c #193C1A",
"r. c #3A863E",
"t. c #163318",
"y. c #143616",
"u. c #245A27",
"i. c #47A14A",
"p. c #285D2A",
"a. c #306F33",
"s. c #0F2511",
"d. c #061106",
"f. c #183E1A",
"g. c #224E23",
"h. c #0B1D0C",
"j. c #19401B",
"k. c #2B622D",
"l. c #0C1A0D",
"z. c #020001",
"x. c #070E07",
"c. c #1A421C",
"v. c #1D431F",
"b. c #020703",
"n. c #040C03",
"m. c #173B19",
"M. c #163818",
"N. c #153517",
"B. c #0A160A",
"V. c #030203",
"C. c black",
"Z. c #071207",
"A. c #205222",
"S. c #1A3B1B",
"D. c #040603",
"F. c #061506",
"G. c #020904",
"H. c #071208",
"J. c black",
"K. c black",
"L. c #0C1F0D",
"P. c #266029",
"I. c #2D672F",
"U. c #122913",
"Y. c #040803",
"T. c black",
"R. c #112D13",
"E. c #1C491F",
"W. c #122D13",
"Q. c #050C05",
"!. c black",
"~. c #060C05",
"^. c #020502",
"/. c black",
"(. c #449B47",
"). c #347837",
"_. c #4CAF50",
"`. c #4DB051",
"'. c #4DB050",
"]. c #4DAF51",
"[. c #49A74C",
"{. c #409243",
"}. c #4CAF51",
"|. c #3A843C",
" X c #4DAE50",
".X c #4CAE50",
"XX c #4AA94D",
"oX c #4BAC4F",
"OX c #4CAE4F",
"+X c #4AAA4E",
"@X c #4DAF50",
"#X c #48A54C",
"$X c #459E48",
"%X c #4BAD4F",
"&X c #4CB050",
"*X c #4CB051",
"=X c #419444",
"-X c #49A94D",
";X c #46A049",
":X c #3C8C40",
">X c #214E23",
",X c #439A47",
"<X c #327835",
"1X c #429846",
"2X c #4DB151",
"3X c #29612B",
"4X c #39853C",
"5X c #337B36",
"6X c #3F9243",
"7X c #347C37",
"8X c #439946",
"9X c #39833C",
"0X c #2B672E",
"qX c #347937",
"wX c white",
/* pixels */
"                                                                                ",
"                                                                                ",
"                                                                                ",
"                                                                                ",
"                                                                                ",
"                                                                                ",
"                                                                                ",
"                                                                                ",
"                                                                                ",
"                                                                                ",
"                                                                                ",
"                          .   x c c v b v b n m M M X o                         ",
"                            N B V C Z A S D F G H J K L O                       ",
"                          + P I U Y T R E W W Q (.! ~ ^ /                       ",
"                          @ ( ) )._.`.`.'._._._.]._.[._ ` #                     ",
"                        $ % ' ] [ {.}._._._._._._._._.{ } &                     ",
"                          * |  ...|. X_._._._._._._..XX.o.=                     ",
"                          - O.+.@.XX]._._._._._._._.oX#.$.;                     ",
"                        x %.&.*.OX_._._._._._._.}.}.+X=.-.:                     ",
"                      x ;.:.>..X_._._._._..X.X_.@X_.#X,.<.                      ",
"                    1.2.3.4..X_._._._._.@X_._..X.X_.$X5.6.                      ",
"                  > 7.8.9.%X_._.}._._._..X.X_.&X_.*X0.q.c                       ",
"                , 1.w.e.=X`._._.}.@X_._..X@X-X;X_.`.r.t.x                       ",
"                < c y.u.:XoX_._.}..X_._.}.i.p.>X,X_.a.s.1                       ",
"                  2 d.f.<X1X%X_._._._.2XE g.h.j.3X4Xk.l.3                       ",
"                  4 z.x.c.5X1X.X@X@X@X6Xv.b.n.m.M.N.B.V.5                       ",
"                  6 7 C.Z.A.7X8X_.%X9XS.D.8 9 F.G.H.J.0 q                       ",
"                    w e K.L.P.0XqXI.U.Y.r   t y u i                             ",
"                        p T.R.E.W.Q.!.a s d                                     ",
"                        f g C.~.^./.h j                                         ",
"                          k 0 l z                                               ",
"                                                                                ",
"                                                                                ",
"                                                                                ",
"                                                                                ",
"                                                                                ",
"                                                                                ",
"                                                                                ",
"                                                                                ",
"                                                                                "
};
