/* XPM */
static char *player_pos_013[] = {
/* columns rows colors chars-per-pixel */
"40 40 215 2 ",
"   c black",
".  c #030603",
"X  c #0F210F",
"o  c #0E1D0E",
"O  c #040804",
"+  c #000400",
"@  c #020202",
"#  c #306B31",
"$  c #1D421F",
"%  c #060906",
"&  c #1F4320",
"*  c #040C05",
"=  c #020402",
"-  c white",
";  c #0B1D0E",
":  c #030B05",
">  c #081908",
",  c #0C230C",
"<  c #123712",
"1  c #429242",
"2  c #060904",
"3  c #0A1C0C",
"4  c #020000",
"5  c #0B130A",
"6  c gray1",
"7  c #010001",
"8  c #050D05",
"9  c #0A190A",
"0  c #010000",
"q  c #0E170E",
"w  c #112912",
"e  c #3B923E",
"r  c #53D059",
"t  c #010401",
"y  c #071008",
"u  c #010302",
"i  c #0A180A",
"p  c #030705",
"a  c #000202",
"s  c #020602",
"d  c #020802",
"f  c #040904",
"g  c #0C1E0C",
"h  c #164118",
"j  c #010201",
"k  c #010A01",
"l  c #030803",
"z  c #061006",
"x  c black",
"c  c #040804",
"v  c #0F2210",
"b  c #0D1D0E",
"n  c #070F07",
"m  c #050F05",
"M  c black",
"N  c black",
"B  c black",
"V  c black",
"C  c black",
"Z  c #09160A",
"A  c #2A612C",
"S  c #3B883E",
"D  c #39823C",
"F  c #306E33",
"G  c #2F6B31",
"H  c #235025",
"J  c #245327",
"K  c #1C3F1D",
"L  c #163318",
"P  c #0F2511",
"I  c #0C1A0D",
"U  c #030203",
"Y  c #142D15",
"T  c #306F33",
"R  c #409143",
"E  c #3A863D",
"W  c #306F33",
"Q  c #2B622D",
"!  c #0A160A",
"~  c black",
"^  c black",
"/  c #1E4520",
"(  c #429745",
")  c #153517",
"_  c #071108",
"`  c #224D23",
"'  c #163818",
"]  c #020704",
"[  c black",
"{  c #224B23",
"}  c None",
"|  c #19401C",
" . c #173B19",
".. c #061506",
"X. c black",
"o. c #1A3C1C",
"O. c #459E48",
"+. c #285D2A",
"@. c #0B1D0C",
"#. c #040C04",
"$. c black",
"%. c #1D421E",
"&. c #459F49",
"*. c #46A14A",
"=. c #224E23",
"-. c #020603",
";. c black",
":. c #214E24",
">. c #439A47",
",. c #1D431F",
"<. c #040603",
"1. c #204921",
"2. c #439946",
"3. c #1A3B1B",
"4. c #040903",
"5. c #193A1A",
"6. c #409544",
"7. c #122913",
"8. c black",
"9. c #1F4720",
"0. c #46A149",
"q. c #2D672F",
"w. c #050C06",
"e. c black",
"r. c #183819",
"t. c #39833C",
"y. c #275D2A",
"u. c #1D461E",
"i. c #327535",
"p. c #132D13",
"a. c #020502",
"s. c #060D06",
"d. c #173618",
"f. c #1C431D",
"g. c #215324",
"h. c #0D210E",
"j. c #132C14",
"k. c #3D8C40",
"l. c #1C481F",
"z. c #060D05",
"x. c black",
"c. c #040904",
"v. c #0B1C0C",
"b. c #081408",
"n. c black",
"m. c black",
"M. c #1C411E",
"N. c #409343",
"B. c #266029",
"V. c #112D13",
"C. c black",
"Z. c black",
"A. c #224E24",
"S. c #439A47",
"D. c #205223",
"F. c #0C1F0D",
"G. c black",
"H. c black",
"J. c #2A622C",
"K. c #3A843D",
"L. c #1A421C",
"P. c #071208",
"I. c black",
"U. c #0B1B0C",
"Y. c #0F220F",
"T. c #193C1A",
"R. c #245A27",
"E. c #183E1A",
"W. c #070E07",
"Q. c black",
"!. c #061106",
"~. c #0D210D",
"^. c #153616",
"/. c #051106",
"(. c #49A74C",
"). c #4CAF50",
"_. c #4CAE50",
"`. c #4BAC4F",
"'. c #4AAA4E",
"]. c #48A54C",
"[. c #459E49",
"{. c #4DAF50",
"}. c #4CB051",
"|. c #4DB051",
" X c #39853C",
".X c #449B47",
"XX c #4CAF51",
"oX c #449A47",
"OX c #29612B",
"+X c #4DAE50",
"@X c #46A04A",
"#X c #214E23",
"$X c #49A94D",
"%X c #4CAE51",
"&X c #4DB151",
"*X c #3F9243",
"=X c #39833C",
"-X c #409243",
";X c #39843C",
":X c #4BAD4F",
">X c #347837",
",X c #4CAE4F",
"<X c #347937",
"1X c #439946",
"2X c #2B672E",
"3X c #4BAE50",
"4X c #4BAD50",
"5X c #429846",
"6X c #347C36",
"7X c #4CAD50",
"8X c #337B36",
"9X c #419444",
"0X c #3C8C40",
"qX c #327835",
"wX c white",
/* pixels */
"                                                                                ",
"                                                                                ",
"                                                                                ",
"                                                                                ",
"                                                                                ",
"                                                                                ",
"                                                                                ",
"                                                                                ",
"                                                                                ",
"                                                                                ",
"                            . X o O +                                           ",
"                        @ x c v b n m M N B V # $ % &                           ",
"                      * C Z A S D F G H J K L P I U =                           ",
"                      - Y T (.)._.`.'.].[.R E W Q ! ~                           ",
"                      ^ / ( ).{.).).).).).}.|.). X) _ ;                         ",
"                      ^ ` .X{.).).).).{.).XXXXoXOX' ] :                         ",
"                      [ { } ).).).XX).+X).}.@X#X|  ...>                         ",
"                      X.o.O.).XX)._.)._.).).$X+.@.#., <                         ",
"                      $.%.&.).).).).)._.)._.{.*.=.-.1   2                       ",
"                      ;.:.>.|.).).).).).)._.%XXX>.,.<.3 4                       ",
"                      $.1.2.|.).).).).).).XX).{.&X*X3.4.5 6                     ",
"                      ;.5.6.|.).).XX).).).).).XX).).=X7.8.7                     ",
"                      B 9.0.).-X;X$X).).XXXX{.XX).{.:Xq.w.e.                    ",
"                      B r.t.>Xy.u.i.,X).).).).).).{.).<Xp.a.8                   ",
"                      V s.d.f.g.h.j.k._.).).).).{._.1X2Xl.z.9 0                 ",
"                        x.c.v.b.n.m.M.N.3X).).).4X5X6XB.V.C.=                   ",
"                      q   w e r t y Z.A.S.7X|.`.5X8XD.F.G.u i                   ",
"                                    V H.J.K.9X0XqXL.P.I.p a                     ",
"                                      V U.Y.T.R.E.W.C.s                         ",
"                                        Q.!.~.^./.X.d f                         ",
"                                          g Q.B h j k                           ",
"                                            l z                                 ",
"                                                                                ",
"                                                                                ",
"                                                                                ",
"                                                                                ",
"                                                                                ",
"                                                                                ",
"                                                                                ",
"                                                                                "
};
