/* XPM */
static char *player_pos_006[] = {
/* columns rows colors chars-per-pixel */
"40 40 247 2 ",
"   c black",
".  c #060D07",
"X  c #0D200F",
"o  c #43A34A",
"O  c #000300",
"+  c #000400",
"@  c #000001",
"#  c #010000",
"$  c #010202",
"%  c #061009",
"&  c #0E220F",
"*  c white",
"=  c #2C6B2C",
"-  c #001700",
";  c #000B00",
":  c #000500",
">  c #071008",
",  c #040D04",
"<  c #030B03",
"1  c #071207",
"2  c #112C10",
"3  c #0A1509",
"4  c #0D200D",
"5  c #010201",
"6  c #030603",
"7  c #071107",
"8  c #050B05",
"9  c #0E1E0F",
"0  c #010302",
"q  c #2A602C",
"w  c #010401",
"e  c #54B558",
"r  c #061408",
"t  c #010502",
"y  c #020302",
"u  c #09120A",
"i  c #010101",
"p  c #132710",
"a  c #010001",
"s  c #070A07",
"d  c #359A34",
"f  c #204C20",
"g  c #215222",
"h  c #0F2911",
"j  c #75FF7C",
"k  c #173F1B",
"l  c #030402",
"z  c #010601",
"x  c #040A04",
"c  c #050805",
"v  c #000700",
"b  c #040504",
"n  c #001600",
"m  c #000800",
"M  c #000600",
"N  c #020802",
"B  c #132F15",
"V  c #000C00",
"C  c #030A03",
"Z  c #020502",
"A  c #020402",
"S  c #071909",
"D  c #081405",
"F  c #020702",
"G  c #000201",
"H  c #061905",
"J  c #020401",
"K  c #102A0B",
"L  c gray1",
"P  c gray3",
"I  c #20201D",
"U  c black",
"Y  c #0D210F",
"T  c #132D14",
"R  c #142F15",
"E  c #030803",
"W  c black",
"Q  c black",
"!  c black",
"~  c #122913",
"^  c #1C411E",
"/  c #295E2B",
"(  c #39833C",
")  c #3D8C40",
"_  c #2D672F",
"`  c #142E16",
"'  c #070F08",
"]  c black",
"[  c #0B190B",
"{  c #1D421F",
"}  c #245426",
"|  c #347837",
" . c #419645",
".. c #39833C",
"X. c #0F210F",
"o. c black",
"O. c #040A05",
"+. c #0C1D0D",
"@. c #224E23",
"#. c #2D672F",
"$. c #3E8E41",
"%. c #47A44B",
"&. c #1B3C1C",
"*. c #000100",
"=. c black",
"-. c #1A3D1D",
";. c #377F3A",
":. c None",
">. c #2E6B31",
",. c #030703",
"<. c #050D04",
"1. c #193C1A",
"2. c #306E33",
"3. c #040703",
"4. c #081308",
"5. c #1C461E",
"6. c #39843D",
"7. c #132D15",
"8. c black",
"9. c black",
"0. c #143416",
"q. c #215424",
"w. c #235325",
"e. c #419745",
"r. c #224F25",
"t. c black",
"y. c black",
"u. c #030703",
"i. c #235225",
"p. c #46A149",
"a. c #265628",
"s. c black",
"d. c black",
"f. c #122A13",
"g. c #3C893F",
"h. c #2C662F",
"j. c #0A170A",
"k. c #010201",
"l. c #2E6931",
"z. c #4AAB4E",
"x. c #347838",
"c. c #112713",
"v. c black",
"b. c #1C3F1D",
"n. c #429846",
"m. c #39833C",
"M. c #17361A",
"N. c #060E06",
"B. c #367B38",
"V. c #327435",
"C. c #163518",
"Z. c #2B622D",
"A. c #102311",
"S. c black",
"D. c #235126",
"F. c #429846",
"G. c #439B47",
"H. c #183819",
"J. c #173918",
"K. c #1B421C",
"L. c #193F1B",
"P. c #112912",
"I. c #010000",
"U. c black",
"Y. c #204720",
"T. c #2C642E",
"R. c #040B04",
"E. c black",
"W. c #122B12",
"Q. c #0C1E0C",
"!. c #0C200D",
"~. c black",
"^. c #0B180B",
"/. c #163517",
"(. c #142C15",
"). c black",
"_. c #0B1B0C",
"`. c #1B451E",
"'. c #255627",
"]. c #040704",
"[. c black",
"{. c #0B1C0B",
"}. c #183C1A",
"|. c #0F2410",
" X c black",
".X c #030A04",
"XX c #0D200E",
"oX c #1C481E",
"OX c #193A1A",
"+X c #010501",
"@X c black",
"#X c #020703",
"$X c #102A11",
"%X c #225524",
"&X c #1C461E",
"*X c #122D13",
"=X c #040A04",
"-X c black",
";X c #071409",
":X c #112912",
">X c #060E05",
",X c #010200",
"<X c #48A64C",
"1X c #4CAF50",
"2X c #4BAD4F",
"3X c #4CAE50",
"4X c #4CAF51",
"5X c #4DAF50",
"6X c #4DB051",
"7X c #439946",
"8X c #49A74D",
"9X c #4DB050",
"0X c #49A84D",
"qX c #3B893E",
"wX c #4CAD4F",
"eX c #265C29",
"rX c #357938",
"tX c #48A54C",
"yX c #3E8E42",
"uX c #47A54B",
"iX c #4CB051",
"pX c #4DAE51",
"aX c #4DB151",
"sX c #4CB050",
"dX c #47A34B",
"fX c #3D8C40",
"gX c #4AAA4E",
"hX c #285F2A",
"jX c #38833C",
"kX c #429946",
"lX c #377F3A",
"zX c #4BAD50",
"xX c #3D8D41",
"cX c #2F6F31",
"vX c #3F9142",
"bX c #46A14A",
"nX c #4CAD50",
"mX c #29652C",
"MX c #368139",
"NX c #3E8F41",
"BX c #46A24A",
"VX c #377E39",
"CX c #2C6C2F",
"ZX c #337835",
"AX c #37803A",
"SX c #357A38",
"DX c white",
/* pixels */
"                                                                                ",
"                                                                                ",
"                                                                                ",
"                                                                                ",
"                                                                                ",
"                                                                                ",
"                                                                                ",
"                                                                                ",
"                                                                                ",
"                                      .   X o   O + + @                         ",
"                            # # $ % & * U Y T R E W =                           ",
"                          - ; : * Q ! ~ ^ / ( ) _ ` ' >                         ",
"                          ,   ] [ { } |  .<X1X1X2X..X.                          ",
"                        o.O.+.@.#.$.%.3X4X1X5X1X6X7X&.*.<                       ",
"                        =.-.;.:.8X5X9X1X3X3X5X1X5X0X>.,.1                       ",
"                      2 <.1.qX9X5X5X1X1X1X1X4X1X1XwX2.3.3                       ",
"                      4 4.5.eXrXtX5X1X1X1X1X4X1X1X6X6.7.8.5                     ",
"                      6 9.0.q.w.yX6X1X1X1X1X1X1X5X5Xe.r.t.7                     ",
"                        8 y.u.i.uXiX1X1X1X3X1X1XpX6Xp.a.s.9                     ",
"                        0 d.f.g.6X1X1X4X5X1X1X1X1X1X<Xh.j.q w                   ",
"                        6 k.l.z.1X1X1X1X1X1X1XiXaX4XsXx.c.e r                   ",
"                        v.b.n.3X1X1X1X1X1X3X9XdXfX0XaXm.M.  t                   ",
"                        N.B.gX1X1X1X1X1X1X1X1XV.C.hXjXZ.A.8.y                   ",
"                    u S.D.F.1X1X3X1X1X1X1X1XG.H.J.K.L.P.I.*                     ",
"                  i p U.Y.kX6X1X1X1X1X1X1X3XT.R.E.W.Q.!.~.  a                   ",
"                  s d ^./.lXzX5X1X3X1X1XaXxX(.).8 f g h                         ",
"                  i j _.`.cXvXbXnX1X5X6X0X'.].k l                               ",
"                    z [.{.}.mXMXNXBX3X1XVX|. Xx c                               ",
"                    v   S..XXXoXCXZXAXSXOX+Xb n                                 ",
"                    m M N B @X#X$X%X&X*X=Xo.: V                                 ",
"                        C Z A S -X;X:X>X,XD F                                   ",
"                                G o.o.H J K                                     ",
"                                    L P I @                                     ",
"                                                                                ",
"                                                                                ",
"                                                                                ",
"                                                                                ",
"                                                                                ",
"                                                                                ",
"                                                                                "
};
