/* XPM */
static char *player_pos_015[] = {
/* columns rows colors chars-per-pixel */
"40 40 245 2 ",
"   c black",
".  c #010401",
"X  c #061408",
"o  c #010502",
"O  c #020302",
"+  c #010001",
"@  c #010201",
"#  c #071007",
"$  c #0E1E0F",
"%  c #2B612F",
"&  c #58B758",
"*  c white",
"=  c #030B03",
"-  c #071207",
";  c #091509",
":  c #010000",
">  c #0F2911",
",  c #000400",
"<  c #2A6B2E",
"1  c #215222",
"2  c #204C20",
"3  c #000300",
"4  c #050B05",
"5  c #030402",
"6  c #050805",
"7  c #173F19",
"8  c #040A04",
"9  c #001600",
"0  c #000C00",
"q  c #46A34A",
"w  c #040504",
"e  c #000500",
"r  c #020702",
"t  c #0D200F",
"y  c #081408",
"u  c #102A10",
"i  c #020402",
"p  c #202020",
"a  c #060D07",
"s  c #061807",
"d  c gray3",
"f  c #0D220F",
"g  c gray1",
"h  c #061009",
"j  c #010202",
"k  c #000001",
"l  c #071409",
"z  c #000B00",
"x  c #000100",
"c  c #001700",
"v  c #040D04",
"b  c #132F15",
"n  c #020502",
"m  c #010302",
"M  c #030603",
"N  c #020802",
"B  c #030A03",
"V  c #102C11",
"C  c #0D200D",
"Z  c #000600",
"A  c #09120A",
"S  c #132710",
"D  c #359E34",
"F  c #75FF7C",
"G  c #010601",
"H  c #000700",
"J  c #000800",
"K  c #010101",
"L  c #070907",
"P  c black",
"I  c black",
"U  c black",
"Y  c #0A180C",
"T  c #122813",
"R  c #173619",
"E  c #102311",
"W  c #010000",
"Q  c black",
"!  c #000100",
"~  c #030703",
"^  c #030703",
"/  c #132D15",
"(  c #224F25",
")  c #265628",
"_  c #2C662F",
"`  c #357838",
"'  c #39833C",
"]  c #2A622D",
"[  c #112912",
"{  c #0C200D",
"}  c #070F07",
"|  c #0F200F",
" . c #1A3C1C",
".. c #2E6B31",
"X. c #306E33",
"o. c #39843D",
"O. c #419745",
"+. c None",
"@. c #193F1B",
"#. c #0C1E0C",
"$. c black",
"%. c #152E16",
"&. c #39833D",
"*. c #1B421C",
"=. c #122B12",
"-. c #030803",
";. c #2C672F",
":. c #163518",
">. c #173918",
",. c black",
"<. c #142F15",
"1. c #3D8C40",
"2. c #327435",
"3. c #183819",
"4. c #040B04",
"5. c black",
"6. c #132D14",
"7. c #39833C",
"8. c #439B47",
"9. c #2C642E",
"0. c #142C15",
"q. c #040703",
"w. c black",
"e. c #0D210F",
"r. c #295D2B",
"t. c #255627",
"y. c #0F2410",
"u. c #010501",
"i. c black",
"p. c black",
"a. c #1C411E",
"s. c #419645",
"d. c #193A1A",
"f. c #030A04",
"g. c #010200",
"h. c #122913",
"j. c #347937",
"k. c #122D13",
"l. c #060E06",
"z. c black",
"x. c #245326",
"c. c #47A44B",
"v. c #1C461E",
"b. c #112912",
"n. c black",
"m. c #1D421F",
"M. c #3D8E41",
"N. c #225524",
"B. c #071409",
"V. c #0B190B",
"C. c #2D672F",
"Z. c #102911",
"A. c black",
"S. c black",
"D. c #214E23",
"F. c #46A049",
"G. c #235325",
"H. c #235225",
"J. c #3B893E",
"K. c #4AAA4E",
"L. c #1C481E",
"P. c #020703",
"I. c #0D1D0D",
"U. c #377F3A",
"Y. c #215424",
"T. c #030703",
"R. c #122A13",
"E. c #2E6931",
"W. c #429745",
"Q. c #0D200D",
"!. c black",
"~. c #050B05",
"^. c #1A3E1C",
"/. c #193C1A",
"(. c #1B461E",
"). c #143416",
"_. c black",
"`. c black",
"'. c #010201",
"]. c #1C3F1D",
"[. c #367B38",
"{. c #429845",
"}. c #183C1A",
"|. c #030A04",
" X c black",
".X c #040D05",
"XX c #081308",
"oX c black",
"OX c black",
"+X c #060E07",
"@X c #235125",
"#X c #204720",
"$X c #163517",
"%X c #1C451E",
"&X c #0B1C0B",
"*X c black",
"=X c black",
"-X c #0B180B",
";X c #0B1B0C",
":X c black",
">X c #48A64C",
",X c #4CB050",
"<X c #4DB151",
"1X c #38833C",
"2X c #439946",
"3X c #49A84D",
"4X c #4CAD50",
"5X c #4DB050",
"6X c #4DAF51",
"7X c #4DB051",
"8X c #4CAF50",
"9X c #4CAF51",
"0X c #49A74D",
"qX c #285F2A",
"wX c #4BAD4F",
"eX c #4DAF50",
"rX c #4DAE50",
"tX c #3D8C40",
"yX c #4CAE50",
"uX c #47A34B",
"iX c #3D8D41",
"pX c #377E39",
"aX c #347A38",
"sX c #37803A",
"dX c #4CB051",
"fX c #46A24A",
"gX c #337835",
"hX c #48A54C",
"jX c #3E8E42",
"kX c #48A54B",
"lX c #3E8F41",
"zX c #2C6C2F",
"xX c #357938",
"cX c #46A14A",
"vX c #368139",
"bX c #3B893E",
"nX c #265C29",
"mX c #4AAA4E",
"MX c #4BAD50",
"NX c #3F9142",
"BX c #2A652C",
"VX c #429946",
"CX c #377F3A",
"ZX c #2E6F31",
"AX c white",
/* pixels */
"                                                                                ",
"                                                                                ",
"                                                                                ",
"                                                                                ",
"                                                                                ",
"                                                                                ",
"                                                                                ",
"                                                                                ",
"                                                                                ",
"                                      . X o O   +                               ",
"                                @ # $ % &   P *                                 ",
"                          = - ; P I U Y T R E W Q                               ",
"                  :   #   ! ~ ^ / ( ) _ ` ' ] [ { >                             ",
"                  , < } |  ...X.o.O.+.>X,X<X1X@.#.1                             ",
"                  , $.%.&.2X3X4X5X6X7X8X9X0XqX*.=.2                             ",
"                  3 -.;.wX5XeX8XeX8XrX8X<XtX:.>.,.4 5 6                         ",
"                    <.1.yXyX8X8X8X8X8X8X,XuX2.3.4.5.7 8 9 0                     ",
"                  q 6.7.yXeXeX9X9X8X8X8X8X5X8X8.9.0.q.w.w e r                   ",
"                  t e.r.>X8X8X8X8X8X8X8X8XyX9X8XyXiXt.y.u.i.y u                 ",
"                    p.a.s.8X8X8X8X8X8XeX8XyX8X8X8X<X3XpXd.f.g.i p               ",
"                  a * h.j.yX9X8X8X8X8X9X8X9X8X8X8X8X7X8XaXk.l.s d               ",
"                  : f z.x.c.5X8X8X8X8X8XeX8X8X8X8X8X6XyXsXv.b.i.g               ",
"                  : h n.m.M.eXeX9X7XdX8XeX8X8X8X8XyX8XfXgXN.B.i.                ",
"                    j * V.C.0X5XhXjXkXdX8X8XeX8X8X8X4XlXzXZ.A.k                 ",
"                      e S.D.F.,XxXG.H.J.K.yXeX8X8X8XcXvXL.P.l                   ",
"                      z   I.U.bXnXY.T.R.E.W.mXyX7XMXNXBXQ.!.i x                 ",
"                      c v ~.^./.(.)._.`.'.].[.{.VXCXZX}.|.b n                   ",
"                          i. X.XXXoX4 m M OX+X@X#X$X%X&X*XN B                   ",
"                              V C M           *X=X-X;X:X  Z                     ",
"                                              A S D F G H J                     ",
"                                                K L K                           ",
"                                                                                ",
"                                                                                ",
"                                                                                ",
"                                                                                ",
"                                                                                ",
"                                                                                ",
"                                                                                ",
"                                                                                ",
"                                                                                "
};
