/* XPM */
static char *player_pos_008[] = {
/* columns rows colors chars-per-pixel */
"40 40 144 2 ",
"   c None",
".  c #060F06",
"X  c #0A190A",
"o  c #0B1B0C",
"O  c #0D220E",
"+  c #0F220F",
"@  c #0E230F",
"#  c #0F230F",
"$  c #0F2610",
"%  c #102611",
"&  c #102811",
"*  c #122913",
"=  c #102A12",
"-  c #112B13",
";  c #132C14",
":  c #142E15",
">  c #153716",
",  c #173617",
"<  c #163418",
"1  c #173518",
"2  c #173619",
"3  c #163918",
"4  c #173A19",
"5  c #193B1B",
"6  c #183D1A",
"7  c #1A3C1B",
"8  c #1A3A1D",
"9  c #19411B",
"0  c #1A411B",
"q  c #1A431C",
"w  c #1B441E",
"e  c #1C441D",
"r  c #1D441F",
"t  c #1C461E",
"y  c #1F481F",
"u  c #1F4721",
"i  c #1F4821",
"p  c #1F4A22",
"a  c #1F4E21",
"s  c #1F5022",
"d  c #204A21",
"f  c #224C23",
"g  c #214F23",
"h  c #224F24",
"j  c #205122",
"k  c #235024",
"l  c #235025",
"z  c #235125",
"x  c #215324",
"c  c #225225",
"v  c #245125",
"b  c #245426",
"n  c #245427",
"m  c #275528",
"M  c #265628",
"N  c #275B29",
"B  c #275B2A",
"V  c #265C28",
"C  c #275D29",
"Z  c #2A602C",
"A  c #2B672D",
"S  c #2C642E",
"D  c #2B6A2E",
"F  c #2D682F",
"G  c #2C6630",
"H  c #2E6B30",
"J  c #2F6B31",
"K  c #2D6D30",
"L  c #2F6D32",
"P  c #306C32",
"I  c #306F32",
"U  c #307733",
"Y  c #317235",
"T  c #327234",
"R  c #327334",
"E  c #337536",
"W  c #337B36",
"Q  c #347837",
"!  c #337D36",
"~  c #367C39",
"^  c #367D39",
"/  c #367E38",
"(  c #377E39",
")  c #38813B",
"_  c #39833C",
"`  c #3A853D",
"'  c #3A863E",
"]  c #3B863E",
"[  c #3D8D40",
"{  c #3D8E41",
"}  c #3E9041",
"|  c #3F9243",
" . c #3F9343",
".. c #409343",
"X. c #409443",
"o. c #409444",
"O. c #419544",
"+. c #419644",
"@. c #429645",
"#. c #429745",
"$. c #429846",
"%. c #429946",
"&. c #439946",
"*. c #439A47",
"=. c #449C47",
"-. c #449C48",
";. c #449E48",
":. c #459F49",
">. c #46A049",
",. c #46A14A",
"<. c #46A24A",
"1. c #47A34A",
"2. c #47A44B",
"3. c #48A44B",
"4. c #49A74C",
"5. c #48A74D",
"6. c #49A74D",
"7. c #49A84D",
"8. c #49A84E",
"9. c #49A94E",
"0. c #4AA94E",
"q. c #4AAA4E",
"w. c #4AAB4E",
"e. c #4AAB4F",
"r. c #4BAC4F",
"t. c #4BAD4F",
"y. c #4BAE4F",
"u. c #4BAD50",
"i. c #4BAE50",
"p. c #4CAE50",
"a. c #4DAE50",
"s. c #4CAF50",
"d. c #4DAF50",
"f. c #4CAE51",
"g. c #4DAE51",
"h. c #4CAF51",
"j. c #4DAF51",
"k. c #4DB050",
"l. c #4DB051",
"z. c #4DB151",
"x. c #4EB051",
"c. c #4DB251",
"v. c #4DB152",
"b. c #4DB252",
/* pixels */
"                                                                                ",
"                                                                                ",
"                                                                                ",
"                                                                                ",
"                                                                                ",
"                                                                                ",
"                                                                                ",
"                                                                                ",
"                                        v 5 1                                   ",
"                                    z ( ,.5.@.F                                 ",
"                                  z [ d.l.d.l.@.f                               ",
"                                Z ..d.d.d.d.d.l.` ;                             ",
"                              R :.d.d.d.d.d.d.d.9.J                             ",
"                          , E ,.d.d.d.d.d.d.d.d.d.:.n                           ",
"                        : R 9.d.d.d.d.d.d.d.d.d.d.r.` 8                         ",
"                      u ( r.d.d.d.d.d.d.d.d.d.d.d.d.2.G                         ",
"                    1 ( 9.l.d.d.d.d.d.d.d.d.d.d.d.d.r.[ i                       ",
"                    * N ) @.5.d.d.d.d.d.d.d.d.d.d.d.d.3.R                       ",
"                    o w V N L 9.d.d.d.d.d.d.d.d.d.d.d.d.X.z                     ",
"                      7 s z y r.d.d.d.d.d.d.d.d.d.9.5.9.:.S                     ",
"                          . d i.d.d.d.d.d.d.d.d.r.h f J A @                     ",
"                            P i.d.d.d.d.d.d.d.d.%.1 9 9 9 3                     ",
"                            ` d.d.d.d.d.d.d.d.l._ %                             ",
"                            %.d.d.d.d.d.d.d.d.l.L                               ",
"                            ,.d.d.d.d.d.d.d.d.l.M                               ",
"                          M 2.d.d.d.d.d.d.d.d.r.r                               ",
"                          P 2.d.d.d.d.d.d.d.l.:.7                               ",
"                          n =.l.d.d.d.d.d.d.l.[ 1                               ",
"                          @ J ,.9.9.d.l.l.l.l.Q *                               ",
"                          @ r ( | | @.@.%.%.| i                                 ",
"                            q a V D U ! W L z *                                 ",
"                              X @ $ * , r j 3                                   ",
"                                                                                ",
"                                                                                ",
"                                                                                ",
"                                                                                ",
"                                                                                ",
"                                                                                ",
"                                                                                ",
"                                                                                "
};
