/* XPM */
static char *player_pos_014[] = {
/* columns rows colors chars-per-pixel */
"40 40 207 2 ",
"   c black",
".  c #030803",
"X  c #53BA56",
"o  c #B8FFB8",
"O  c #010301",
"+  c #143115",
"@  c #061107",
"#  c #1A431D",
"$  c #000001",
"%  c #173A19",
"&  c #255E29",
"*  c #020A01",
"=  c #000900",
"-  c #2E6430",
";  c #0F080F",
":  c #020902",
">  c #040804",
",  c #0A130A",
"<  c #030604",
"1  c #020604",
"2  c #020402",
"3  c #000200",
"4  c #5CD964",
"5  c #050F07",
"6  c #0F2911",
"7  c #071107",
"8  c #112811",
"9  c #3B9846",
"0  c #040A04",
"q  c #153115",
"w  c #000100",
"e  c #1C401D",
"r  c #000101",
"t  c #091509",
"y  c #0B1C0B",
"u  c #0A180A",
"i  c #0F2210",
"p  c #030A03",
"a  c #000500",
"s  c #0E210F",
"d  c #030904",
"f  c #020602",
"g  c #020702",
"h  c #050C05",
"j  c #060D07",
"k  c #010302",
"l  c #060E09",
"z  c black",
"x  c black",
"c  c black",
"v  c black",
"b  c black",
"n  c black",
"m  c black",
"M  c black",
"N  c #0E230F",
"B  c #193A1A",
"V  c #163217",
"C  c #1D431F",
"Z  c #183819",
"A  c #1C411F",
"S  c #235126",
"D  c #224E23",
"F  c #214D23",
"G  c #245427",
"H  c #19371A",
"J  c #030202",
"K  c #09160A",
"L  c #2F6D32",
"P  c #3E8D40",
"I  c #3F9042",
"U  c #459E49",
"Y  c #449C47",
"T  c #449E48",
"R  c None",
"E  c #459E48",
"W  c #347736",
"Q  c #163517",
"!  c #08190B",
"~  c #050C05",
"^  c #29602B",
"/  c #1A421C",
"(  c #09170A",
")  c #183819",
"_  c #3F9142",
"`  c #1E481F",
"'  c #1A411B",
"]  c #0B1C0C",
"[  c #193A1A",
"{  c #3E8F41",
"}  c #143015",
"|  c #122D13",
" . c #122713",
".. c #357938",
"X. c #327334",
"o. c #122912",
"O. c black",
"+. c #091309",
"@. c #316F33",
"#. c #38823C",
"$. c #153117",
"%. c #020202",
"&. c #010201",
"*. c #235125",
"=. c #3C8940",
"-. c #1A3A1A",
";. c #050C05",
":. c black",
">. c black",
",. c #245226",
"<. c #224F24",
"1. c #071209",
"2. c black",
"3. c #1A3C1C",
"4. c #3C8A3F",
"5. c #183919",
"6. c #060F06",
"7. c #132B14",
"8. c #357B38",
"9. c #112D13",
"0. c #050A06",
"q. c #295F2C",
"w. c #2E6C31",
"e. c #46A149",
"r. c #27622A",
"t. c #183C19",
"y. c #050C05",
"u. c #2A602B",
"i. c #255B27",
"p. c #0E210E",
"a. c #255627",
"s. c #459E49",
"d. c #193F1B",
"f. c #040B06",
"g. c #102410",
"h. c #1A3E1C",
"j. c #1B421C",
"k. c #1C461E",
"l. c #020401",
"z. c #020302",
"x. c #255427",
"c. c #429846",
"v. c #1A431C",
"b. c #030A04",
"n. c black",
"m. c #040904",
"M. c #081408",
"N. c #081408",
"B. c #224F24",
"V. c #3D8D40",
"C. c #48A64C",
"Z. c #205022",
"A. c #071107",
"S. c black",
"D. c black",
"F. c #18391A",
"G. c #2E6930",
"H. c #2B632D",
"J. c #255C28",
"K. c #0D210E",
"L. c #010201",
"P. c black",
"I. c #040A04",
"U. c #0B1C0B",
"Y. c #163818",
"T. c #102B11",
"R. c #010501",
"E. c #030603",
"W. c #010203",
"Q. c black",
"!. c #439B47",
"~. c #48A74C",
"^. c #49A74C",
"/. c #4DB050",
"(. c #4DB051",
"). c #4CAF51",
"_. c #4CAF50",
"`. c #337836",
"'. c #4CAE50",
"]. c #3B883F",
"[. c #317234",
"{. c #4CAD4F",
"}. c #4DAF50",
"|. c #49A84D",
" X c #4BAC4F",
".X c #449D48",
"XX c #4DAF51",
"oX c #419745",
"OX c #49A64D",
"+X c #4BAB4F",
"@X c #439C48",
"#X c #225325",
"$X c #459D48",
"%X c #2D6830",
"&X c #4AA94E",
"*X c #37803A",
"=X c #3F9042",
"-X c #2C672F",
";X c #4BAD4F",
":X c #3F9142",
">X c #2F7232",
",X c #4BAC4E",
"<X c #337B36",
"1X c #45A049",
"2X c #39853C",
"3X c #2A632C",
"4X c white",
/* pixels */
"                                                                                ",
"                                                                                ",
"                                                                                ",
"                                                                                ",
"                                                                                ",
"                                                                                ",
"                                                                                ",
"                                                                                ",
"                                                                                ",
"                                                                                ",
"                                                                                ",
"                        . X z x x c v c b n n m x   o                           ",
"                      O M N B V C Z A S D F G H J m                             ",
"                      M K L P I U Y T R E !.~.W Q ! +                           ",
"                    @ ~ ^ ^./.(.).(._._.).(._.`./ ( #                           ",
"                  $ z ) _ _._._._._.'.'._.).].` ' ] %                           ",
"                  $ z [ { _._._.)._._._._.'.[.} | & * =                         ",
"                    -  ...{._.}._.}._._._._.|.X.o.O.; : >                       ",
"                    , +.@. X_._._._._._._.'.).'.#.$.%.x < 1                     ",
"                    2 &.*.~.}._._._._._._._.}._.).=.-.;.:.  3                   ",
"                      >.,..X}._._.)._._._._._._._.XXoX<.1.2.                    ",
"                      x 3.4.(.).XX)._._._._._._.'.).(.oX5.6.z                   ",
"                      4 7.8.(.}.OX+X)._._._.)._._._.(.@X#X9.m 5                 ",
"                      6 0.q.'.$X%Xw.e._._._._._._._.&X*Xr.t.v 7                 ",
"                      8 y.u.=X-Xi.p.a.s._._._._._.;X:X>Xd.f.9                   ",
"                      0 v g.h.j.k.l.z.x.c.,X_._._..X<Xv.b.>.                    ",
"                      q w n.m.M.N.c e O.B.V.C.;X1X2XZ.A.S.3 r                   ",
"                            t y u     i D.F.G.H.3XJ.K.L.p a                     ",
"                                    w   s P.I.U.Y.T.R.d                         ",
"                                              E.W.Q.f g                         ",
"                                              h j k l                           ",
"                                                                                ",
"                                                                                ",
"                                                                                ",
"                                                                                ",
"                                                                                ",
"                                                                                ",
"                                                                                ",
"                                                                                ",
"                                                                                "
};
