/* XPM */
static char *player_pos_005[] = {
/* columns rows colors chars-per-pixel */
"40 40 206 2 ",
"   c black",
".  c #000001",
"X  c #020402",
"o  c #0A1309",
"O  c #2E642F",
"+  c #060F07",
"@  c #153113",
"#  c #040A04",
"$  c #112911",
"%  c #102911",
"&  c #5CD964",
"*  c #010302",
"=  c #000100",
"-  c #030804",
";  c #52BA57",
":  c #091509",
">  c #0B1C0C",
",  c #0A170A",
"<  c #1C411D",
"1  c #0F2210",
"2  c #0D200F",
"3  c #050C05",
"4  c #060D07",
"5  c #245E2A",
"6  c #060E09",
"7  c #020603",
"8  c #0F0A0F",
"9  c #020A01",
"0  c #173919",
"q  c #1A431C",
"w  c #143116",
"e  c #B8FFFF",
"r  c #020703",
"t  c #030904",
"y  c #020902",
"u  c #000900",
"i  c #030A03",
"p  c #030604",
"a  c #040804",
"s  c #000500",
"d  c #000200",
"f  c #020604",
"g  c #000101",
"h  c #3B9943",
"j  c #071107",
"k  c #050F07",
"l  c black",
"z  c black",
"x  c black",
"c  c #010201",
"v  c #091309",
"b  c #122713",
"n  c #193A1A",
"m  c #183819",
"M  c #050B05",
"N  c black",
"B  c black",
"V  c #050C03",
"C  c #050A06",
"Z  c #132B14",
"A  c #1A3C1C",
"S  c #245226",
"D  c #235125",
"F  c #316F33",
"G  c #357938",
"H  c #3E8F41",
"J  c #3F9142",
"K  c #29602B",
"L  c #09160A",
"P  c black",
"I  c #102410",
"U  c #2A602B",
"Y  c #2A5F2C",
"T  c #357B38",
"R  c #3C8A40",
"E  c #2F6D32",
"W  c #0F2310",
"Q  c #040904",
"!  c #1A3E1B",
"~  c #3D8D40",
"^  c #193A1A",
"/  c #081308",
"(  c #1B431D",
")  c #3F9043",
"_  c #163217",
"`  c #081308",
"'  c #1C461E",
"]  c #255B27",
"[  c #459E49",
"{  c #1D431F",
"}  c black",
"|  c #010401",
" . c #0D210E",
".. c #2E6C31",
"X. c #449C47",
"o. c #183819",
"O. c #020402",
"+. c #255627",
"@. c #46A149",
"#. c #449E48",
"$. c #1C411F",
"%. c black",
"&. c #255427",
"*. c #459F49",
"=. c None",
"-. c #235126",
";. c black",
":. c #224E24",
">. c #429846",
",. c #449D48",
"<. c #214E23",
"1. c black",
"2. c black",
"3. c #19381A",
"4. c #3D8D41",
"5. c #214D23",
"6. c black",
"7. c #040A04",
"8. c #2D6930",
"9. c #48A54C",
"0. c #245427",
"q. c #030603",
"w. c #0B1C0B",
"e. c #2B632D",
"r. c #327334",
"t. c #143015",
"y. c #1D481F",
"u. c #347736",
"i. c #19371A",
"p. c black",
"a. c #010203",
"s. c #163817",
"d. c #38823C",
"f. c #122912",
"g. c #122D13",
"h. c #1A401B",
"j. c #1A421C",
"k. c #163517",
"l. c #030302",
"z. c black",
"x. c #102B12",
"c. c #255C28",
"v. c #3C8A3F",
"b. c #163117",
"n. c #0B1B0C",
"m. c #08180A",
"M. c #08190B",
"N. c #010502",
"B. c #0D210E",
"V. c #205023",
"C. c #1A3A1A",
"Z. c #020302",
"A. c #010201",
"S. c #071107",
"D. c #1A431C",
"F. c #224F24",
"G. c #050C05",
"H. c black",
"J. c #030A04",
"K. c #193F1B",
"L. c #27622A",
"P. c #173819",
"I. c #071209",
"U. c black",
"Y. c #040B05",
"T. c #183B19",
"R. c #112D13",
"E. c #050F06",
"W. c black",
"Q. c #449D48",
"!. c #48A74D",
"~. c #4BAC4F",
"^. c #4CAD50",
"/. c #4CAF50",
"(. c #49A74C",
"). c #3F9042",
"_. c #4CAE50",
"`. c #4DB051",
"'. c #4DAF50",
"]. c #4CAF51",
"[. c #4CB051",
"{. c #2C672E",
"}. c #459D48",
"|. c #2D6830",
" X c #49A64D",
".X c #4DAF51",
"XX c #4AAB4E",
"oX c #4DB050",
"OX c #4CB050",
"+X c #449B47",
"@X c #49A84D",
"#X c #317134",
"$X c #3B883E",
"%X c #4BAD4F",
"&X c #337836",
"*X c #2A632C",
"=X c #459F49",
"-X c #39853C",
";X c #337B36",
":X c #3F9142",
">X c #4AA94E",
",X c #419745",
"<X c #2F7232",
"1X c #37803A",
"2X c #225325",
"3X c white",
/* pixels */
"                                                                                ",
"                                                                                ",
"                                                                                ",
"                                                                                ",
"                                                                                ",
"                                                                                ",
"                                                                                ",
"                                                                                ",
"                                                                                ",
"                                        . .                                     ",
"                                        X o O l l +                             ",
"                          @ # $ % & z x c v b n m M N *                         ",
"                          = B V C Z A S D F G H J K L N -                       ",
"                          P I U Y T R Q.!.~.^././.(.E W ;                       ",
"                        : Q ! )._.`.`.'.]././././.[.~ ^ l                       ",
"                        > / ( {.}.'.]./././././.'.`.) _ z                       ",
"                        , ` ' ] |. X.X/./././.]././.[ { z                       ",
"                          } |  ...XX/.]./././.]./.oXX.o.}                       ",
"                          < O.+.@.OX/./._./././././.#.$.B                       ",
"                        1 %.&.*././././././././._./.=.-.}                       ",
"                      2 ;.:.>./././././././././././.,.<.1.                      ",
"                      2.3.4.~./././._././././._./.`.+X5.6.                      ",
"                      7.8.9././././././._.].@X#X$X/.(.0.6.                      ",
"                  3 q.w.e.%X/./././././._._.r.t.y.&Xu.i.p.                      ",
"                  4 a.s.*X=X/./././._././.d.f.g.h.j.k.l.z                       ",
"                  * z.x.c.-XQ.%X/././.OXv.b.%.5 n.m.M.p.                        ",
"                  6 7 N.B.V.;X:X>X`.`.,XC.Z.8 9 0 q w   e                       ",
"                    r t A.S.D.<X1X+X,XF.G.z y u                                 ",
"                        i H.J.K.L.2XP.I.U.p a                                   ",
"                        s d x Y.T.R.E.W.  f                                     ",
"                          g   h B p.l   d                                       ",
"                                j k = =                                         ",
"                                                                                ",
"                                                                                ",
"                                                                                ",
"                                                                                ",
"                                                                                ",
"                                                                                ",
"                                                                                ",
"                                                                                "
};
