/* XPM */
static char *player_pos_024[] = {
/* columns rows colors chars-per-pixel */
"40 40 246 2 ",
"   c black",
".  c #202020",
"X  c gray3",
"o  c gray1",
"O  c #102A10",
"+  c #020402",
"@  c #061907",
"#  c #000001",
"$  c #020702",
"%  c #081408",
"&  c #071809",
"*  c #020502",
"=  c #030A03",
"-  c #000C00",
";  c #000500",
":  c #132F15",
">  c #020802",
",  c #000900",
"<  c #001600",
"1  c #030504",
"2  c #000800",
"3  c #050804",
"4  c #020A04",
"5  c #010701",
"6  c #000100",
"7  c #030402",
"8  c #163F1C",
"9  c #75FF7C",
"0  c #010101",
"q  c #0F2911",
"w  c #225222",
"e  c #204C20",
"r  c #050B05",
"t  c #359A34",
"y  c #070A07",
"u  c #010001",
"i  c #132710",
"p  c white",
"a  c #09120A",
"s  c #020302",
"d  c #010502",
"f  c #061408",
"g  c #54B758",
"h  c #030603",
"j  c #010401",
"k  c #2A612C",
"l  c #010301",
"z  c #0E1E0F",
"x  c #040B05",
"c  c #071007",
"v  c #040603",
"b  c #010201",
"n  c #0D200D",
"m  c #0A1509",
"M  c #112C11",
"N  c #071207",
"B  c #030B03",
"V  c #040D04",
"C  c #010B00",
"Z  c #021700",
"A  c #2A6A2E",
"S  c #0E220E",
"D  c #061008",
"F  c #010202",
"G  c #010100",
"H  c #000400",
"J  c #000300",
"K  c #46A34A",
"L  c #0D200F",
"P  c #060D07",
"I  c black",
"U  c #010200",
"Y  c #060E06",
"T  c #112912",
"R  c #071409",
"E  c black",
"W  c #040A04",
"Q  c #122D13",
"!  c #1C461E",
"~  c #225524",
"^  c #102911",
"/  c #020703",
"(  c black",
")  c #010501",
"_  c #193A1A",
"`  c #1C481E",
"'  c #0D200E",
"]  c #030A04",
"[  c black",
"{  c black",
"}  c #0F2410",
"|  c #183C1A",
" . c #0B1D0B",
".. c black",
"X. c #030703",
"o. c #255527",
"O. c #1C451E",
"+. c #0B1B0C",
"@. c black",
"#. c #142C15",
"$. c #163517",
"%. c #0B180B",
"&. c black",
"*. c #0C200D",
"=. c #0C1E0C",
"-. c #122B12",
";. c black",
":. c #040B05",
">. c #2C642E",
",. c #204720",
"<. c black",
"1. c #010000",
"2. c #112912",
"3. c #1A3F1B",
"4. c #1B421C",
"5. c #173918",
"6. c #183919",
"7. c #439B47",
"8. c #429845",
"9. c #235125",
"0. c black",
"q. c #102311",
"w. c #2B622D",
"e. c #163518",
"r. c #327435",
"t. c #357B38",
"y. c #060E07",
"u. c #17361A",
"i. c #39833C",
"p. c #429746",
"a. c #1C3F1C",
"s. c black",
"d. c #112813",
"f. c #347838",
"g. c #4AAB4E",
"h. c #2E6931",
"j. c #010201",
"k. c #0A180A",
"l. c #2C662F",
"z. c #3B893E",
"x. c #122A13",
"c. c black",
"v. c black",
"b. c #265628",
"n. c None",
"m. c #235225",
"M. c #030703",
"N. c black",
"B. c black",
"V. c #224F25",
"C. c #419745",
"Z. c #235325",
"A. c #215424",
"S. c #143416",
"D. c #010000",
"F. c #132D15",
"G. c #39843D",
"H. c #1C461E",
"J. c #081308",
"K. c #040703",
"L. c #316E33",
"P. c #193C1A",
"I. c #050D05",
"U. c #030703",
"Y. c #2E6B31",
"T. c #46A049",
"R. c #377F3A",
"E. c #1A3D1D",
"W. c black",
"Q. c #000100",
"!. c #1B3C1C",
"~. c #47A44B",
"^. c #3E8E41",
"/. c #2D672F",
"(. c #224E23",
"). c #0C1D0D",
"_. c #040A05",
"`. c #0F210F",
"'. c #39833C",
"]. c #419645",
"[. c #347837",
"{. c #245326",
"}. c #1D421E",
"|. c #0B190B",
" X c black",
".X c #080F07",
"XX c #142E16",
"oX c #2D672F",
"OX c #3D8C40",
"+X c #39833C",
"@X c #295D2B",
"#X c #1C401F",
"$X c #122913",
"%X c black",
"&X c black",
"*X c black",
"=X c #030803",
"-X c #142F15",
";X c #132D14",
":X c #0D210F",
">X c black",
",X c #357A38",
"<X c #37803B",
"1X c #337836",
"2X c #2C6C2F",
"3X c #377E39",
"4X c #4DAF50",
"5X c #4CAE50",
"6X c #47A14A",
"7X c #3E8E41",
"8X c #368139",
"9X c #29652C",
"0X c #49A84D",
"qX c #4DB050",
"wX c #4CAD50",
"eX c #46A14A",
"rX c #3F9142",
"tX c #2E6F31",
"yX c #3D8D41",
"uX c #4DB151",
"iX c #4CAF50",
"pX c #4BAD50",
"aX c #377F3A",
"sX c #4DB051",
"dX c #429946",
"fX c #38833C",
"gX c #285F2B",
"hX c #4AAA4E",
"jX c #3D8C40",
"kX c #47A34B",
"lX c #4CB050",
"zX c #4CAF51",
"xX c #48A64C",
"cX c #4CB051",
"vX c #4DAE50",
"bX c #47A54B",
"nX c #4DAF51",
"mX c #48A54C",
"MX c #357937",
"NX c #265C29",
"BX c #4CAD4F",
"VX c #3B893E",
"CX c #49A74D",
"ZX c #439946",
"AX c #4BAD4F",
"SX c white",
/* pixels */
"                                                                                ",
"                                                                                ",
"                                                                                ",
"                                                                                ",
"                                                                                ",
"                                                                                ",
"                                                                                ",
"                                      . X o                                     ",
"                                    O + @ I I #                                 ",
"                                  $ % U Y T R E & + * =                         ",
"                                - ; I W Q ! ~ ^ / ( : > , ,                     ",
"                                < 1 ) _ ,X<X1X2X` ' ] [   2                     ",
"                              3 4 { } 3X4X5X6X7X8X9X|  ...5                     ",
"                    6 6 6     7 8 X.o.0XqX4X4XwXeXrXtXO.+.9 0                   ",
"                        q w e r @.#.yXuXiXiX5XiXiXpXaX$.%.t y                   ",
"                  u   &.*.=.-.;.:.>.5XiXiXiXiXiXiXsXdX,.<.i 0                   ",
"                    p 1.2.3.4.5.6.7.iXiXiXiXiXiXiXiX8.9.[ a                     ",
"                  s 0.q.w.fXgXe.r.iXiXiXiXiXiXiXiXhXt.y.                        ",
"                  d   u.i.uX0XjXkXqX5XiXiXiXiXiX5Xp.a.s.                        ",
"                  f g d.f.lXzXuXqXiXiXiXiXiXiXiXg.h.j.h                         ",
"                  j k k.l.xXiXiXiXiXiX4XzXiXiXcXz.x.c.l                         ",
"                    z v.b.n.sXvXiXiX5X5XiXiXcXbXm.M.N.x                         ",
"                    c B.V.C.zXnXiXiXiXiXiXiXsX7XZ.A.S.D.v                       ",
"                    b 0.F.G.sXzXiXzXiXiXiXiXnXmXMXNXH.J.n                       ",
"                      m K.L.BXiX4XzXiXiXiXiX4XqXqXVXP.I.M                       ",
"                      N U.Y.0XnX5XnX5X5XiXsX4XCXT.R.E.W.                        ",
"                      B Q.!.ZXsX5X4XiXzX5X~.^./.(.)._.I                         ",
"                          `.'.AXiXiXxX].[.{.}.|. X  V                           ",
"                        c .XXXoXOX+X@X#X$X%X&Xp ; C Z                           ",
"                          A *X=X-X;X:X>Xp S D F                                 ",
"                        G H H J   K L   P                                       ",
"                                                                                ",
"                                                                                ",
"                                                                                ",
"                                                                                ",
"                                                                                ",
"                                                                                ",
"                                                                                ",
"                                                                                ",
"                                                                                "
};
