/* XPM */
static char *player_pos_029[] = {
/* columns rows colors chars-per-pixel */
"40 40 244 2 ",
"   c black",
".  c #030603",
"X  c #020402",
"o  c #020502",
"O  c #040704",
"+  c #030805",
"@  c #071207",
"#  c #27602A",
"$  c #091407",
"%  c white",
"&  c #020302",
"*  c #071007",
"=  c #072B08",
"-  c #4FC650",
";  c #020702",
":  c #0F200E",
">  c #0C220D",
",  c #122913",
"<  c #030803",
"1  c #030703",
"2  c #215B25",
"3  c #061206",
"4  c #060E06",
"5  c #3E5C3A",
"6  c #050000",
"7  c #090809",
"8  c #031401",
"9  c #010000",
"0  c #090909",
"q  c #030704",
"w  c #143116",
"e  c #010201",
"r  c #020802",
"t  c #0D220E",
"y  c #2B622C",
"u  c #020703",
"i  c #112811",
"p  c #091A0B",
"a  c #040A04",
"s  c #193B1E",
"d  c #020000",
"f  c #020602",
"g  c #040000",
"h  c #0D180B",
"j  c #6EFE6F",
"k  c #020401",
"l  c #0C170E",
"z  c #5DE264",
"x  c #050B06",
"c  c #081008",
"v  c #060D06",
"b  c #74FF77",
"n  c #37943A",
"m  c #020202",
"M  c black",
"N  c black",
"B  c #030002",
"V  c #010102",
"C  c #030703",
"Z  c #0C1F0D",
"A  c #153517",
"S  c #0E2410",
"D  c #010100",
"F  c black",
"G  c #020402",
"H  c #060F05",
"J  c #112C12",
"K  c #1B441D",
"L  c None",
"P  c #1D471F",
"I  c #0D200E",
"U  c #081307",
"Y  c #061107",
"T  c #0C200C",
"R  c #183E1A",
"E  c #245C26",
"W  c #265727",
"Q  c #152D14",
"!  c #040703",
"~  c #061206",
"^  c #19401B",
"/  c #28652B",
"(  c #357A38",
")  c #081208",
"_  c black",
"`  c #09170A",
"'  c #173A19",
"]  c #429946",
"[  c #193A1A",
"{  c black",
"}  c #030803",
"|  c #1E4720",
" . c #48A64C",
".. c #2F6C31",
"X. c black",
"o. c black",
"O. c #1D441E",
"+. c #3C8A3F",
"@. c #081509",
"#. c black",
"$. c #132C14",
"%. c #449D48",
"&. c #204A21",
"*. c black",
"=. c black",
"-. c #061107",
";. c #020802",
":. c #050804",
">. c #2E6830",
",. c #4BAD4F",
"<. c #2C642E",
"1. c #0C1F0D",
"2. c #1D4A20",
"3. c #1E4C20",
"4. c #0F260F",
"5. c #060D05",
"6. c #010101",
"7. c #1B3E1C",
"8. c #3A873D",
"9. c #204E22",
"0. c #235626",
"q. c #204D22",
"w. c #0C1D0D",
"e. c black",
"r. c black",
"t. c #071008",
"y. c #3A853D",
"u. c #3E8F42",
"i. c #1E4520",
"p. c black",
"a. c #030603",
"s. c #275928",
"d. c #39843C",
"f. c #153217",
"g. c black",
"h. c #030703",
"j. c #112E13",
"k. c #143216",
"l. c #2F6D31",
"z. c #0C1C0C",
"x. c #0A190A",
"c. c #173A18",
"v. c #1C471E",
"b. c #153518",
"n. c #235024",
"m. c #010200",
"M. c black",
"N. c #0F2811",
"B. c #1C471E",
"V. c #39833C",
"C. c #173619",
"Z. c black",
"A. c black",
"S. c #0A190B",
"D. c #2B642D",
"F. c #2E6C32",
"G. c #050D07",
"H. c black",
"J. c #0B150A",
"K. c #275A29",
"L. c #449C47",
"P. c #234F25",
"I. c black",
"U. c #0F180B",
"Y. c #122B14",
"T. c #1D431F",
"R. c #367C39",
"E. c #449F48",
"W. c #3C8B40",
"Q. c #112713",
"!. c #050B06",
"~. c #193A1B",
"^. c #285B2A",
"/. c #38813B",
"(. c #29602C",
"). c #0B1B0C",
"_. c #040605",
"`. c #163319",
"'. c #2D6830",
"]. c #3C8A3F",
"[. c #3D8C40",
"{. c #1C411E",
"}. c #000101",
"|. c black",
" X c #0B1C0C",
".X c #19371A",
"XX c #255427",
"oX c #409244",
"OX c #449C48",
"+X c #2E6A30",
"@X c #0E230F",
"#X c #081309",
"$X c #18361A",
"%X c #285E2B",
"&X c #285C2A",
"*X c #122B14",
"=X c #071208",
"-X c #040C03",
";X c #060306",
":X c #040704",
">X c #010301",
",X c #2D6F30",
"<X c #37823A",
"1X c #3D8E41",
"2X c #3A853D",
"3X c #317533",
"4X c #409243",
"5X c #47A34B",
"6X c #4BAD4F",
"7X c #4DAF50",
"8X c #46A04A",
"9X c #2C682F",
"0X c #49A74D",
"qX c #4CAF51",
"wX c #4CAF50",
"eX c #4CAE50",
"rX c #46A14A",
"tX c #4DB151",
"yX c #4DB051",
"uX c #3B883E",
"iX c #4DB251",
"pX c #4BAC4F",
"aX c #459E48",
"sX c #4CB051",
"dX c #225124",
"fX c #39823C",
"gX c #3B863D",
"hX c #47A34A",
"jX c #4DAF51",
"kX c #4CB050",
"lX c #449D48",
"zX c #4AAB4E",
"xX c #38803B",
"cX c #4DB050",
"vX c #439745",
"bX c #275D2A",
"nX c #367D39",
"mX c #48A54C",
"MX c #49A84D",
"NX c #49A94D",
"BX c #429846",
"VX c #4DAE50",
"CX c #49A64D",
"ZX c white",
/* pixels */
"                                                                                ",
"                                                                                ",
"                                                                                ",
"                                                                                ",
"                                                                                ",
"                                                                                ",
"                                . X o                                           ",
"                            O O + @ M N # $ %                                   ",
"                            & B V C Z A S D *                                   ",
"                      =   F G H J K L P I U -                                   ",
"                    ; N Y T R E ,X<X1X2XW Q ! :                                 ",
"                    > ~ ^ / 3X<X4X5X6X7X8X( ) ,                                 ",
"                    _ ` ' 9X4X0XqXwXwX7XeX] [ M                                 ",
"                    { } | rXtX7XeXwXqXwXwX ...X.                                ",
"                    < o.O.rXyXwXwXwXwXwXwXeX+.@._ 1 2 3                         ",
"                    4 #.$.uXiXeXwXwXwXwXwXyX%.&.*.=.-.;.5   6                   ",
"                    7 8 :.>.pXwXwXwXqXwXwXwX,.<.1.2.3.4.5.{ 9                   ",
"                    0 q 6.7.aXsXwXwXwXeXwXwXtX8.9.0.dXq.w.e.&                   ",
"                      & r.t.y.wXqXeXwXwXwXwXwX0XfXgXhXu.i.p.w                   ",
"                    9   e a.s.pXeXeXwXwXwX7XwXjXeX7XkXd.f.g.r                   ",
"                    t _ h.j.k.lX7XwXwX7XwXeXwXwXwXjXzXl.z.y                     ",
"                  u _ x.c.v.b.xXcXwXwXwXwXwXeXwX7XyXvXn.m.i                     ",
"                  p M.N.B.bXnXmXwXwXwXwXwXwXeXwX7XeXV.C.Z.o                     ",
"                  a A.S.D.MXsXqXwXwXwXwXwXwXwXwXwXNXF.G.s                       ",
"                  d H.J.K.BXeXwX7XVXjX7XwXwXwXwXwXL.P.I.f                       ",
"                  6   U.Y.T.R.E.6XwXwXwXwX7X7XwXeXW.Q.r.                        ",
"                  g   h { !.~.^./.mX7X7XwX7XeX7X0X(.).j                         ",
"                          % g._.`.'.].CX7X7XwXwX[.{.}.                          ",
"                            k l |. X.XXXoX0XNXOX+X@X_                           ",
"                                  z g.#X$X%X&X*X=X-Xx                           ",
"                                c e v _ ;X:X>XF b n                             ",
"                                        0 m                                     ",
"                                                                                ",
"                                                                                ",
"                                                                                ",
"                                                                                ",
"                                                                                ",
"                                                                                ",
"                                                                                ",
"                                                                                "
};
