/* XPM */
static char *player_pos_019[] = {
/* columns rows colors chars-per-pixel */
"40 40 139 2 ",
"   c None",
".  c #020703",
"X  c #040B05",
"o  c #091508",
"O  c #0B180B",
"+  c #0C1D0D",
"@  c #0F1F0E",
"#  c #0C200D",
"$  c #0E2310",
"%  c #0F2610",
"&  c #0F2711",
"*  c #102611",
"=  c #102911",
"-  c #112812",
";  c #102B12",
":  c #122E14",
">  c #163217",
",  c #143517",
"<  c #163817",
"1  c #163418",
"2  c #173818",
"3  c #173A19",
"4  c #173B19",
"5  c #193B1A",
"6  c #183F19",
"7  c #1A3C1B",
"8  c #18391C",
"9  c #1A3F1C",
"0  c #1B3E1D",
"q  c #1B401D",
"w  c #1A421D",
"e  c #1D401D",
"r  c #1C411D",
"t  c #1C411E",
"y  c #1D431E",
"u  c #1B451E",
"i  c #1C441E",
"p  c #1D441F",
"a  c #1C471F",
"s  c #1E471F",
"d  c #1C481E",
"f  c #1D481F",
"g  c #1D4B1F",
"h  c #1E4320",
"j  c #1F4821",
"k  c #1D4B20",
"l  c #224E24",
"z  c #224F24",
"x  c #224F25",
"c  c #205022",
"v  c #215323",
"b  c #255627",
"n  c #245727",
"m  c #245927",
"M  c #255C27",
"N  c #255628",
"B  c #265728",
"V  c #275929",
"C  c #285C2A",
"Z  c #295E2A",
"A  c #295F2B",
"S  c #2A612D",
"D  c #2B622D",
"F  c #2B642D",
"G  c #2D672E",
"H  c #2A692D",
"J  c #2C682F",
"K  c #2E6A30",
"L  c #2F6B31",
"P  c #2E6D31",
"I  c #306D32",
"U  c #317133",
"Y  c #317733",
"T  c #317134",
"R  c #317035",
"E  c #327234",
"W  c #327734",
"Q  c #337636",
"!  c #347837",
"~  c #357A37",
"^  c #347938",
"/  c #367C39",
"(  c #367D39",
")  c #377E3A",
"_  c #368139",
"`  c #37803A",
"'  c #38813B",
"]  c #38843B",
"[  c #38853C",
"{  c #3B873D",
"}  c #3A873E",
"|  c #3B873E",
" . c #3C893F",
".. c #3D8C40",
"X. c #3D8D40",
"o. c #3D8E41",
"O. c #3F9242",
"+. c #409343",
"@. c #409443",
"#. c #419645",
"$. c #419745",
"%. c #429946",
"&. c #429A46",
"*. c #439A47",
"=. c #449B47",
"-. c #459E48",
";. c #459E49",
":. c #459F49",
">. c #46A049",
",. c #46A149",
"<. c #47A34A",
"1. c #47A34B",
"2. c #47A44B",
"3. c #47A54B",
"4. c #48A64C",
"5. c #4AA84D",
"6. c #49A94E",
"7. c #4AA94E",
"8. c #49AA4E",
"9. c #4BAA4E",
"0. c #4AAB4E",
"q. c #4BAB4E",
"w. c #4BAB4F",
"e. c #4BAC4F",
"r. c #4BAD4F",
"t. c #4CAC4F",
"y. c #4CAD4F",
"u. c #4CAE50",
"i. c #4DAE50",
"p. c #4CAF50",
"a. c #4DAF50",
"s. c #4CAE51",
"d. c #4CAF51",
"f. c #4DAF51",
"g. c #4CB050",
"h. c #4DB050",
"j. c #4CB051",
"k. c #4DB051",
"l. c #4DB151",
/* pixels */
"                                                                                ",
"                                                                                ",
"                                                                                ",
"                                                                                ",
"                                                                                ",
"                                                                                ",
"                                                                                ",
"                                                                                ",
"                                                                                ",
"                                                                                ",
"                                + &                                             ",
"                              N I n 4                                           ",
"                            h  .0.` g g               X .                       ",
"                          y ' y.k.+.a 6     O + - q V Z a <                     ",
"                          ( 0.p.k.3.z 1 j D ^ O.3.0.0.0.! c g                   ",
"                        R 1.p.p.p.p.1.e.p.p.p.p.p.p.p.k.=.W c                   ",
"                      Z &.p.p.p.p.p.p.p.p.p.p.p.p.p.p.k.3.] M #                 ",
"                    a X.y.p.p.p.p.p.p.p.p.p.p.p.p.p.p.p.0.X.H &                 ",
"                  > ( e.p.p.p.p.p.p.p.p.p.p.p.p.p.p.p.p.p.#.Y -                 ",
"                  K y.p.p.p.p.p.p.p.p.p.p.p.p.p.p.p.p.p.k.-.` ,                 ",
"                z &.k.p.p.p.p.p.p.p.p.p.p.p.p.p.p.p.p.p.k.1.[ u                 ",
"                9 4.k.p.p.p.p.p.p.p.p.p.p.p.p.p.p.p.p.p.k.-.P j                 ",
"                1 #.k.p.p.p.p.p.p.p.p.p.p.p.p.p.p.p.p.e.4.! 4 :                 ",
"                  W 1.p.p.p.p.p.p.p.p.p.p.k.p.p.p.0.-.@.( 6 o                   ",
"                    G +.e.p.p.p.p.p.p.p.e.&.[ ! J n z                           ",
"                      y R 1.p.p.p.p.p.0.U a *                                   ",
"                          N [ 1.0.p.p.0.D m -                                   ",
"                            8 Z [ 1.p.0.R m q                                   ",
"                                5 F X.1.R 9 4                                   ",
"                                    y K y $                                     ",
"                                                                                ",
"                                                                                ",
"                                                                                ",
"                                                                                ",
"                                                                                ",
"                                                                                ",
"                                                                                ",
"                                                                                ",
"                                                                                ",
"                                                                                "
};
