/* XPM */
static char *player_pos_028[] = {
/* columns rows colors chars-per-pixel */
"40 40 141 2 ",
"   c None",
".  c #030703",
"X  c #040B04",
"o  c #091608",
"O  c #0B190B",
"+  c #0D1D0C",
"@  c #0F1F0E",
"#  c #0C200D",
"$  c #0E220F",
"%  c #0F2510",
"&  c #0F2710",
"*  c #102611",
"=  c #112712",
"-  c #102911",
";  c #102B12",
":  c #122E14",
">  c #163216",
",  c #153517",
"<  c #163817",
"1  c #163418",
"2  c #173818",
"3  c #173A19",
"4  c #173B19",
"5  c #18391B",
"6  c #193B1A",
"7  c #1A3D1B",
"8  c #183F1A",
"9  c #193E1B",
"0  c #1B3E1D",
"q  c #1B401D",
"w  c #1A421C",
"e  c #1D411D",
"r  c #1C411E",
"t  c #1C421E",
"y  c #1D431E",
"u  c #1C451D",
"i  c #1C451E",
"p  c #1E441F",
"a  c #1D471F",
"s  c #1E471F",
"d  c #1C481E",
"f  c #1D481F",
"g  c #1E4B1F",
"h  c #1E4420",
"j  c #1F4821",
"k  c #1D4B20",
"l  c #224E24",
"z  c #224F24",
"x  c #224F25",
"c  c #205022",
"v  c #215324",
"b  c #245627",
"n  c #245827",
"m  c #245927",
"M  c #255C27",
"N  c #255628",
"B  c #265728",
"V  c #275829",
"C  c #285C2A",
"Z  c #295E2A",
"A  c #2A5E2B",
"S  c #2A612D",
"D  c #2B622C",
"F  c #2B642D",
"G  c #2D672F",
"H  c #2A692D",
"J  c #2C6730",
"K  c #2E6A31",
"L  c #2F6B31",
"P  c #2E6D31",
"I  c #306E32",
"U  c #317033",
"Y  c #317034",
"T  c #317134",
"R  c #327235",
"E  c #307734",
"W  c #327735",
"Q  c #337636",
"!  c #347837",
"~  c #347937",
"^  c #357937",
"/  c #357A38",
"(  c #367C39",
")  c #367D39",
"_  c #377E3A",
"`  c #368139",
"'  c #37803A",
"]  c #38813B",
"[  c #38843B",
"{  c #39853C",
"}  c #3B873D",
"|  c #3A873E",
" . c #3B873E",
".. c #3C893F",
"X. c #3D8D40",
"o. c #3D8E41",
"O. c #3F9242",
"+. c #3F9344",
"@. c #409343",
"#. c #409444",
"$. c #419545",
"%. c #419746",
"&. c #429946",
"*. c #439A46",
"=. c #439A47",
"-. c #449B48",
";. c #459E49",
":. c #459F49",
">. c #46A049",
",. c #46A149",
"<. c #46A14A",
"1. c #47A34B",
"2. c #47A44B",
"3. c #48A44B",
"4. c #48A64C",
"5. c #48A74D",
"6. c #49A84D",
"7. c #49A94E",
"8. c #49AA4E",
"9. c #4AAA4E",
"0. c #4AAB4E",
"q. c #4BAB4E",
"w. c #4AAA4F",
"e. c #4BAB4F",
"r. c #4BAC4F",
"t. c #4BAD4F",
"y. c #4BAE4F",
"u. c #4CAD4F",
"i. c #4BAE50",
"p. c #4CAE50",
"a. c #4DAE50",
"s. c #4CAF50",
"d. c #4DAF50",
"f. c #4CAE51",
"g. c #4CAF51",
"h. c #4DAF51",
"j. c #4CB050",
"k. c #4DB050",
"l. c #4CB051",
"z. c #4DB051",
"x. c #4DB151",
/* pixels */
"                                                                                ",
"                                                                                ",
"                                                                                ",
"                                                                                ",
"                                                                                ",
"                                                                                ",
"                                                                                ",
"                                                                                ",
"                                # % ; , a g :                                   ",
"                            k c M H W ` { P 2 o                                 ",
"                          < v W [ X.#.:.1.:.! 7                                 ",
"                        . a ! -.2.w.s.z.z.z.5._                                 ",
"                        X Z w.z.z.s.s.s.s.s.t.#.                                ",
"                          V w.s.s.s.s.s.s.s.s.:.l                               ",
"                          q w.s.s.s.s.s.s.s.s.w.b                               ",
"                          = 3.s.s.s.s.s.s.s.s.i.J                               ",
"                          + O.s.s.s.s.s.s.s.s.s./                               ",
"                          O ! s.s.s.s.s.s.s.s.z.{ = ; q 2                       ",
"                            S s.s.s.s.s.s.s.s.z.*.a m m 7 #                     ",
"                            k s.s.s.s.s.s.s.s.s.t.U S T T t                     ",
"                        g 7 1 t.s.s.s.s.s.s.s.s.s.w.w.w.1.K                     ",
"                      2 g a l 1.s.s.s.s.s.s.s.s.s.s.s.s.X.t                     ",
"                    % m ` +.2.s.s.s.s.s.s.s.s.s.s.s.s.1.F                       ",
"                    + I w.z.z.s.s.s.s.s.s.s.s.s.s.s.t.{ 6                       ",
"                      B ..u.s.s.s.s.s.s.s.s.s.s.s.s.1.Z                         ",
"                        h ] w.s.s.s.s.s.s.s.s.s.s.t.{ 6                         ",
"                          t _ 1.s.s.s.s.s.s.s.s.s.2.B                           ",
"                              T *.u.s.s.s.s.s.s.t.T                             ",
"                                Z X.t.s.s.s.s.z.@.t                             ",
"                                  a _ w.z.s.z.1.G                               ",
"                                    > K *.5.#.W                                 ",
"                                        l 0 1                                   ",
"                                                                                ",
"                                                                                ",
"                                                                                ",
"                                                                                ",
"                                                                                ",
"                                                                                ",
"                                                                                ",
"                                                                                "
};
