/* XPM */
static char *player_pos_027[] = {
/* columns rows colors chars-per-pixel */
"40 40 164 2 ",
"   c black",
".  c #010000",
"X  c #000001",
"o  c #010100",
"O  c #000100",
"+  c #000101",
"@  c black",
"#  c #000001",
"$  c #010201",
"%  c #010301",
"&  c #010401",
"*  c #020502",
"=  c #030702",
"-  c #040905",
";  c #050D04",
":  c #020602",
">  c black",
",  c black",
"<  c #050D06",
"1  c #020003",
"2  c black",
"3  c #000100",
"4  c #000100",
"5  c black",
"6  c #000201",
"7  c black",
"8  c #070F07",
"9  c black",
"0  c #050C05",
"q  c black",
"w  c #050904",
"e  c #000100",
"r  c #030703",
"t  c black",
"y  c #020402",
"u  c #000002",
"i  c #010302",
"p  c #000001",
"a  c #010200",
"s  c #000002",
"d  c #000100",
"f  c black",
"g  c #010000",
"h  c #000100",
"j  c #000001",
"k  c #010000",
"l  c #010000",
"z  c black",
"x  c #000100",
"c  c #070F06",
"v  c black",
"b  c black",
"n  c #020000",
"m  c black",
"M  c black",
"N  c #030002",
"B  c #000100",
"V  c black",
"C  c None",
"Z  c #010100",
"A  c black",
"S  c #050A05",
"D  c black",
"F  c black",
"G  c black",
"H  c black",
"J  c #000003",
"K  c #000002",
"L  c black",
"P  c #000100",
"I  c #010100",
"U  c #040905",
"Y  c black",
"T  c #020602",
"R  c black",
"E  c #010000",
"W  c #070E07",
"Q  c black",
"!  c #060C06",
"~  c black",
"^  c black",
"/  c black",
"(  c #010101",
")  c #000301",
"_  c black",
"`  c black",
"'  c #358639",
"]  c #36893A",
"[  c #358638",
"{  c #348538",
"}  c #328036",
"|  c #327E35",
" . c #307B34",
".. c #2F7632",
"X. c #327E36",
"o. c #29692C",
"O. c #235A27",
"+. c #09150A",
"@. c #275A29",
"#. c #2D682F",
"$. c #317033",
"%. c #347736",
"&. c #377E3A",
"*. c #3B853D",
"=. c #3D8B40",
"-. c #2F6A31",
";. c #050D06",
":. c #122C12",
">. c #245426",
",. c #4CAF51",
"<. c #4CAF50",
"1. c #4CAE50",
"2. c #4DAF51",
"3. c #4CAE51",
"4. c #050A04",
"5. c #4DAE50",
"6. c #4DAF50",
"7. c #377D38",
"8. c #439B47",
"9. c #449E49",
"0. c #47A34A",
"q. c #48A64C",
"w. c #49A84D",
"e. c #4AAB4E",
"r. c #4DAE51",
"t. c #4BAC4F",
"y. c #4AAD4F",
"u. c #143314",
"i. c #235825",
"p. c #255F28",
"a. c #060F07",
"s. c #4AAE4F",
"d. c #102811",
"f. c #398C3C",
"g. c #388D3D",
"h. c #358739",
"j. c #27642A",
"k. c #1B451D",
"l. c #0F2610",
"z. c #0D210E",
"x. c #235025",
"c. c #152D15",
"v. c #163419",
"b. c #0A160B",
"n. c #1B441D",
"m. c #060F06",
"M. c #46A24B",
"N. c #2C682F",
"B. c #46A149",
"V. c #3B883F",
"C. c #173519",
"Z. c #224F24",
"A. c #122B13",
"S. c #275929",
"D. c #38853D",
"F. c #3A893F",
"G. c #429946",
"H. c #49A54C",
"J. c #48A54D",
"K. c #4AAC4F",
"L. c #102511",
"P. c #245327",
"I. c #1A3C1B",
"U. c white",
/* pixels */
"    .             X       o     .         X                             X       ",
"            O                                   . O           O O             . ",
"                                  .   O           . o               O     O     ",
"      X                       .     O       X                     O     O     O ",
"  .     O                         X O   X O X                               O . ",
"X             O                                     . O     O                 . ",
"    X   +   . X       X     @ # $ % & * = - ; : >     .       O                 ",
"                O X       , < ' ] [ { } |  ...X.o.1             X               ",
"            O           . 2 O.+.@.#.$.%.&.*.=.-.;.:.3                   X X     ",
"O                         4 >.,.<.,.1.2.3.,.,.1.1.4.5     . O               .   ",
"                    O     6 5.3.,.6.1.<.,.1.6.<.<.7.7     .         O     X     ",
".                         8 <.<.6.6.<.1.<.<.<.1.<.8.9                     X   O ",
"          O   O +       . 0 ,.<.6.<.<.<.,.3.3.6.<.9.q       O     X             ",
"  X           X           w <.5.<.5.<.,.<.<.1.<.2.0.e X                   O     ",
"                    .     r 3.1.3.,.5.<.2.<.<.<.<.q.t         X     X   X X X   ",
"                          y ,.<.<.5.<.6.,.<.2.<.3.w.u         X                 ",
"                          i ,.1.<.,.<.<.,.5.6.<.,.e.p         .                 ",
"  X                       a 1.r.,.,.1.6.5.1.1.<.,.t.s           O               ",
"              O     d f g h 1.1.1.<.6.2.<.<.6.<.<.y.h j k l z                   ",
"X                 x u.i.p.a.,.6.3.1.6.1.<.6.6.6.<.s.d.f.g.h.c v                 ",
"              o b j.k.l.z.+.1.<.6.<.<.5.,.<.6.<.,.6.x.c.v.b.n.n                 ",
"        O       m m.M.<.,.<.2.,.<.<.<.1.1.,.<.,.6.2.6.<.6.2.N.M         .       ",
"O O         X   N B.r.<.6.<.1.1.<.<.<.1.1.<.<.2.,.3.<.6.<.<.V.B             X   ",
"              X V C 1.1.6.2.<.,.2.1.1.<.<.<.6.r.<.<.2.<.<.q.Z               X   ",
"      O           A C.1.<.<.,.1.6.,.<.<.<.<.<.<.6.5.r.<.<.S D                   ",
"                    F Z.<.<.<.r.6.<.6.,.6.<.,.<.6.6.1.1.A.f         O     O     ",
"            X         G -.,.<.1.<.<.,.,.<.<.<.1.,.6.<.S.H                 X     ",
"                  O     J D.<.<.6.,.<.r.,.5.,.1.6.1.F.K                     X   ",
"                          L G.,.6.6.<.,.6.<.<.<.,.H.P     X                     ",
"    X   .                   I J.5.1.6.6.r.6.<.3.1.U Y O               O       X ",
"        . X       .   .   O Y T K.r.6.6.1.<.r.<.L.R   O                 X       ",
"  O               .         X E W r.<.<.,.<.6.P.Q       . X   O                 ",
"            O         .   O     R ! G.1.<.e.I.~                             O   ",
"      O                           ^ / ( ) _ `                   .   O     X   O ",
"                      X                                                       X ",
"                o       O                         X .                           ",
"                              .     X X                   .   O         .   .   ",
"  .                               O   X                         X       X       ",
"  X                 .   . X                                             O       ",
"X       O     O           O               O   .     O     .                 O   "
};
