/* XPM */
static char *player_pos_023[] = {
/* columns rows colors chars-per-pixel */
"40 40 206 2 ",
"   c black",
".  c #050E07",
"X  c #071207",
"o  c #000100",
"O  c #000200",
"+  c #3A9043",
"@  c #000101",
"#  c #020604",
"$  c #000500",
"%  c #040804",
"&  c #030604",
"*  c #030A03",
"=  c #000900",
"-  c #020902",
";  c #030704",
":  c #020502",
">  c #B8FFB8",
",  c #143115",
"<  c #1B431C",
"1  c #173A19",
"2  c #020A01",
"3  c #0F0A0F",
"4  c #060E09",
"5  c #255C29",
"6  c #010302",
"7  c #060D07",
"8  c #050C05",
"9  c #0E200F",
"0  c #0F2210",
"q  c #1C401D",
"w  c #000001",
"e  c #0A170A",
"r  c #0B1C0B",
"t  c #091509",
"y  c #52BA57",
"u  c #030804",
"i  c #5CD864",
"p  c #102911",
"a  c #102912",
"s  c #040A04",
"d  c #133115",
"f  c #060F07",
"g  c #2E642F",
"h  c #0A130A",
"j  c #020402",
"k  c black",
"l  c black",
"z  c black",
"x  c black",
"c  c #060F06",
"v  c #112C13",
"b  c #173C19",
"n  c #040B05",
"m  c black",
"M  c black",
"N  c #071209",
"B  c #183919",
"V  c #27622A",
"C  c #193F1B",
"Z  c #030A04",
"A  c black",
"S  c black",
"D  c #050C05",
"F  c #224F24",
"G  c #1A431C",
"H  c #071108",
"J  c #010201",
"K  c #020302",
"L  c #1A3A1A",
"P  c #205022",
"I  c #0D210E",
"U  c #010301",
"Y  c #09190B",
"T  c #09170A",
"R  c #0B1C0C",
"E  c black",
"W  c #153117",
"Q  c #3C8A3F",
"!  c #255C28",
"~  c #102B11",
"^  c black",
"/  c #030202",
"(  c #163517",
")  c #1B421C",
"_  c #1A411B",
"`  c #122D13",
"'  c #122912",
"]  c #38823C",
"[  c #163818",
"{  c #010203",
"}  c #19371A",
"|  c #337736",
" . c #1D481F",
".. c #143015",
"X. c #327334",
"o. c #2B632D",
"O. c #0B1C0B",
"+. c #030603",
"@. c black",
"#. c #245427",
"$. c None",
"%. c #2E6930",
"&. c #040A04",
"*. c #214D23",
"=. c #3D8D40",
"-. c #19381A",
";. c black",
":. c black",
">. c #224E23",
",. c #459E48",
"<. c #429846",
"1. c #224E24",
"2. c black",
"3. c black",
"4. c #235126",
"5. c #449C48",
"6. c #459F49",
"7. c #255427",
"8. c #1C411F",
"9. c #449D48",
"0. c #46A149",
"q. c #255627",
"w. c #020302",
"e. c #183819",
"r. c #449C47",
"t. c #2E6C31",
"y. c #0D210E",
"u. c #010401",
"i. c #1D431F",
"p. c #459E49",
"a. c #255B27",
"s. c #1C461E",
"d. c #081308",
"f. c #163217",
"g. c #3F9043",
"h. c #1B431C",
"j. c #081308",
"k. c #1A3A1A",
"l. c #3D8D40",
"z. c #1A3E1B",
"x. c #040904",
"c. c #0F2310",
"v. c #2F6D32",
"b. c #3C8A3F",
"n. c #357B38",
"m. c #2A5F2C",
"M. c #29602C",
"N. c #102411",
"B. c black",
"V. c black",
"C. c #09160A",
"Z. c #29602B",
"A. c #3F9142",
"S. c #3E8F41",
"D. c #357938",
"F. c #316F33",
"G. c #235125",
"H. c #245126",
"J. c #1A3C1C",
"K. c #132B14",
"L. c #050A06",
"P. c #030C04",
"I. c #050B05",
"U. c #18381A",
"Y. c #193A1B",
"T. c #122713",
"R. c #091309",
"E. c #010101",
"W. c #225325",
"Q. c #419745",
"!. c #439C47",
"~. c #37803A",
"^. c #2F7232",
"/. c #429745",
"(. c #4DB051",
"). c #4AA94E",
"_. c #3F9142",
"`. c #337B36",
"'. c #4CB050",
"]. c #4CAF50",
"[. c #4BAD4F",
"{. c #449D48",
"}. c #39853C",
"|. c #4DAF50",
" X c #459F49",
".X c #2A632C",
"XX c #337837",
"oX c #4CAE50",
"OX c #48A74C",
"+X c #3B883E",
"@X c #317134",
"#X c #49A84D",
"$X c #4CAF51",
"%X c #449B47",
"&X c #4BAC4E",
"*X c #4AAB4E",
"=X c #4DAF51",
"-X c #49A64D",
";X c #2D6830",
":X c #459D48",
">X c #2C672F",
",X c #3F9042",
"<X c #49A74C",
"1X c #4CB051",
"2X c #4BAC4F",
"3X c white",
/* pixels */
"                                                                                ",
"                                                                                ",
"                                                                                ",
"                                                                                ",
"                                                                                ",
"                                                                                ",
"                                                                                ",
"                                                                                ",
"                                            . X   o                             ",
"                                      O   k l z +   @                           ",
"                                    #   x c v b n m O $                         ",
"                                  % & M N B W.V C Z A *                         ",
"                                = - S D F Q.!.~.^.G H J ; :                     ",
"                      >   , < 1 2 3 K L /.(.(.)._.`.P I U : 4                   ",
"                        l Y T R 5 E W Q '.].].].[.{.}.! ~ ^ 6                   ",
"                      S / ( ) _ ` ' ] ].|.].].].].]. X.X[ { 7                   ",
"                      l } | XX ...X.oX].].].].].].].[.o.O.+.8                   ",
"                      @.#.OX].+X@X#X].$X].].$X].].|.$.%.&.                      ",
"                      @.*.%X(.$XoX].oX].].].].].].&X=.-.;.                      ",
"                      :.>.,.].].].].].].oX].].].].<.1.2.9                       ",
"                      3.4.5.].oX].].].].].].].].6.7.E 0                         ",
"                      z 8.9.].].].].].oX].].'.0.q.w.q                           ",
"                      3.e.r.|.].].].].].].].*Xt.y.u.3.                          ",
"                    w S i.p.|.].$X].].].].=X-X;Xa.s.d.e                         ",
"                      S f.g.(.|.$X].].$X].].|.:X>Xh.j.r                         ",
"                      k k.l.'.].].].].$X|.(.(.oX,Xz.x.t                         ",
"                      y c.v.<X1X].[.2XOX{.b.n.m.M.N.B.                          ",
"                      u V.C.Z.A.S.D.F.G.H.J.K.L.P.z o                           ",
"                        6 V.I.U.Y.T.R.E.m S i p a s d                           ",
"                            f k k g h j   o o o                                 ",
"                                                                                ",
"                                                                                ",
"                                                                                ",
"                                                                                ",
"                                                                                ",
"                                                                                ",
"                                                                                ",
"                                                                                ",
"                                                                                ",
"                                                                                "
};
