/* XPM */
static char *player_pos_022[] = {
/* columns rows colors chars-per-pixel */
"40 40 217 2 ",
"   c black",
".  c #000001",
"X  c #050000",
"o  c #010000",
"O  c #050D05",
"+  c #0A190A",
"@  c #020402",
"#  c #0A180A",
"$  c gray1",
"%  c #010001",
"&  c #010502",
"*  c #000402",
"=  c #060904",
"-  c #020000",
";  c #0B130A",
":  c #030904",
">  c #0B1D0E",
",  c #030B05",
"<  c #081908",
"1  c #123712",
"2  c #0A1C0C",
"3  c #020602",
"4  c #040904",
"5  c #1F4320",
"6  c #0C230C",
"7  c #429142",
"8  c #030803",
"9  c #030A03",
"0  c #060906",
"q  c #030202",
"w  c #1D421F",
"e  c #18411A",
"r  c #306B31",
"t  c #061006",
"y  c #030703",
"u  c #091F0C",
"i  c #000400",
"p  c #040804",
"a  c #071008",
"s  c #0E1D0E",
"d  c #010401",
"f  c #0F220F",
"g  c #53D059",
"h  c #3B9240",
"j  c #112912",
"k  c #020202",
"l  c #040C05",
"z  c white",
"x  c #0E170E",
"c  c black",
"v  c #020502",
"b  c #060D05",
"n  c black",
"m  c black",
"M  c #050C05",
"N  c #122D13",
"B  c #1C481F",
"V  c #112D13",
"C  c #000100",
"Z  c #040903",
"A  c #122913",
"S  c #2D672F",
"D  c #266028",
"F  c #0C1F0D",
"G  c black",
"H  c black",
"J  c #071108",
"K  c #020704",
"L  c #061506",
"P  c #030603",
"I  c #1A3B1B",
"U  c #205222",
"Y  c #071207",
"T  c #030204",
"R  c #0A160A",
"E  c #153517",
"W  c #153818",
"Q  c #163B19",
"!  c #040C04",
"~  c #020603",
"^  c #1D431F",
"/  c #1A421C",
"(  c #060E07",
")  c #020001",
"_  c #0C1A0D",
"`  c #2B622D",
"'  c #19401C",
"]  c #0B1D0C",
"[  c #224E23",
"{  c None",
"}  c #183E1A",
"|  c #061106",
" . c #0F2511",
".. c #306F33",
"X. c #285D2A",
"o. c #46A14A",
"O. c #245A26",
"+. c #153616",
"@. c black",
"#. c black",
"$. c #163218",
"%. c #3A863D",
"&. c #193C1A",
"*. c #0C200D",
"=. c black",
"-. c #1C3F1D",
";. c #3F9143",
":. c #39843D",
">. c #0E220F",
",. c #041106",
"<. c black",
"1. c #245327",
"2. c #439A47",
"3. c #2A622C",
"4. c #0B1B0C",
"5. c black",
"6. c #235025",
"7. c #409343",
"8. c #224E24",
"9. c black",
"0. c #050F05",
"q. c #2F6B31",
"w. c #3E8C40",
"e. c #1D411E",
"r. c black",
"t. c #070F07",
"y. c #306E33",
"u. c #327535",
"i. c #132C14",
"p. c black",
"a. c #0D1D0E",
"s. c #39823C",
"d. c #1D461E",
"f. c #0D210E",
"g. c black",
"h. c #0F2210",
"j. c #3B883E",
"k. c #275D2A",
"l. c #215324",
"z. c #081409",
"x. c #040804",
"c. c #2A602C",
"v. c #1C431E",
"b. c #0B1C0C",
"n. c black",
"m. c #09160A",
"M. c #306F33",
"N. c #429745",
"B. c #47A24A",
"V. c #459F49",
"C. c #439946",
"Z. c #409544",
"A. c #46A14A",
"S. c #39833C",
"D. c #173618",
"F. c #040904",
"G. c black",
"H. c #142D15",
"J. c #1E4520",
"K. c #224D23",
"L. c #224C23",
"P. c #1B3C1C",
"I. c #1D421E",
"U. c #214D24",
"Y. c #204921",
"T. c #193A1A",
"R. c #1F4720",
"E. c #183819",
"W. c #060D06",
"Q. c black",
"!. c black",
"~. c black",
"^. c black",
"/. c black",
"(. c black",
"). c #347937",
"_. c #2B672E",
"`. c #39833C",
"'. c #4BAD4F",
"]. c #4CAF50",
"[. c #439946",
"{. c #347C37",
"}. c #409243",
"|. c #4CB050",
" X c #4DAF50",
".X c #439845",
"XX c #337B36",
"oX c #39853C",
"OX c #29612B",
"+X c #4DB151",
"@X c #429846",
"#X c #327835",
"$X c #439B47",
"%X c #214E23",
"&X c #4CAF51",
"*X c #4BAC4F",
"=X c #3C8C40",
"-X c #4DB051",
";X c #46A049",
":X c #49A94D",
">X c #4DAF51",
",X c #4CAE50",
"<X c #419444",
"1X c #4CB051",
"2X c #4CAD4F",
"3X c #449E48",
"4X c #4BAD50",
"5X c #48A54C",
"6X c #4AAA4E",
"7X c #4CAE4F",
"8X c #4AA94D",
"9X c #39843C",
"0X c #48A74C",
"qX c #4DB050",
"wX c #347837",
"eX c #449B47",
"rX c white",
/* pixels */
"                                                                                ",
"                                                                                ",
"                                                                                ",
"                                                                                ",
"                                                                                ",
"                                                                                ",
"                                                                                ",
"                                                                                ",
"                                          . . .   X o                           ",
"                                              O + @ #                           ",
"                                        $ % c v b n & *                         ",
"                                    = - ; m M N B V C :                         ",
"                            > , < 1   2 Z A S )._.D F G 3 4                     ",
"                      5 @ H J K L 6 7 P I `.'.].[.{.U Y n 8 9                   ",
"                      0 T R E W Q ! ~ ^ }.|. X X X.XXX/ ( ) q                   ",
"                      w _ ` oXOX' ] [ { +X].].].].'.@X#X} | e                   ",
"                      r  ...].$X%XX.o.&X].].].].].].*X=XO.+.@.t                 ",
"                      #.$.%.-X].;X:X>X,X&X].].&X].].-X<X&.*.=.y                 ",
"                      @.-.;.1X].|.|.].,X&X,X].&X].].2X:.>.,.u                   ",
"                      <.1.3X&X].].].].].].].].].].4X2.3.4.=.                    ",
"                      5.6.5X&X X].,X,X].].].].].,X7.8.9.#.                      ",
"                    i 0.q.6X].].].].].].].&X].7Xw.e.r.#.                        ",
"                    p t.y.*X].].&X X].]. X>X8Xu.i.p.a                           ",
"                    s a.s.,X].].].].].]. X X9Xd.f.g.d                           ",
"                    f h.j.].].].].].,X].]. X}.k.l.z.g                           ",
"                    y x.c.0X]. X].].].qX-X-X].wXv.b.h                           ",
"                      n.m.M.N.eXB.V.V.{ C.Z.A.S.D.F.j                           ",
"                      k G.H.J.K.L.P.I.U.Y.T.R.E.W.Q.                            ",
"                        l z !.!.~.^./.(./.(.@.@.#.  x                           ",
"                                                                                ",
"                                                                                ",
"                                                                                ",
"                                                                                ",
"                                                                                ",
"                                                                                ",
"                                                                                ",
"                                                                                ",
"                                                                                ",
"                                                                                ",
"                                                                                "
};
