/* XPM */
static char *player_pos_031[] = {
/* columns rows colors chars-per-pixel */
"40 40 213 2 ",
"   c black",
".  c #061006",
"X  c #030703",
"o  c #030A03",
"O  c #020202",
"+  c #18411A",
"@  c #0C1F0C",
"#  c #040904",
"$  c #030803",
"%  c #020602",
"&  c #000202",
"*  c #030804",
"=  c #0A180A",
"-  c #010302",
";  c #071008",
":  c #020401",
">  c #52D059",
",  c #3A923E",
"<  c #112912",
"1  c #0E170E",
"2  c #020402",
"3  c #0A190B",
"4  c #050D05",
"5  c #010001",
"6  c gray1",
"7  c #0B130A",
"8  c #020000",
"9  c #0A1C0C",
"0  c #060904",
"q  c #429242",
"w  c #123712",
"e  c #0C230C",
"r  c #081908",
"t  c #030B05",
"y  c #0B1D0E",
"u  c white",
"i  c #040C05",
"p  c #1E4320",
"a  c #060906",
"s  c #1D421F",
"d  c #306B30",
"f  c #000400",
"g  c #040804",
"h  c #0E1D0E",
"j  c #0F210F",
"k  c #030603",
"l  c #010000",
"z  c black",
"x  c black",
"c  c #010001",
"v  c #061106",
"b  c #153616",
"n  c #0D200D",
"m  c #061106",
"M  c black",
"N  c #070E07",
"B  c #193E1A",
"V  c #245A27",
"C  c #193C1A",
"Z  c #0F220F",
"A  c #0B1B0C",
"S  c black",
"D  c black",
"F  c #071207",
"G  c #1A421C",
"H  c #39843D",
"J  c #2A622C",
"K  c black",
"L  c black",
"P  c #0C1F0D",
"I  c #205222",
"U  c #439947",
"Y  c #224E24",
"T  c black",
"R  c #112D13",
"E  c #266029",
"W  c #409343",
"Q  c #1C411E",
"!  c black",
"~  c black",
"^  c #081408",
"/  c #0B1C0C",
"(  c #040904",
")  c black",
"_  c #060D06",
"`  c #1C481F",
"'  c #3D8C40",
"]  c #132D14",
"[  c #0D210E",
"{  c #215224",
"}  c #1C431D",
"|  c #173618",
" . c #060D06",
".. c #020502",
"X. c #122D13",
"o. c #327535",
"O. c #1D451E",
"+. c None",
"@. c #39823C",
"#. c #173819",
"$. c black",
"%. c #050C05",
"&. c #2D672F",
"*. c #46A14A",
"=. c #1F4720",
"-. c black",
";. c #122913",
":. c #419544",
">. c #193A1A",
",. c black",
"<. c #040903",
"1. c #1A3B1B",
"2. c #439846",
"3. c #204921",
"4. c black",
"5. c #030603",
"6. c #1D431F",
"7. c #439A47",
"8. c #214D24",
"9. c #020603",
"0. c #224E23",
"q. c #46A14A",
"w. c #459F49",
"e. c #1D421E",
"r. c #040C03",
"t. c #0B1D0C",
"y. c #285D2B",
"u. c #1A3C1C",
"i. c black",
"p. c #061506",
"a. c #173B19",
"s. c #19401C",
"d. c #47A24A",
"f. c #224B23",
"g. c black",
"h. c #020704",
"j. c #163818",
"k. c #224D23",
"l. c black",
"z. c #071108",
"x. c #153517",
"c. c #429745",
"v. c #1E4520",
"b. c black",
"n. c #0A160A",
"m. c #2B622D",
"M. c #306F33",
"N. c #3A863D",
"B. c #3F9243",
"V. c #306F33",
"C. c #142D15",
"Z. c #030203",
"A. c #0C1A0D",
"S. c #0F2511",
"D. c #163318",
"F. c #1C3F1D",
"G. c #245327",
"H. c #235025",
"J. c #2F6B31",
"K. c #306E33",
"L. c #39823C",
"P. c #3B883E",
"I. c #2A612C",
"U. c #09160A",
"Y. c black",
"T. c black",
"R. c black",
"E. c #050F05",
"W. c #070F07",
"Q. c #0D1D0E",
"!. c #0F2210",
"~. c #040804",
"^. c black",
"/. c #327835",
"(. c #3C8C40",
"). c #419444",
"_. c #337B36",
"`. c #429846",
"'. c #4BAC4F",
"]. c #4DB051",
"[. c #4BAD4F",
"{. c #347C37",
"}. c #4CAF50",
"|. c #4BAD50",
" X c #2B672E",
".X c #429946",
"XX c #4CAE50",
"oX c #347937",
"OX c #4DAF50",
"+X c #4CAF51",
"@X c #4CAE4F",
"#X c #347837",
"$X c #49A94D",
"%X c #3A843C",
"&X c #409243",
"*X c #39833C",
"=X c #4DB050",
"-X c #4DB151",
";X c #4DAF51",
":X c #4AA94D",
">X c #4CB050",
",X c #214E24",
"<X c #46A049",
"1X c #29612B",
"2X c #439B47",
"3X c #449B47",
"4X c #39853C",
"5X c #4CB051",
"6X c #459E49",
"7X c #48A64C",
"8X c #4AAA4E",
"9X c #49A74C",
"0X c white",
/* pixels */
"                                                                                ",
"                                                                                ",
"                                                                                ",
"                                                                                ",
"                                                                                ",
"                                                                                ",
"                                                                                ",
"                                                                                ",
"                                . X                                             ",
"                          o O + z x @                                           ",
"                        # $ c v b n m x                                         ",
"                        % M N B V C Z A S                                       ",
"                    & * D F G /.(.).H J K S                                     ",
"                  = - L P I _.`.'.].[.U Y T ; : > , <   1                       ",
"                  2 M R E {.`.[.}.}.}.|.W Q ! ~ ^ / ( )                         ",
"                  3 _ `  X.XXX}.}.}.}.}.XX' ] [ { } |  .S                       ",
"                  4 ..X.oX}.OX}.}.+X}.}.}.@Xo.O.+.#X@.#.z                       ",
"                    $.%.&.[.}.}.}.}.}.}.}.}.$X%X&X}.*.=.z                       ",
"                    5 -.;.*X=X}.+X}.}.}.}.OX+X}.+X].:.>.,.                      ",
"                    6 7 <.1.&X-X}.}.}.}.}.}.}.}.}.].2.3.4.                      ",
"                      8 9 5.6.7.+X}.XXOX}.}.}.}.}.=X7.8.,.                      ",
"                      0   q 9.0.q.;X}.}.XX}.}.}.}.}.w.e.4.                      ",
"                        w e r.t.y.:X>X}.XX}.}.}.}.+Xw.u.i.                      ",
"                        r p.a.s.,X<X>X}.}.}.+X}.}.}.d.f.g.                      ",
"                        t h.j.1X2X+X}.}.OX}.}.}.}.OX3Xk.l.                      ",
"                        y z.x.4X}.].5X}.}.}.}.}.}.}.c.v.l.                      ",
"                          b.n.m.M.N.B.6X7X8X'.XX}.9XV.C.u                       ",
"                          2 Z.A.S.D.F.G.H.J.K.L.P.I.U.Y.i                       ",
"                          p a s d S z T.R.E.W.Q.!.~.^.O                         ",
"                                          f g h j k l l                         ",
"                                                                                ",
"                                                                                ",
"                                                                                ",
"                                                                                ",
"                                                                                ",
"                                                                                ",
"                                                                                ",
"                                                                                ",
"                                                                                ",
"                                                                                "
};
