/* XPM */
static char *player_pos_030[] = {
/* columns rows colors chars-per-pixel */
"40 40 234 2 ",
"   c black",
".  c #001100",
"X  c #040B04",
"o  c #7BFF88",
"O  c white",
"+  c #0B150B",
"@  c #051005",
"#  c #0C1E0C",
"$  c #000400",
"%  c #030803",
"&  c #010A01",
"*  c #19001E",
"=  c #0B1C0B",
"-  c #000101",
";  c #153218",
":  c #378734",
">  c #000200",
",  c #000001",
"<  c #030804",
"1  c #245324",
"2  c #010101",
"3  c #060C07",
"4  c #020301",
"5  c #040905",
"6  c #0B1A0B",
"7  c #010000",
"8  c #09130A",
"9  c #215427",
"0  c #040704",
"q  c #050803",
"w  c #54C55A",
"e  c #0D1609",
"r  c #080E06",
"t  c #1E411E",
"y  c #000B00",
"u  c #020402",
"i  c #152E15",
"p  c #000300",
"a  c #000100",
"s  c #0C1B0D",
"d  c #060F07",
"f  c #091B0A",
"g  c #010401",
"h  c #112B12",
"j  c #1C341D",
"k  c #000800",
"l  c #1B3F1B",
"z  c #0D220F",
"x  c #92FF8F",
"c  c #030A06",
"v  c #050C09",
"b  c #001300",
"n  c #010301",
"m  c #08100A",
"M  c #0D1F10",
"N  c #DDFFED",
"B  c #ADFFB0",
"V  c #050A05",
"C  c #0B130B",
"Z  c #0C1D0E",
"A  c #010201",
"S  c #010501",
"D  c #081509",
"F  c #0F2410",
"G  c #050A05",
"H  c #113E13",
"J  c black",
"K  c #040B05",
"L  c #112B12",
"P  c #205022",
"I  c #173919",
"U  c #0B1A0A",
"Y  c #040903",
"T  c black",
"R  c #000301",
"E  c #0C200C",
"W  c #1C471E",
"Q  c #295E2A",
"!  c #1D431E",
"~  c black",
"^  c black",
"/  c #09190A",
"(  c #19401B",
")  c #3A853D",
"_  c #142F16",
"`  c black",
"'  c #0E230F",
"]  c #1E4C20",
"[  c #48A54C",
"{  c #2E6930",
"}  c black",
"|  c black",
" . c #0E220F",
".. c #1E4A21",
"X. c #419644",
"o. c #193B1C",
"O. c black",
"+. c black",
"@. c black",
"#. c #050A04",
"$. c #265828",
"%. c #327335",
"&. c #040904",
"*. c black",
"=. c #133114",
"-. c #143215",
";. c #060E06",
":. c black",
">. c #1C3F1D",
",. c #459E48",
"<. c #193A1A",
"1. c #1A401B",
"2. c #245926",
"3. c #193F1B",
"4. c #132F15",
"5. c #030704",
"6. c black",
"7. c #081207",
"8. c #2D682F",
"9. c None",
"0. c #307134",
"q. c #102711",
"w. c #030401",
"e. c #162F16",
"r. c #357A38",
"t. c #112913",
"y. c #040704",
"u. c #275829",
"i. c #2F6D31",
"p. c #091708",
"a. c black",
"s. c #0E210F",
"d. c #39833C",
"f. c #285C2A",
"g. c #030602",
"h. c #020702",
"j. c #214D23",
"k. c #459E48",
"l. c #255527",
"z. c #143216",
"x. c #1C461E",
"c. c #153316",
"v. c #419745",
"b. c #214F24",
"n. c #061207",
"m. c #163917",
"M. c #3A873E",
"N. c #143116",
"B. c #081609",
"V. c #143316",
"C. c #337535",
"Z. c #09160A",
"A. c black",
"S. c #122912",
"D. c #38803A",
"F. c #337736",
"G. c #0C1B0C",
"H. c #090F07",
"J. c #163116",
"K. c #275A29",
"L. c #317134",
"P. c #3F9243",
"I. c #47A44B",
"U. c #275A29",
"Y. c #0A1A0C",
"T. c #000001",
"R. c #000001",
"E. c #102411",
"W. c #1F4922",
"Q. c #245428",
"!. c #337636",
"~. c #409344",
"^. c #3B893F",
"/. c #173618",
"(. c black",
"). c black",
"_. c #102511",
"`. c #173818",
"'. c #1D431F",
"]. c #327235",
"[. c #39833C",
"{. c #2D6830",
"}. c #132D14",
"|. c #050C05",
" X c #010201",
".X c #0C180D",
"XX c #0E200F",
"oX c #030804",
"OX c black",
"+X c #2D6E30",
"@X c #38833B",
"#X c #377F3A",
"$X c #28652B",
"%X c #357F39",
"&X c #419545",
"*X c #49A74D",
"=X c #4CAF50",
"-X c #48A74C",
";X c #2D6D2F",
":X c #39863C",
">X c #459D48",
",X c #4CAD50",
"<X c #4CAF51",
"1X c #37803B",
"2X c #4AAA4E",
"3X c #4DAF50",
"4X c #4CAE50",
"5X c #4BAC4F",
"6X c #449C47",
"7X c #4DB051",
"8X c #4BAD4F",
"9X c #225124",
"0X c #2E6B31",
"qX c #3C8A40",
"wX c #3F9143",
"eX c #4CB050",
"rX c #49A84D",
"tX c #429846",
"yX c #4AA94E",
"uX c #4BAB4E",
"iX c #4DAF51",
"pX c #47A24A",
"aX c #47A24B",
"sX c #38803B",
"dX c #4DB151",
"fX c #204E22",
"gX c #2F6E32",
"hX c #46A14A",
"jX c #4CB051",
"kX c #38823B",
"lX c #48A54C",
"zX c #4BAB4F",
"xX c #47A34B",
"cX c white",
/* pixels */
"                                                                                ",
"                                                                                ",
"                                                                                ",
"                                                                                ",
"                                                                                ",
"                                                                                ",
"                                                                                ",
"                                                                                ",
"                            . . X o O + @ #                                     ",
"                        $ % & * S D F G H =                                     ",
"                        - ; J K L P I U Y :                                     ",
"                        T R E W +X@X#XQ ! ~                                     ",
"                    > ^ / ( $X%X&X*X=X-X) _ `   ,                               ",
"                  <   ' ] ;X:X>X,X=X=X<X[ { } 1   2 3                           ",
"                  4 |  ...1X2X3X=X=X=X=X4XX.o.O.5 +.  6                         ",
"                  7 @.#.$.2X3X3X=X<X=X=X=X5X%.&.*.=.-.;.+.                      ",
"                    8 :.>.6X7X3X=X=X<X=X=X=X,.<.1.2.3.4.5.9                     ",
"                    0 6.7.8.8X=X=X=X=X=X=X=X4X9.9X0XqX0.q.                      ",
"                      q w.e.wX=X=X=X=X=X=X=XeXrXtXyX7Xr.t.w                     ",
"                      e r y.u.uX<X<X=X=X=X=X=X3X7XiX3Xi.p.t y                   ",
"                        u a.s.d.7X4X=X3X<X<X=X=X=X7XpXf.g.i p                   ",
"                      p a 6.h.j.aX7X3X=X=X=X=X=X3X7Xk.l.~ s                     ",
"                        ` z.x.c.sXdX=X=X=X=X=X=X=X7Xv.b.a.d                     ",
"                      f n.m.fXgXhXjX=X=X=X=X=X=X=X7XM.N.@.g                     ",
"                    a h B.V.kX7XjX=X=X3X=X=X=X<X<X4XC.Z.j k                     ",
"                    a   A.S.D.lX2X<XeX<X=X<X<X3X3XzXF.G.l                       ",
"                    a   6.H.J.K.L.P.I.8XjX=X3X3X=XhXU.Y.z                       ",
"                          x T.R.E.W.Q.!.~.xX,X4X8X^./.O.>                       ",
"                            c v (.+.)._.`.'.].[.{.}.|.@ b                       ",
"                            7 7 n m M N @. X.XXXoXOXB   7                       ",
"                                      u   V C Z A a a a                         ",
"                                                                                ",
"                                                                                ",
"                                                                                ",
"                                                                                ",
"                                                                                ",
"                                                                                ",
"                                                                                ",
"                                                                                ",
"                                                                                "
};
